# Blender 4.1.1
# www.blender.org
o curve_down
v 0.000000 0.000000 -1.000000
v 0.000000 1.000000 -1.000000
v -0.000000 0.000000 1.000000
v -0.000000 1.000000 1.000000
v -3.000000 -0.200000 1.999998
v -3.000000 0.800000 1.999998
v -1.000001 -0.200000 1.999999
v -1.000001 0.800000 1.999999
v 0.000000 1.000000 -0.800000
v -0.000000 1.000000 0.800000
v -1.200001 0.800000 1.999998
v -2.800000 0.800000 1.999998
v 0.000000 0.200000 -0.800000
v -0.000000 0.200000 0.800000
v -1.200001 0.000000 1.999998
v -2.800000 0.000000 1.999998
v -2.916951 -0.197310 1.298482
v -2.687494 -0.168114 0.653584
v -2.328604 -0.123011 0.090325
v -1.859584 -0.073064 -0.371833
v -1.300476 -0.029105 -0.716677
v -0.672775 -0.001579 -0.929901
v -0.713527 0.996846 -0.911539
v -1.365612 0.966951 -0.675299
v -1.930606 0.921370 -0.310539
v -2.389897 0.871423 0.161347
v -2.728872 0.827943 0.718719
v -2.935314 0.801115 1.339234
v -0.669502 0.995057 -0.716571
v -1.279177 0.965120 -0.495163
v -1.806110 0.920632 -0.154308
v -2.233666 0.872161 0.285843
v -2.548736 0.829774 0.805155
v -2.740345 0.802904 1.383259
v -0.636900 0.196317 -0.731261
v -1.227068 0.168275 -0.528266
v -1.749292 0.125085 -0.203343
v -2.184631 0.076614 0.229025
v -2.515634 0.032929 0.753046
v -2.725655 0.004164 1.350658
v -0.284700 0.182006 0.828485
v -0.535588 0.153628 0.912822
v -0.753327 0.119180 1.046508
v -0.934781 0.082519 1.224993
v -1.074547 0.047576 1.444528
v -1.165910 0.018475 1.702858
v -0.317302 0.980746 0.843175
v -0.587696 0.950473 0.945924
v -0.810144 0.914727 1.095543
v -0.983816 0.878067 1.281810
v -1.107650 0.844421 1.496637
v -1.180600 0.817214 1.735460
v -0.273277 0.978957 1.038143
v -0.501261 0.948642 1.126060
v -0.685649 0.913989 1.251775
v -0.827585 0.878805 1.406306
v -0.927514 0.846252 1.583072
v -0.985632 0.819003 1.779485
v -0.232525 -0.019467 1.019781
v -0.436125 -0.047414 1.084682
v -0.614626 -0.080445 1.190481
v -0.766291 -0.115629 1.335284
v -0.886136 -0.149805 1.517936
v -0.967270 -0.179422 1.738733
vn -0.0000 -0.0000 1.0000
vn 1.0000 -0.0000 -0.0000
vn -0.9930 -0.0135 -0.1176
vn -0.0093 1.0000 0.0008
vn 0.9954 -0.0000 0.0963
vn -0.0000 1.0000 0.0064
vn -0.9935 -0.0000 -0.1140
vn -0.0234 0.9977 0.0632
vn 0.9977 0.0156 0.0664
vn 0.0261 -0.9968 -0.0752
vn -0.9418 -0.0172 -0.3359
vn -0.8428 -0.0135 -0.5381
vn -0.7015 -0.0062 -0.7126
vn -0.5250 0.0010 -0.8511
vn -0.3218 0.0043 -0.9468
vn -0.1036 -0.0000 -0.9946
vn -0.0266 0.9991 0.0343
vn -0.0450 0.9977 0.0505
vn -0.0570 0.9971 0.0501
vn -0.0565 0.9977 0.0372
vn -0.0393 0.9991 0.0180
vn -0.0044 1.0000 -0.0000
vn 0.9491 0.0046 0.3148
vn 0.8549 0.0016 0.5188
vn 0.7176 -0.0055 0.6964
vn 0.5439 -0.0129 0.8391
vn 0.3420 -0.0167 0.9395
vn 0.1237 -0.0132 0.9922
vn -0.0186 0.9990 0.0416
vn -0.0384 0.9975 0.0589
vn -0.0520 0.9969 0.0594
vn -0.0532 0.9975 0.0471
vn -0.0377 0.9989 0.0283
vn -0.0047 0.9999 0.0102
vn -0.9426 -0.0037 -0.3338
vn -0.8436 0.0001 -0.5370
vn -0.7020 0.0076 -0.7121
vn -0.5249 0.0150 -0.8510
vn -0.3204 0.0184 -0.9471
vn -0.1004 0.0142 -0.9948
vn -0.0562 0.9938 0.0960
vn -0.0879 0.9906 0.1045
vn -0.1099 0.9896 0.0923
vn -0.1153 0.9912 0.0654
vn -0.0994 0.9946 0.0316
vn -0.0606 0.9982 -0.0000
vn 0.9579 0.0211 0.2864
vn 0.8689 0.0182 0.4946
vn 0.7352 0.0107 0.6777
vn 0.5630 0.0025 0.8265
vn 0.3601 -0.0025 0.9329
vn 0.1382 -0.0000 0.9904
vn 0.0628 -0.9919 -0.1100
vn 0.0998 -0.9878 -0.1194
vn 0.1274 -0.9862 -0.1062
vn 0.1376 -0.9876 -0.0761
vn 0.1243 -0.9916 -0.0372
vn 0.0834 -0.9965 -0.0000
vn -0.9952 -0.0000 -0.0974
vn -0.0000 1.0000 0.0047
vn 0.9934 0.0136 0.1138
vn -0.0226 0.9980 0.0595
vn -0.9971 -0.0153 -0.0741
vn -0.0000 0.9963 0.0859
vn 0.9922 -0.0000 0.1243
vn -0.0000 -1.0000 -0.0038
vn -0.9488 -0.0046 -0.3159
vn -0.8543 -0.0015 -0.5197
vn -0.7169 0.0056 -0.6972
vn -0.5431 0.0130 -0.8396
vn -0.3412 0.0167 -0.9398
vn -0.1231 0.0132 -0.9923
vn -0.0183 0.9990 0.0404
vn -0.0381 0.9976 0.0583
vn -0.0520 0.9969 0.0593
vn -0.0536 0.9974 0.0474
vn -0.0386 0.9988 0.0287
vn -0.0061 0.9999 0.0105
vn 0.9430 0.0174 0.3323
vn 0.8449 0.0139 0.5348
vn 0.7043 0.0065 0.7099
vn 0.5283 -0.0007 0.8490
vn 0.3254 -0.0041 0.9456
vn 0.1073 -0.0000 0.9942
vn -0.0546 0.9942 0.0927
vn -0.0865 0.9909 0.1027
vn -0.1095 0.9897 0.0919
vn -0.1163 0.9910 0.0659
vn -0.1017 0.9943 0.0321
vn -0.0631 0.9980 -0.0000
vn -0.9555 -0.0205 -0.2942
vn -0.8650 -0.0175 -0.5014
vn -0.7304 -0.0101 -0.6830
vn -0.5579 -0.0020 -0.8299
vn -0.3555 0.0027 -0.9347
vn -0.1348 -0.0000 -0.9909
vn -0.0376 0.9913 0.1264
vn -0.0765 0.9874 0.1386
vn -0.1060 0.9862 0.1272
vn -0.1183 0.9880 0.0989
vn -0.1081 0.9922 0.0619
vn -0.0732 0.9970 0.0257
vn 0.9385 0.0032 0.3453
vn 0.8362 -0.0011 0.5484
vn 0.6916 -0.0090 0.7222
vn 0.5120 -0.0164 0.8588
vn 0.3061 -0.0195 0.9518
vn 0.0860 -0.0148 0.9962
vn 0.0179 -0.9991 -0.0388
vn 0.0371 -0.9977 -0.0562
vn 0.0501 -0.9971 -0.0569
vn 0.0506 -0.9977 -0.0451
vn 0.0347 -0.9990 -0.0268
vn 0.0014 -1.0000 -0.0095
vt 0.625000 0.666667
vt 0.375000 0.750000
vt 0.375000 0.500000
vt 0.375000 1.000000
vt 0.875000 0.583333
vt 0.375000 0.250000
vt 0.625000 0.785714
vt 0.375000 0.785714
vt 0.625000 0.750000
vt 0.660714 0.666667
vt 0.625000 0.583333
vt 0.660714 0.583333
vt 0.660714 0.500000
vt 0.625000 0.500000
vt 0.375000 0.464286
vt 0.625000 0.821429
vt 0.375000 0.821429
vt 0.625000 0.857143
vt 0.375000 0.857143
vt 0.625000 0.892857
vt 0.375000 0.892857
vt 0.625000 0.928571
vt 0.375000 0.928571
vt 0.625000 0.964286
vt 0.375000 0.964286
vt 0.625000 1.000000
vt 0.696429 0.666667
vt 0.732143 0.666667
vt 0.767857 0.666667
vt 0.803571 0.666667
vt 0.839286 0.666667
vt 0.875000 0.666667
vt 0.696429 0.583333
vt 0.732143 0.583333
vt 0.767857 0.583333
vt 0.803571 0.583333
vt 0.839286 0.583333
vt 0.696429 0.500000
vt 0.732143 0.500000
vt 0.767857 0.500000
vt 0.803571 0.500000
vt 0.839286 0.500000
vt 0.875000 0.500000
vt 0.375000 0.428571
vt 0.375000 0.392857
vt 0.375000 0.357143
vt 0.375000 0.321429
vt 0.375000 0.285714
s 0
f 16/1/1 5/2/1 7/3/1
f 1/4/2 14/5/2 3/6/2
f 5/2/3 28/7/3 17/8/3
f 6/9/4 34/10/4 28/7/4
f 16/1/5 34/10/5 12/1/5
f 15/11/6 40/10/6 16/1/6
f 11/11/7 46/12/7 15/11/7
f 11/11/8 58/13/8 52/12/8
f 8/14/9 64/15/9 58/13/9
f 7/3/10 17/8/10 64/15/10
f 17/8/11 27/16/11 18/17/11
f 18/17/12 26/18/12 19/19/12
f 19/19/13 25/20/13 20/21/13
f 20/21/14 24/22/14 21/23/14
f 21/23/15 23/24/15 22/25/15
f 22/25/16 2/26/16 1/4/16
f 28/7/17 33/27/17 27/16/17
f 27/16/18 32/28/18 26/18/18
f 26/18/19 31/29/19 25/20/19
f 25/20/20 30/30/20 24/22/20
f 24/22/21 29/31/21 23/24/21
f 23/24/22 9/32/22 2/26/22
f 40/10/23 33/27/23 34/10/23
f 39/27/24 32/28/24 33/27/24
f 38/28/25 31/29/25 32/28/25
f 37/29/26 30/30/26 31/29/26
f 36/30/27 29/31/27 30/30/27
f 35/31/28 9/32/28 29/31/28
f 46/12/29 39/27/29 40/10/29
f 45/33/30 38/28/30 39/27/30
f 44/34/31 37/29/31 38/28/31
f 43/35/32 36/30/32 37/29/32
f 42/36/33 35/31/33 36/30/33
f 41/37/34 13/32/34 35/31/34
f 52/12/35 45/33/35 46/12/35
f 51/33/36 44/34/36 45/33/36
f 50/34/37 43/35/37 44/34/37
f 49/35/38 42/36/38 43/35/38
f 48/36/39 41/37/39 42/36/39
f 47/37/40 14/5/40 41/37/40
f 52/12/41 57/38/41 51/33/41
f 51/33/42 56/39/42 50/34/42
f 50/34/43 55/40/43 49/35/43
f 49/35/44 54/41/44 48/36/44
f 48/36/45 53/42/45 47/37/45
f 47/37/46 4/43/46 10/5/46
f 58/13/47 63/44/47 57/38/47
f 57/38/48 62/45/48 56/39/48
f 56/39/49 61/46/49 55/40/49
f 55/40/50 60/47/50 54/41/50
f 54/41/51 59/48/51 53/42/51
f 53/42/52 3/6/52 4/43/52
f 64/15/53 18/17/53 63/44/53
f 63/44/54 19/19/54 62/45/54
f 62/45/55 20/21/55 61/46/55
f 61/46/56 21/23/56 60/47/56
f 60/47/57 22/25/57 59/48/57
f 59/48/58 1/4/58 3/6/58
f 7/3/1 8/14/1 11/11/1
f 7/3/1 11/11/1 15/11/1
f 12/1/1 6/9/1 5/2/1
f 7/3/1 15/11/1 16/1/1
f 16/1/1 12/1/1 5/2/1
f 1/4/2 2/26/2 9/32/2
f 1/4/2 9/32/2 13/32/2
f 10/5/2 4/43/2 3/6/2
f 1/4/2 13/32/2 14/5/2
f 14/5/2 10/5/2 3/6/2
f 5/2/59 6/9/59 28/7/59
f 6/9/60 12/1/60 34/10/60
f 16/1/61 40/10/61 34/10/61
f 15/11/62 46/12/62 40/10/62
f 11/11/63 52/12/63 46/12/63
f 11/11/64 8/14/64 58/13/64
f 8/14/65 7/3/65 64/15/65
f 7/3/66 5/2/66 17/8/66
f 17/8/67 28/7/67 27/16/67
f 18/17/68 27/16/68 26/18/68
f 19/19/69 26/18/69 25/20/69
f 20/21/70 25/20/70 24/22/70
f 21/23/71 24/22/71 23/24/71
f 22/25/72 23/24/72 2/26/72
f 28/7/73 34/10/73 33/27/73
f 27/16/74 33/27/74 32/28/74
f 26/18/75 32/28/75 31/29/75
f 25/20/76 31/29/76 30/30/76
f 24/22/77 30/30/77 29/31/77
f 23/24/78 29/31/78 9/32/78
f 40/10/79 39/27/79 33/27/79
f 39/27/80 38/28/80 32/28/80
f 38/28/81 37/29/81 31/29/81
f 37/29/82 36/30/82 30/30/82
f 36/30/83 35/31/83 29/31/83
f 35/31/84 13/32/84 9/32/84
f 46/12/85 45/33/85 39/27/85
f 45/33/86 44/34/86 38/28/86
f 44/34/87 43/35/87 37/29/87
f 43/35/88 42/36/88 36/30/88
f 42/36/89 41/37/89 35/31/89
f 41/37/90 14/5/90 13/32/90
f 52/12/91 51/33/91 45/33/91
f 51/33/92 50/34/92 44/34/92
f 50/34/93 49/35/93 43/35/93
f 49/35/94 48/36/94 42/36/94
f 48/36/95 47/37/95 41/37/95
f 47/37/96 10/5/96 14/5/96
f 52/12/97 58/13/97 57/38/97
f 51/33/98 57/38/98 56/39/98
f 50/34/99 56/39/99 55/40/99
f 49/35/100 55/40/100 54/41/100
f 48/36/101 54/41/101 53/42/101
f 47/37/102 53/42/102 4/43/102
f 58/13/103 64/15/103 63/44/103
f 57/38/104 63/44/104 62/45/104
f 56/39/105 62/45/105 61/46/105
f 55/40/106 61/46/106 60/47/106
f 54/41/107 60/47/107 59/48/107
f 53/42/108 59/48/108 3/6/108
f 64/15/109 17/8/109 18/17/109
f 63/44/110 18/17/110 19/19/110
f 62/45/111 19/19/111 20/21/111
f 61/46/112 20/21/112 21/23/112
f 60/47/113 21/23/113 22/25/113
f 59/48/114 22/25/114 1/4/114
