# Blender 4.1.1
# www.blender.org
o curve_down.001
v 0.100000 0.000000 -3.100000
v 0.100000 1.080000 -3.100000
v -2.900000 0.648000 -0.100002
v 0.100000 1.080000 -2.900000
v 0.100000 0.432000 -2.900000
v -2.816951 -0.426189 -0.801518
v -2.587494 -0.363126 -1.446416
v -2.228604 -0.265703 -2.009675
v -1.759584 -0.157817 -2.471833
v -1.200477 -0.062867 -2.816677
v -0.572775 -0.003411 -3.029901
v -0.613527 1.073187 -3.011539
v -1.265612 1.008615 -2.775299
v -1.830606 0.910160 -2.410539
v -2.289897 0.802274 -1.938653
v -2.628872 0.708356 -1.381281
v -2.835314 0.650408 -0.760766
v -0.569502 1.069323 -2.816571
v -1.179177 1.004660 -2.595163
v -1.706110 0.908565 -2.254308
v -2.133666 0.803868 -1.814157
v -2.448736 0.712311 -1.294845
v -2.640346 0.654272 -0.716741
v -0.536901 0.424045 -2.831261
v -1.127069 0.363475 -2.628266
v -1.649292 0.270184 -2.303343
v -2.084631 0.165487 -1.870975
v -2.415634 0.071126 -1.346954
v -2.625655 0.008994 -0.749342
v -0.184700 0.393134 -1.271515
v -0.435588 0.331837 -1.187178
v -0.653327 0.257428 -1.053492
v -0.834781 0.178242 -0.875007
v -0.974547 0.102763 -0.655472
v -1.065910 0.039905 -0.397141
v -0.217302 1.038412 -1.256825
v -0.487697 0.973022 -1.154076
v -0.710144 0.895810 -1.004457
v -0.883816 0.816624 -0.818190
v -1.007650 0.743949 -0.603363
v -1.080601 0.685183 -0.364540
v -0.173277 1.034548 -1.061857
v -0.401261 0.969067 -0.973940
v -0.585649 0.894215 -0.848225
v -0.727585 0.818218 -0.693694
v -0.827514 0.747904 -0.516928
v -0.885632 0.689047 -0.320515
v -0.132525 -0.042050 -1.080219
v -0.336126 -0.102414 -1.015318
v -0.514627 -0.173762 -0.909519
v -0.666291 -0.249759 -0.764716
v -0.786136 -0.323578 -0.582064
v -0.867270 -0.387551 -0.361266
v 0.100000 0.000000 -1.100000
v 0.100000 1.080000 -1.100000
v 3.500001 0.648000 -1.100000
v 3.500001 1.728000 -1.100000
v 3.500000 0.648000 -3.100000
v 3.500000 1.728000 -3.100000
v 0.100000 1.080000 -1.300000
v 3.500000 1.728000 -2.900000
v 3.500001 1.728000 -1.300000
v 0.100000 0.432000 -1.300000
v 3.500000 1.080000 -2.900000
v 3.500001 1.080000 -1.300000
v 3.700001 0.648000 -1.100000
v 3.700001 1.728000 -1.100000
v 3.700001 0.648000 -3.100000
v 3.700001 1.728000 -3.100000
v 3.700001 1.728000 -2.900000
v 3.700001 1.728000 -1.300000
v -2.900000 -0.432000 -0.100002
v -0.900000 -0.432000 -0.100002
v -0.900000 0.648000 -0.100002
v 0.099998 -0.864000 0.899998
v 0.099998 0.216000 0.899998
v -2.700000 0.648000 -0.100002
v -1.100001 0.648000 -0.100002
v -2.700000 0.000000 -0.100002
v -1.100001 0.000000 -0.100002
v -0.601518 -0.858190 2.816949
v -1.246416 -0.795125 2.587492
v -1.809675 -0.697703 2.228602
v -2.271833 -0.589817 1.759582
v -2.616677 -0.494867 1.200475
v -2.829901 -0.435411 0.572774
v -2.811539 0.641187 0.613525
v -2.575299 0.576615 1.265610
v -2.210539 0.478160 1.830604
v -1.738653 0.370274 2.289895
v -1.181281 0.276356 2.628870
v -0.560766 0.218408 2.835311
v -2.616571 0.637323 0.569500
v -2.395163 0.572660 1.179175
v -2.054308 0.476565 1.706108
v -1.614157 0.371868 2.133664
v -1.094846 0.280311 2.448734
v -0.516741 0.222272 2.640343
v -2.631261 -0.007955 0.536899
v -2.428266 -0.068525 1.127066
v -2.103343 -0.161816 1.649290
v -1.670975 -0.266513 2.084629
v -1.146954 -0.360874 2.415632
v -0.549342 -0.423006 2.625653
v -1.071515 -0.038866 0.184698
v -0.987179 -0.100163 0.435586
v -0.853492 -0.174572 0.653324
v -0.675007 -0.253758 0.834779
v -0.455472 -0.329237 0.974545
v -0.197142 -0.392095 1.065908
v -1.056825 0.606412 0.217300
v -0.954076 0.541022 0.487694
v -0.804457 0.463810 0.710142
v -0.618190 0.384624 0.883814
v -0.403363 0.311949 1.007648
v -0.164540 0.253183 1.080598
v -0.861857 0.602548 0.173274
v -0.773940 0.537067 0.401259
v -0.648226 0.462215 0.585646
v -0.493694 0.386218 0.727583
v -0.316928 0.315903 0.827512
v -0.120515 0.257047 0.885630
v -0.880220 -0.474050 0.132523
v -0.815318 -0.534414 0.336123
v -0.709519 -0.605762 0.514624
v -0.564716 -0.681759 0.666289
v -0.382064 -0.755578 0.786134
v -0.161267 -0.819551 0.867267
v 0.099999 -0.864000 2.899998
v 0.099999 0.216000 2.899998
v 1.099998 -1.296000 -0.100001
v 0.099998 0.216000 2.699998
v 0.099998 0.216000 1.099998
v 1.299998 -0.216000 -0.100001
v 0.099998 -0.432000 2.699998
v 0.099998 -0.432000 1.099998
v 1.299998 -0.864000 -0.100001
v 3.016949 -1.290190 0.601515
v 2.787492 -1.227126 1.246414
v 2.428602 -1.129704 1.809672
v 1.959582 -1.021817 2.271830
v 1.400475 -0.926867 2.616675
v 0.772774 -0.867411 2.829899
v 0.813525 0.209187 2.811537
v 1.465611 0.144615 2.575297
v 2.030604 0.046160 2.210537
v 2.489896 -0.061726 1.738650
v 2.828870 -0.155644 1.181278
v 3.035312 -0.213592 0.560763
v 0.769500 0.205323 2.616569
v 1.379176 0.140660 2.395161
v 1.906108 0.044565 2.054306
v 2.333664 -0.060132 1.614154
v 2.648734 -0.151689 1.094843
v 2.840343 -0.209728 0.516739
v 0.736899 -0.439955 2.631258
v 1.327067 -0.500525 2.428263
v 1.849291 -0.593816 2.103340
v 2.284629 -0.698514 1.670972
v 2.615632 -0.792874 1.146952
v 2.825653 -0.855006 0.549340
v 0.384698 -0.470866 1.071513
v 0.635586 -0.532163 0.987177
v 0.853325 -0.606572 0.853490
v 1.034779 -0.685758 0.675005
v 1.174545 -0.761237 0.455470
v 1.265908 -0.824095 0.197139
v 0.417300 0.174412 1.056823
v 0.687695 0.109022 0.954074
v 0.910142 0.031810 0.804455
v 1.083814 -0.047376 0.618188
v 1.207648 -0.120051 0.403361
v 1.280598 -0.178817 0.164538
v 0.373275 0.170548 0.861855
v 0.601259 0.105067 0.773938
v 0.785646 0.030215 0.648223
v 0.927583 -0.045782 0.493692
v 1.027512 -0.116097 0.316926
v 1.085630 -0.174953 0.120513
v 0.332523 -0.906050 0.880218
v 0.536124 -0.966414 0.815316
v 0.714624 -1.037762 0.709517
v 0.866289 -1.113759 0.564714
v 0.986134 -1.187578 0.382062
v 1.067267 -1.251551 0.161265
v 3.099998 -1.296000 -0.100001
v 3.099998 -0.216000 -0.100001
v 1.099998 -0.216000 -0.100001
v 0.099998 -1.728000 -3.100000
v 0.099998 -0.648000 -3.100000
v 0.099999 -1.728000 -1.100001
v 0.099999 -0.648000 -1.100001
v 2.899998 -0.216000 -0.100001
v 0.099999 -0.648000 -1.300001
v 0.099999 -0.648000 -2.900000
v 2.899998 -0.864000 -0.100001
v 0.099999 -1.296000 -1.300001
v 0.099999 -1.296000 -2.900000
v 0.801514 -1.722190 -3.016951
v 1.446413 -1.659126 -2.787495
v 2.009672 -1.561704 -2.428605
v 2.471830 -1.453817 -1.959585
v 2.816675 -1.358867 -1.400478
v 3.029899 -1.299411 -0.772777
v 3.011537 -0.222813 -0.813528
v 2.775296 -0.287385 -1.465614
v 2.410537 -0.385840 -2.030607
v 1.938650 -0.493726 -2.489898
v 1.381278 -0.587644 -2.828873
v 0.760763 -0.645592 -3.035314
v 2.816569 -0.226677 -0.769503
v 2.595160 -0.291340 -1.379178
v 2.254305 -0.387435 -1.906111
v 1.814154 -0.492132 -2.333667
v 1.294842 -0.583689 -2.648737
v 0.716738 -0.641728 -2.840346
v 2.831259 -0.871955 -0.736902
v 2.628263 -0.932525 -1.327070
v 2.303340 -1.025816 -1.849293
v 1.870972 -1.130514 -2.284632
v 1.346951 -1.224874 -2.615634
v 0.749339 -1.287006 -2.825656
v 1.271513 -0.902866 -0.384701
v 1.187176 -0.964163 -0.635588
v 1.053489 -1.038572 -0.853327
v 0.875005 -1.117758 -1.034781
v 0.655470 -1.193237 -1.174548
v 0.397139 -1.256095 -1.265910
v 1.256823 -0.257588 -0.417302
v 1.154073 -0.322978 -0.687697
v 1.004454 -0.400190 -0.910145
v 0.818187 -0.479376 -1.083816
v 0.603361 -0.552051 -1.207650
v 0.364538 -0.610817 -1.280601
v 1.061855 -0.261452 -0.373277
v 0.973938 -0.326933 -0.601262
v 0.848223 -0.401785 -0.785649
v 0.693692 -0.477782 -0.927585
v 0.516926 -0.548097 -1.027514
v 0.320513 -0.606954 -1.085632
v 1.080217 -1.338050 -0.332526
v 1.015316 -1.398414 -0.536126
v 0.909517 -1.469762 -0.714627
v 0.764714 -1.545759 -0.866291
v 0.582061 -1.619578 -0.986136
v 0.361264 -1.683551 -1.067270
v -2.900002 -2.160000 -0.100001
v -2.900002 -1.080000 -0.100001
v -2.700001 -1.080000 -0.100001
v -2.700001 -1.728000 -0.100001
v -2.816952 -2.154190 -0.801517
v -2.587495 -2.091125 -1.446416
v -2.228605 -1.993703 -2.009674
v -1.759585 -1.885817 -2.471833
v -1.200478 -1.790867 -2.816677
v -0.572777 -1.731411 -3.029901
v -0.613528 -0.654813 -3.011539
v -1.265614 -0.719385 -2.775298
v -1.830607 -0.817840 -2.410539
v -2.289899 -0.925726 -1.938652
v -2.628873 -1.019644 -1.381280
v -2.835315 -1.077592 -0.760766
v -0.569503 -0.658677 -2.816570
v -1.179179 -0.723340 -2.595163
v -1.706112 -0.819435 -2.254308
v -2.133667 -0.924132 -1.814157
v -2.448737 -1.015689 -1.294845
v -2.640347 -1.073728 -0.716741
v -0.536902 -1.303955 -2.831260
v -1.127070 -1.364525 -2.628265
v -1.649294 -1.457816 -2.303343
v -2.084632 -1.562514 -1.870974
v -2.415635 -1.656874 -1.346954
v -2.625657 -1.719006 -0.749342
v -0.184702 -1.334866 -1.271515
v -0.435589 -1.396163 -1.187178
v -0.653328 -1.470572 -1.053491
v -0.834782 -1.549758 -0.875007
v -0.974549 -1.625237 -0.655472
v -1.065912 -1.688095 -0.397141
v -0.217303 -0.689588 -1.256825
v -0.487698 -0.754978 -1.154076
v -0.710146 -0.832190 -1.004457
v -0.883817 -0.911376 -0.818189
v -1.007651 -0.984051 -0.603363
v -1.080602 -1.042817 -0.364540
v -0.173278 -0.693452 -1.061857
v -0.401263 -0.758933 -0.973940
v -0.585650 -0.833785 -0.848225
v -0.727586 -0.909782 -0.693694
v -0.827515 -0.980097 -0.516928
v -0.885633 -1.038954 -0.320515
v -0.132526 -1.770050 -1.080219
v -0.336127 -1.830414 -1.015318
v -0.514628 -1.901762 -0.909519
v -0.666292 -1.977759 -0.764716
v -0.786137 -2.051579 -0.582064
v -0.867271 -2.115551 -0.361266
v -0.900001 -2.160000 -0.100002
v -0.900001 -1.080000 -0.100002
v 0.099999 -2.592000 2.899998
v 0.099998 -2.592000 0.899998
v 0.099998 -1.512000 0.899998
v -1.100001 -1.080000 -0.100001
v -1.100001 -1.728000 -0.100001
v 0.099999 -2.160000 2.699997
v -0.601517 -2.586190 2.816949
v -1.246416 -2.523126 2.587492
v -1.809674 -2.425704 2.228603
v -2.271833 -2.317817 1.759583
v -2.616677 -2.222867 1.200476
v -2.829902 -2.163411 0.572775
v -2.811539 -1.086813 0.613526
v -2.575299 -1.151385 1.265612
v -2.210539 -1.249840 1.830605
v -1.738652 -1.357726 2.289896
v -1.181280 -1.451644 2.628871
v -0.560765 -1.509592 2.835311
v -2.616571 -1.090677 0.569501
v -2.395163 -1.155340 1.179176
v -2.054308 -1.251435 1.706109
v -1.614157 -1.356132 2.133665
v -1.094845 -1.447689 2.448735
v -0.516740 -1.505728 2.640343
v -2.631261 -1.735955 0.536900
v -2.428266 -1.796525 1.127068
v -2.103343 -1.889817 1.649291
v -1.670974 -1.994514 2.084630
v -1.146954 -2.088875 2.415632
v -0.549341 -2.151006 2.625653
v -1.071516 -1.766866 0.184699
v -0.987179 -1.828163 0.435586
v -0.853492 -1.902572 0.653325
v -0.675008 -1.981758 0.834779
v -0.455472 -2.057236 0.974545
v -0.197142 -2.120095 1.065908
v -1.056826 -1.121588 0.217300
v -0.954077 -1.186978 0.487695
v -0.804457 -1.264190 0.710142
v -0.618190 -1.343376 0.883814
v -0.403364 -1.416051 1.007648
v -0.164541 -1.474817 1.080598
v -0.861858 -1.125452 0.173275
v -0.773941 -1.190933 0.401259
v -0.648226 -1.265785 0.585647
v -0.493695 -1.341782 0.727583
v -0.316929 -1.412097 0.827512
v -0.120516 -1.470953 0.885630
v -0.880221 -2.202050 0.132523
v -0.815319 -2.262414 0.336124
v -0.709520 -2.333762 0.514624
v -0.564717 -2.409759 0.666289
v -0.382064 -2.483578 0.786134
v -0.161267 -2.547551 0.867267
v 3.499999 -3.240000 0.899998
v 3.499999 -2.160000 0.899998
v 3.499998 -3.240000 2.899998
v 3.499998 -2.160000 2.899998
v 0.099998 -1.512000 2.899998
v 3.499999 -2.160000 1.099998
v 3.499998 -2.160000 2.699998
v 0.099998 -1.512000 2.699998
v 0.099998 -1.512000 1.099998
v 3.499999 -2.808000 1.099998
v 3.499998 -2.808000 2.699998
v 0.099998 -2.160000 1.099998
vn -0.0000 -0.0000 1.0000
vn 1.0000 -0.0000 -0.0000
vn -0.9930 -0.0125 -0.1177
vn -0.0202 0.9998 0.0017
vn 0.9954 -0.0000 0.0963
vn -0.0000 0.9999 0.0138
vn -0.9935 -0.0000 -0.1140
vn -0.0502 0.9895 0.1354
vn 0.9976 0.0145 0.0677
vn 0.0558 -0.9854 -0.1607
vn -0.9415 -0.0159 -0.3366
vn -0.8423 -0.0125 -0.5389
vn -0.7012 -0.0057 -0.7129
vn -0.5251 0.0009 -0.8511
vn -0.3220 0.0040 -0.9467
vn -0.1036 -0.0000 -0.9946
vn -0.0573 0.9956 0.0739
vn -0.0963 0.9895 0.1082
vn -0.1218 0.9868 0.1071
vn -0.1209 0.9895 0.0798
vn -0.0845 0.9957 0.0388
vn -0.0095 1.0000 -0.0000
vn 0.9490 0.0057 0.3151
vn 0.8548 0.0020 0.5190
vn 0.7181 -0.0068 0.6959
vn 0.5451 -0.0159 0.8382
vn 0.3432 -0.0206 0.9390
vn 0.1239 -0.0163 0.9922
vn -0.0399 0.9952 0.0894
vn -0.0822 0.9886 0.1261
vn -0.1111 0.9857 0.1268
vn -0.1138 0.9884 0.1008
vn -0.0812 0.9948 0.0608
vn -0.0101 0.9997 0.0221
vn -0.9409 -0.0211 -0.3379
vn -0.8409 -0.0164 -0.5410
vn -0.6996 -0.0074 -0.7145
vn -0.5236 0.0014 -0.8520
vn -0.3198 0.0054 -0.9475
vn -0.1019 0.0175 -0.9946
vn -0.1187 0.9720 0.2029
vn -0.1837 0.9584 0.2183
vn -0.2290 0.9543 0.1922
vn -0.2414 0.9607 0.1369
vn -0.2105 0.9753 0.0669
vn -0.1300 0.9915 -0.0000
vn 0.9571 0.0194 0.2890
vn 0.8699 0.0036 0.4932
vn 0.7371 -0.0026 0.6758
vn 0.5660 -0.0097 0.8244
vn 0.3604 -0.0023 0.9328
vn 0.1382 -0.0000 0.9904
vn 0.1319 -0.9640 -0.2308
vn 0.2066 -0.9467 -0.2471
vn 0.2623 -0.9399 -0.2186
vn 0.2847 -0.9456 -0.1574
vn 0.2605 -0.9623 -0.0779
vn 0.1780 -0.9840 -0.0000
vn -0.0000 -0.0000 -1.0000
vn -0.1872 0.9823 -0.0000
vn 0.1872 -0.9823 -0.0000
vn -1.0000 -0.0000 -0.0000
vn -0.0000 -1.0000 -0.0000
vn -0.0000 1.0000 -0.0000
vn -0.1177 -0.0125 0.9930
vn 0.0017 0.9998 0.0202
vn 0.0963 -0.0000 -0.9954
vn 0.0138 0.9999 -0.0000
vn -0.1140 -0.0000 0.9935
vn 0.1354 0.9895 0.0502
vn 0.0677 0.0145 -0.9976
vn -0.1607 -0.9854 -0.0558
vn -0.3366 -0.0159 0.9415
vn -0.5389 -0.0125 0.8423
vn -0.7129 -0.0057 0.7012
vn -0.8511 0.0009 0.5251
vn -0.9467 0.0040 0.3220
vn -0.9946 -0.0000 0.1036
vn 0.0739 0.9956 0.0573
vn 0.1082 0.9895 0.0963
vn 0.1071 0.9868 0.1218
vn 0.0798 0.9895 0.1209
vn 0.0388 0.9957 0.0845
vn -0.0000 1.0000 0.0095
vn 0.3151 0.0057 -0.9490
vn 0.5190 0.0020 -0.8548
vn 0.6959 -0.0068 -0.7181
vn 0.8382 -0.0159 -0.5451
vn 0.9390 -0.0206 -0.3432
vn 0.9922 -0.0163 -0.1239
vn 0.0894 0.9952 0.0399
vn 0.1261 0.9886 0.0822
vn 0.1268 0.9857 0.1111
vn 0.1008 0.9884 0.1138
vn 0.0608 0.9948 0.0812
vn 0.0221 0.9997 0.0101
vn -0.3379 -0.0211 0.9409
vn -0.5410 -0.0164 0.8409
vn -0.7145 -0.0074 0.6996
vn -0.8520 0.0014 0.5236
vn -0.9475 0.0054 0.3198
vn -0.9946 0.0175 0.1019
vn 0.2029 0.9720 0.1187
vn 0.2183 0.9584 0.1837
vn 0.1922 0.9543 0.2290
vn 0.1369 0.9607 0.2414
vn 0.0669 0.9753 0.2105
vn -0.0000 0.9915 0.1300
vn 0.2890 0.0194 -0.9571
vn 0.4932 0.0036 -0.8699
vn 0.6758 -0.0026 -0.7371
vn 0.8244 -0.0097 -0.5660
vn 0.9328 -0.0023 -0.3604
vn 0.9904 -0.0000 -0.1382
vn -0.2308 -0.9640 -0.1319
vn -0.2471 -0.9467 -0.2066
vn -0.2186 -0.9399 -0.2623
vn -0.1574 -0.9456 -0.2847
vn -0.0779 -0.9623 -0.2605
vn -0.0000 -0.9840 -0.1780
vn 0.9930 -0.0125 0.1177
vn 0.0202 0.9998 -0.0017
vn -0.9954 -0.0000 -0.0963
vn -0.0000 0.9999 -0.0138
vn 0.9935 -0.0000 0.1140
vn 0.0502 0.9895 -0.1354
vn -0.9976 0.0145 -0.0677
vn -0.0558 -0.9854 0.1607
vn 0.9415 -0.0159 0.3366
vn 0.8423 -0.0125 0.5389
vn 0.7012 -0.0057 0.7129
vn 0.5251 0.0009 0.8511
vn 0.3220 0.0040 0.9467
vn 0.1036 -0.0000 0.9946
vn 0.0573 0.9956 -0.0739
vn 0.0963 0.9895 -0.1082
vn 0.1218 0.9868 -0.1071
vn 0.1209 0.9895 -0.0798
vn 0.0845 0.9957 -0.0388
vn 0.0095 1.0000 -0.0000
vn -0.9490 0.0057 -0.3151
vn -0.8548 0.0020 -0.5190
vn -0.7181 -0.0068 -0.6959
vn -0.5451 -0.0159 -0.8382
vn -0.3432 -0.0206 -0.9390
vn -0.1239 -0.0163 -0.9922
vn 0.0399 0.9952 -0.0894
vn 0.0822 0.9886 -0.1261
vn 0.1111 0.9857 -0.1268
vn 0.1138 0.9884 -0.1008
vn 0.0812 0.9948 -0.0608
vn 0.0101 0.9997 -0.0221
vn 0.9409 -0.0211 0.3379
vn 0.8409 -0.0164 0.5410
vn 0.6996 -0.0074 0.7145
vn 0.5236 0.0014 0.8520
vn 0.3198 0.0054 0.9475
vn 0.1019 0.0175 0.9946
vn 0.1187 0.9720 -0.2029
vn 0.1837 0.9584 -0.2183
vn 0.2290 0.9543 -0.1922
vn 0.2414 0.9607 -0.1369
vn 0.2105 0.9753 -0.0669
vn 0.1300 0.9915 -0.0000
vn -0.9571 0.0194 -0.2890
vn -0.8699 0.0036 -0.4932
vn -0.7371 -0.0026 -0.6758
vn -0.5660 -0.0097 -0.8244
vn -0.3604 -0.0023 -0.9328
vn -0.1382 -0.0000 -0.9904
vn -0.1319 -0.9640 0.2308
vn -0.2066 -0.9467 0.2471
vn -0.2623 -0.9399 0.2186
vn -0.2847 -0.9456 0.1574
vn -0.2605 -0.9623 0.0779
vn -0.1780 -0.9840 -0.0000
vn 0.1177 -0.0125 -0.9930
vn -0.0017 0.9998 -0.0202
vn -0.0963 -0.0000 0.9954
vn -0.0138 0.9999 -0.0000
vn 0.1140 -0.0000 -0.9935
vn -0.1354 0.9895 -0.0502
vn -0.0677 0.0145 0.9976
vn 0.1607 -0.9854 0.0558
vn 0.3366 -0.0159 -0.9415
vn 0.5389 -0.0125 -0.8423
vn 0.7129 -0.0057 -0.7012
vn 0.8511 0.0009 -0.5251
vn 0.9467 0.0040 -0.3220
vn 0.9946 -0.0000 -0.1036
vn -0.0739 0.9956 -0.0573
vn -0.1082 0.9895 -0.0963
vn -0.1071 0.9868 -0.1218
vn -0.0798 0.9895 -0.1209
vn -0.0388 0.9957 -0.0845
vn -0.0000 1.0000 -0.0095
vn -0.3151 0.0057 0.9490
vn -0.5190 0.0020 0.8548
vn -0.6959 -0.0068 0.7181
vn -0.8382 -0.0159 0.5451
vn -0.9390 -0.0206 0.3432
vn -0.9922 -0.0163 0.1239
vn -0.0894 0.9952 -0.0399
vn -0.1261 0.9886 -0.0822
vn -0.1268 0.9857 -0.1111
vn -0.1008 0.9884 -0.1138
vn -0.0608 0.9948 -0.0812
vn -0.0221 0.9997 -0.0101
vn 0.3379 -0.0211 -0.9409
vn 0.5410 -0.0164 -0.8409
vn 0.7145 -0.0074 -0.6996
vn 0.8520 0.0014 -0.5236
vn 0.9475 0.0054 -0.3198
vn 0.9946 0.0175 -0.1019
vn -0.2029 0.9720 -0.1187
vn -0.2183 0.9584 -0.1837
vn -0.1922 0.9543 -0.2290
vn -0.1369 0.9607 -0.2414
vn -0.0669 0.9753 -0.2105
vn -0.0000 0.9915 -0.1300
vn -0.2890 0.0194 0.9571
vn -0.4932 0.0036 0.8699
vn -0.6758 -0.0026 0.7371
vn -0.8244 -0.0097 0.5660
vn -0.9328 -0.0023 0.3604
vn -0.9904 -0.0000 0.1382
vn 0.2308 -0.9640 0.1319
vn 0.2471 -0.9467 0.2066
vn 0.2186 -0.9399 0.2623
vn 0.1574 -0.9456 0.2847
vn 0.0779 -0.9623 0.2605
vn -0.0000 -0.9840 0.1780
vn 0.6757 -0.0026 -0.7371
vn 0.1872 0.9823 -0.0000
vn -0.1872 -0.9823 -0.0000
vn -0.9952 -0.0000 -0.0974
vn -0.0000 0.9999 0.0102
vn 0.9933 0.0169 0.1140
vn -0.0484 0.9907 0.1275
vn -0.9969 -0.0189 -0.0758
vn -0.0000 0.9831 0.1830
vn 0.9922 -0.0000 0.1243
vn -0.0000 -1.0000 -0.0083
vn -0.9487 -0.0042 -0.3160
vn -0.8543 -0.0014 -0.5198
vn -0.7172 0.0052 -0.6969
vn -0.5438 0.0120 -0.8391
vn -0.3419 0.0155 -0.9396
vn -0.1231 0.0123 -0.9923
vn -0.0393 0.9954 0.0869
vn -0.0816 0.9888 0.1248
vn -0.1110 0.9857 0.1267
vn -0.1146 0.9882 0.1014
vn -0.0831 0.9946 0.0617
vn -0.0131 0.9997 0.0228
vn 0.9425 0.0216 0.3335
vn 0.8439 0.0171 0.5362
vn 0.7037 0.0081 0.7105
vn 0.5284 -0.0009 0.8490
vn 0.3257 -0.0051 0.9455
vn 0.1073 -0.0000 0.9942
vn -0.1155 0.9738 0.1961
vn -0.1809 0.9598 0.2148
vn -0.2282 0.9546 0.1916
vn -0.2434 0.9601 0.1379
vn -0.2152 0.9742 0.0679
vn -0.1353 0.9908 -0.0000
vn -0.9559 -0.0069 -0.2937
vn -0.8658 -0.0040 -0.5004
vn -0.7323 0.0044 -0.6809
vn -0.5613 0.0136 -0.8275
vn -0.3592 0.0190 -0.9331
vn -0.1348 -0.0000 -0.9909
vn -0.0788 0.9611 0.2647
vn -0.1582 0.9449 0.2865
vn -0.2183 0.9401 0.2619
vn -0.2450 0.9476 0.2049
vn -0.2270 0.9652 0.1301
vn -0.1564 0.9862 0.0549
vn 0.9384 0.0029 0.3457
vn 0.8340 0.0112 0.5517
vn 0.6894 0.0043 0.7243
vn 0.5105 -0.0022 0.8599
vn 0.3085 -0.0180 0.9511
vn 0.0872 -0.0137 0.9961
vn 0.0386 -0.9957 -0.0836
vn 0.0795 -0.9895 -0.1205
vn 0.1071 -0.9868 -0.1217
vn 0.1085 -0.9894 -0.0965
vn 0.0747 -0.9955 -0.0577
vn 0.0029 -0.9998 -0.0205
vn -0.0974 -0.0000 0.9952
vn 0.0102 0.9999 -0.0000
vn 0.1140 0.0169 -0.9933
vn 0.1275 0.9907 0.0484
vn -0.0758 -0.0189 0.9969
vn 0.1830 0.9831 -0.0000
vn 0.1243 -0.0000 -0.9922
vn -0.0083 -1.0000 -0.0000
vn -0.3160 -0.0042 0.9487
vn -0.5198 -0.0014 0.8543
vn -0.6969 0.0052 0.7172
vn -0.8391 0.0120 0.5438
vn -0.9396 0.0155 0.3419
vn -0.9923 0.0123 0.1231
vn 0.0869 0.9954 0.0393
vn 0.1248 0.9888 0.0816
vn 0.1267 0.9857 0.1110
vn 0.1014 0.9882 0.1146
vn 0.0617 0.9946 0.0831
vn 0.0228 0.9997 0.0131
vn 0.3335 0.0216 -0.9425
vn 0.5362 0.0171 -0.8439
vn 0.7105 0.0081 -0.7037
vn 0.8490 -0.0009 -0.5284
vn 0.9455 -0.0051 -0.3257
vn 0.9942 -0.0000 -0.1073
vn 0.1961 0.9738 0.1155
vn 0.2148 0.9598 0.1809
vn 0.1916 0.9546 0.2282
vn 0.1379 0.9601 0.2434
vn 0.0679 0.9742 0.2152
vn -0.0000 0.9908 0.1353
vn -0.2937 -0.0069 0.9559
vn -0.5004 -0.0040 0.8658
vn -0.6809 0.0044 0.7323
vn -0.8275 0.0136 0.5613
vn -0.9331 0.0190 0.3592
vn -0.9909 -0.0000 0.1348
vn 0.2647 0.9611 0.0788
vn 0.2865 0.9449 0.1582
vn 0.2619 0.9401 0.2183
vn 0.2049 0.9476 0.2450
vn 0.1301 0.9652 0.2270
vn 0.0549 0.9862 0.1564
vn 0.3457 0.0029 -0.9384
vn 0.5517 0.0112 -0.8340
vn 0.7243 0.0043 -0.6894
vn 0.8599 -0.0022 -0.5105
vn 0.9511 -0.0180 -0.3085
vn 0.9961 -0.0137 -0.0872
vn -0.0836 -0.9957 -0.0386
vn -0.1205 -0.9895 -0.0795
vn -0.1217 -0.9868 -0.1071
vn -0.0965 -0.9894 -0.1085
vn -0.0577 -0.9955 -0.0747
vn -0.0205 -0.9998 -0.0029
vn 0.9952 -0.0000 0.0974
vn -0.0000 0.9999 -0.0102
vn -0.9933 0.0169 -0.1140
vn 0.0484 0.9907 -0.1275
vn 0.9969 -0.0189 0.0758
vn -0.0000 0.9831 -0.1830
vn -0.9922 -0.0000 -0.1243
vn -0.0000 -1.0000 0.0083
vn 0.9487 -0.0042 0.3160
vn 0.8543 -0.0014 0.5198
vn 0.7172 0.0052 0.6969
vn 0.5438 0.0120 0.8391
vn 0.3419 0.0155 0.9396
vn 0.1231 0.0123 0.9923
vn 0.0393 0.9954 -0.0869
vn 0.0816 0.9888 -0.1248
vn 0.1110 0.9857 -0.1267
vn 0.1146 0.9882 -0.1014
vn 0.0831 0.9946 -0.0617
vn 0.0131 0.9997 -0.0228
vn -0.9425 0.0216 -0.3335
vn -0.8439 0.0171 -0.5362
vn -0.7037 0.0081 -0.7105
vn -0.5284 -0.0009 -0.8490
vn -0.3257 -0.0051 -0.9455
vn -0.1073 -0.0000 -0.9942
vn 0.1155 0.9738 -0.1961
vn 0.1809 0.9598 -0.2148
vn 0.2282 0.9546 -0.1916
vn 0.2434 0.9601 -0.1379
vn 0.2152 0.9742 -0.0679
vn 0.1353 0.9908 -0.0000
vn 0.9559 -0.0069 0.2937
vn 0.8658 -0.0040 0.5004
vn 0.7323 0.0044 0.6809
vn 0.5613 0.0136 0.8275
vn 0.3592 0.0190 0.9331
vn 0.1348 -0.0000 0.9909
vn 0.0788 0.9611 -0.2647
vn 0.1582 0.9449 -0.2865
vn 0.2183 0.9401 -0.2619
vn 0.2450 0.9476 -0.2049
vn 0.2270 0.9652 -0.1301
vn 0.1564 0.9862 -0.0549
vn -0.9384 0.0029 -0.3457
vn -0.8340 0.0112 -0.5517
vn -0.6894 0.0043 -0.7243
vn -0.5105 -0.0022 -0.8599
vn -0.3085 -0.0180 -0.9511
vn -0.0872 -0.0137 -0.9961
vn -0.0386 -0.9957 0.0836
vn -0.0795 -0.9895 0.1205
vn -0.1071 -0.9868 0.1217
vn -0.1085 -0.9894 0.0965
vn -0.0747 -0.9955 0.0577
vn -0.0029 -0.9998 0.0205
vn 0.0974 -0.0000 -0.9952
vn -0.0102 0.9999 -0.0000
vn -0.1140 0.0169 0.9933
vn -0.1275 0.9907 -0.0484
vn 0.0758 -0.0189 -0.9969
vn -0.1830 0.9831 -0.0000
vn -0.1243 -0.0000 0.9922
vn 0.0083 -1.0000 -0.0000
vn 0.3160 -0.0042 -0.9487
vn 0.5198 -0.0014 -0.8543
vn 0.6969 0.0052 -0.7172
vn 0.8391 0.0120 -0.5438
vn 0.9396 0.0155 -0.3419
vn 0.9923 0.0123 -0.1231
vn -0.0869 0.9954 -0.0393
vn -0.1248 0.9888 -0.0816
vn -0.1267 0.9857 -0.1110
vn -0.1014 0.9882 -0.1146
vn -0.0617 0.9946 -0.0831
vn -0.0228 0.9997 -0.0131
vn -0.3335 0.0216 0.9425
vn -0.5362 0.0171 0.8439
vn -0.7105 0.0081 0.7037
vn -0.8490 -0.0009 0.5284
vn -0.9455 -0.0051 0.3257
vn -0.9942 -0.0000 0.1073
vn -0.1961 0.9738 -0.1155
vn -0.2148 0.9598 -0.1809
vn -0.1916 0.9546 -0.2282
vn -0.1379 0.9601 -0.2434
vn -0.0679 0.9742 -0.2152
vn -0.0000 0.9908 -0.1353
vn 0.2937 -0.0069 -0.9559
vn 0.5004 -0.0040 -0.8658
vn 0.6809 0.0044 -0.7323
vn 0.8275 0.0136 -0.5613
vn 0.9331 0.0190 -0.3592
vn 0.9909 -0.0000 -0.1348
vn -0.2647 0.9611 -0.0788
vn -0.2865 0.9449 -0.1582
vn -0.2619 0.9401 -0.2183
vn -0.2049 0.9476 -0.2450
vn -0.1301 0.9652 -0.2270
vn -0.0549 0.9862 -0.1564
vn -0.3457 0.0029 0.9384
vn -0.5517 0.0112 0.8340
vn -0.7243 0.0043 0.6894
vn -0.8599 -0.0022 0.5105
vn -0.9511 -0.0180 0.3085
vn -0.9961 -0.0137 0.0872
vn 0.0836 -0.9957 0.0386
vn 0.1205 -0.9895 0.0795
vn 0.1217 -0.9868 0.1071
vn 0.0965 -0.9894 0.1085
vn 0.0577 -0.9955 0.0747
vn 0.0205 -0.9998 0.0029
vt 0.625000 0.666667
vt 0.375000 0.750000
vt 0.375000 0.500000
vt 0.375000 1.000000
vt 0.875000 0.583333
vt 0.375000 0.250000
vt 0.625000 0.785714
vt 0.375000 0.785714
vt 0.625000 0.750000
vt 0.660714 0.666667
vt 0.625000 0.583333
vt 0.660714 0.583333
vt 0.660714 0.500000
vt 0.625000 0.500000
vt 0.375000 0.464286
vt 0.625000 0.821429
vt 0.375000 0.821429
vt 0.625000 0.857143
vt 0.375000 0.857143
vt 0.625000 0.892857
vt 0.375000 0.892857
vt 0.625000 0.928571
vt 0.375000 0.928571
vt 0.625000 0.964286
vt 0.375000 0.964286
vt 0.625000 1.000000
vt 0.696429 0.666667
vt 0.732143 0.666667
vt 0.767857 0.666667
vt 0.803571 0.666667
vt 0.839286 0.666667
vt 0.875000 0.666667
vt 0.696429 0.583333
vt 0.732143 0.583333
vt 0.767857 0.583333
vt 0.803571 0.583333
vt 0.839286 0.583333
vt 0.696429 0.500000
vt 0.732143 0.500000
vt 0.767857 0.500000
vt 0.803571 0.500000
vt 0.839286 0.500000
vt 0.875000 0.500000
vt 0.375000 0.428571
vt 0.375000 0.392857
vt 0.375000 0.357143
vt 0.375000 0.285714
vt 0.375000 0.321429
vt 0.625000 0.250000
vt 0.125000 0.500000
vt 0.125000 0.750000
vt 0.875000 0.750000
s 0
f 79/1/1 72/2/1 73/3/1
f 1/4/2 63/5/2 54/6/2
f 72/2/3 17/7/3 6/8/3
f 3/9/4 23/10/4 17/7/4
f 79/1/5 23/10/5 77/1/5
f 80/11/6 29/10/6 79/1/6
f 78/11/7 35/12/7 80/11/7
f 78/11/8 47/13/8 41/12/8
f 74/14/9 53/15/9 47/13/9
f 73/3/10 6/8/10 53/15/10
f 6/8/11 16/16/11 7/17/11
f 7/17/12 15/18/12 8/19/12
f 8/19/13 14/20/13 9/21/13
f 9/21/14 13/22/14 10/23/14
f 10/23/15 12/24/15 11/25/15
f 11/25/16 2/26/16 1/4/16
f 17/7/17 22/27/17 16/16/17
f 16/16/18 21/28/18 15/18/18
f 15/18/19 20/29/19 14/20/19
f 14/20/20 19/30/20 13/22/20
f 13/22/21 18/31/21 12/24/21
f 12/24/22 4/32/22 2/26/22
f 29/10/23 22/27/23 23/10/23
f 28/27/24 21/28/24 22/27/24
f 27/28/25 20/29/25 21/28/25
f 26/29/26 19/30/26 20/29/26
f 25/30/27 18/31/27 19/30/27
f 24/31/28 4/32/28 18/31/28
f 35/12/29 28/27/29 29/10/29
f 34/33/30 27/28/30 28/27/30
f 33/34/31 26/29/31 27/28/31
f 32/35/32 25/30/32 26/29/32
f 31/36/33 24/31/33 25/30/33
f 30/37/34 5/32/34 24/31/34
f 35/12/35 40/33/35 34/33/35
f 34/33/36 39/34/36 33/34/36
f 33/34/37 38/35/37 32/35/37
f 32/35/38 37/36/38 31/36/38
f 31/36/39 36/37/39 30/37/39
f 36/37/40 63/5/40 30/37/40
f 41/12/41 46/38/41 40/33/41
f 40/33/42 45/39/42 39/34/42
f 39/34/43 44/40/43 38/35/43
f 38/35/44 43/41/44 37/36/44
f 37/36/45 42/42/45 36/37/45
f 36/37/46 55/43/46 60/5/46
f 47/13/47 52/44/47 46/38/47
f 52/44/48 45/39/48 46/38/48
f 51/45/49 44/40/49 45/39/49
f 50/46/50 43/41/50 44/40/50
f 43/41/51 48/47/51 42/42/51
f 42/42/52 54/6/52 55/43/52
f 53/15/53 7/17/53 52/44/53
f 52/44/54 8/19/54 51/45/54
f 51/45/55 9/21/55 50/46/55
f 50/46/56 10/23/56 49/48/56
f 49/48/57 11/25/57 48/47/57
f 48/47/58 1/4/58 54/6/58
f 2/49/59 58/3/59 1/6/59
f 64/11/60 63/32/60 65/1/60
f 56/2/1 55/26/1 54/4/1
f 1/50/61 56/2/61 54/51/61
f 62/1/60 55/52/60 57/9/60
f 2/43/60 61/11/60 59/14/60
f 60/32/59 65/1/59 63/32/59
f 4/5/1 64/11/1 61/11/1
f 61/11/62 65/1/62 62/1/62
f 58/3/63 66/2/63 56/2/63
f 61/11/64 69/14/64 59/14/64
f 57/9/64 71/1/64 62/1/64
f 59/14/59 68/3/59 58/3/59
f 62/1/64 70/11/64 61/11/64
f 56/2/1 67/9/1 57/9/1
f 70/11/2 71/1/2 66/2/2
f 135/1/2 129/2/2 75/3/2
f 129/2/65 92/7/65 81/8/65
f 130/9/66 98/10/66 92/7/66
f 135/1/67 98/10/67 132/1/67
f 136/11/68 104/10/68 135/1/68
f 133/11/69 110/12/69 136/11/69
f 133/11/70 122/13/70 116/12/70
f 76/14/71 128/15/71 122/13/71
f 75/3/72 81/8/72 128/15/72
f 81/8/73 91/16/73 82/17/73
f 82/17/74 90/18/74 83/19/74
f 83/19/75 89/20/75 84/21/75
f 84/21/76 88/22/76 85/23/76
f 85/23/77 87/24/77 86/25/77
f 86/25/78 3/26/78 72/4/78
f 92/7/79 97/27/79 91/16/79
f 91/16/80 96/28/80 90/18/80
f 90/18/81 95/29/81 89/20/81
f 89/20/82 94/30/82 88/22/82
f 88/22/83 93/31/83 87/24/83
f 87/24/84 77/32/84 3/26/84
f 104/10/85 97/27/85 98/10/85
f 103/27/86 96/28/86 97/27/86
f 102/28/87 95/29/87 96/28/87
f 101/29/88 94/30/88 95/29/88
f 100/30/89 93/31/89 94/30/89
f 99/31/90 77/32/90 93/31/90
f 110/12/91 103/27/91 104/10/91
f 109/33/92 102/28/92 103/27/92
f 108/34/93 101/29/93 102/28/93
f 107/35/94 100/30/94 101/29/94
f 106/36/95 99/31/95 100/30/95
f 105/37/96 79/32/96 99/31/96
f 110/12/97 115/33/97 109/33/97
f 109/33/98 114/34/98 108/34/98
f 108/34/99 113/35/99 107/35/99
f 107/35/100 112/36/100 106/36/100
f 106/36/101 111/37/101 105/37/101
f 111/37/102 80/5/102 105/37/102
f 116/12/103 121/38/103 115/33/103
f 115/33/104 120/39/104 114/34/104
f 114/34/105 119/40/105 113/35/105
f 113/35/106 118/41/106 112/36/106
f 112/36/107 117/42/107 111/37/107
f 111/37/108 74/43/108 78/5/108
f 122/13/109 127/44/109 121/38/109
f 127/44/110 120/39/110 121/38/110
f 126/45/111 119/40/111 120/39/111
f 125/46/112 118/41/112 119/40/112
f 118/41/113 123/47/113 117/42/113
f 117/42/114 73/6/114 74/43/114
f 128/15/115 82/17/115 127/44/115
f 127/44/116 83/19/116 126/45/116
f 126/45/117 84/21/117 125/46/117
f 125/46/118 85/23/118 124/48/118
f 124/48/119 86/25/119 123/47/119
f 123/47/120 72/4/120 73/6/120
f 196/1/59 186/2/59 131/3/59
f 186/2/121 149/7/121 138/8/121
f 187/9/122 155/10/122 149/7/122
f 196/1/123 155/10/123 193/1/123
f 137/11/124 161/10/124 196/1/124
f 134/11/125 167/12/125 137/11/125
f 134/11/126 179/13/126 173/12/126
f 188/14/127 185/15/127 179/13/127
f 131/3/128 138/8/128 185/15/128
f 138/8/129 148/16/129 139/17/129
f 139/17/130 147/18/130 140/19/130
f 140/19/131 146/20/131 141/21/131
f 141/21/132 145/22/132 142/23/132
f 142/23/133 144/24/133 143/25/133
f 143/25/134 130/26/134 129/4/134
f 149/7/135 154/27/135 148/16/135
f 148/16/136 153/28/136 147/18/136
f 147/18/137 152/29/137 146/20/137
f 146/20/138 151/30/138 145/22/138
f 145/22/139 150/31/139 144/24/139
f 144/24/140 132/32/140 130/26/140
f 161/10/141 154/27/141 155/10/141
f 160/27/142 153/28/142 154/27/142
f 159/28/143 152/29/143 153/28/143
f 158/29/144 151/30/144 152/29/144
f 157/30/145 150/31/145 151/30/145
f 156/31/146 132/32/146 150/31/146
f 167/12/147 160/27/147 161/10/147
f 166/33/148 159/28/148 160/27/148
f 165/34/149 158/29/149 159/28/149
f 164/35/150 157/30/150 158/29/150
f 163/36/151 156/31/151 157/30/151
f 162/37/152 135/32/152 156/31/152
f 167/12/153 172/33/153 166/33/153
f 166/33/154 171/34/154 165/34/154
f 165/34/155 170/35/155 164/35/155
f 164/35/156 169/36/156 163/36/156
f 163/36/157 168/37/157 162/37/157
f 168/37/158 136/5/158 162/37/158
f 173/12/159 178/38/159 172/33/159
f 172/33/160 177/39/160 171/34/160
f 171/34/161 176/40/161 170/35/161
f 170/35/162 175/41/162 169/36/162
f 169/36/163 174/42/163 168/37/163
f 168/37/164 76/43/164 133/5/164
f 179/13/165 184/44/165 178/38/165
f 184/44/166 177/39/166 178/38/166
f 183/45/167 176/40/167 177/39/167
f 182/46/168 175/41/168 176/40/168
f 175/41/169 180/47/169 174/42/169
f 174/42/170 75/6/170 76/43/170
f 185/15/171 139/17/171 184/44/171
f 184/44/172 140/19/172 183/45/172
f 183/45/173 141/21/173 182/46/173
f 182/46/174 142/23/174 181/48/174
f 181/48/175 143/25/175 180/47/175
f 180/47/176 129/4/176 75/6/176
f 198/1/62 189/2/62 191/3/62
f 189/2/177 210/7/177 199/8/177
f 190/9/178 216/10/178 210/7/178
f 198/1/179 216/10/179 195/1/179
f 197/11/180 222/10/180 198/1/180
f 194/11/181 228/12/181 197/11/181
f 194/11/182 240/13/182 234/12/182
f 192/14/183 246/15/183 240/13/183
f 191/3/184 199/8/184 246/15/184
f 199/8/185 209/16/185 200/17/185
f 200/17/186 208/18/186 201/19/186
f 201/19/187 207/20/187 202/21/187
f 202/21/188 206/22/188 203/23/188
f 203/23/189 205/24/189 204/25/189
f 204/25/190 187/26/190 186/4/190
f 210/7/191 215/27/191 209/16/191
f 209/16/192 214/28/192 208/18/192
f 208/18/193 213/29/193 207/20/193
f 207/20/194 212/30/194 206/22/194
f 206/22/195 211/31/195 205/24/195
f 205/24/196 193/32/196 187/26/196
f 222/10/197 215/27/197 216/10/197
f 221/27/198 214/28/198 215/27/198
f 220/28/199 213/29/199 214/28/199
f 219/29/200 212/30/200 213/29/200
f 218/30/201 211/31/201 212/30/201
f 217/31/202 193/32/202 211/31/202
f 228/12/203 221/27/203 222/10/203
f 227/33/204 220/28/204 221/27/204
f 226/34/205 219/29/205 220/28/205
f 225/35/206 218/30/206 219/29/206
f 224/36/207 217/31/207 218/30/207
f 223/37/208 196/32/208 217/31/208
f 228/12/209 233/33/209 227/33/209
f 227/33/210 232/34/210 226/34/210
f 226/34/211 231/35/211 225/35/211
f 225/35/212 230/36/212 224/36/212
f 224/36/213 229/37/213 223/37/213
f 229/37/214 137/5/214 223/37/214
f 234/12/215 239/38/215 233/33/215
f 233/33/216 238/39/216 232/34/216
f 232/34/217 237/40/217 231/35/217
f 231/35/218 236/41/218 230/36/218
f 230/36/219 235/42/219 229/37/219
f 229/37/220 188/43/220 134/5/220
f 240/13/221 245/44/221 239/38/221
f 245/44/222 238/39/222 239/38/222
f 244/45/223 237/40/223 238/39/223
f 243/46/224 236/41/224 237/40/224
f 236/41/225 241/47/225 235/42/225
f 235/42/226 131/6/226 188/43/226
f 246/15/227 200/17/227 245/44/227
f 245/44/228 201/19/228 244/45/228
f 244/45/229 202/21/229 243/46/229
f 243/46/230 203/23/230 242/48/230
f 242/48/231 204/25/231 241/47/231
f 241/47/232 186/4/232 131/6/232
f 250/1/1 247/2/1 299/3/1
f 247/2/3 262/7/3 251/8/3
f 248/9/4 268/10/4 262/7/4
f 250/1/5 268/10/5 249/1/5
f 305/11/6 274/10/6 250/1/6
f 304/11/7 280/12/7 305/11/7
f 304/11/8 292/13/8 286/12/8
f 300/14/9 298/15/9 292/13/9
f 299/3/10 251/8/10 298/15/10
f 251/8/11 261/16/11 252/17/11
f 252/17/12 260/18/12 253/19/12
f 253/19/13 259/20/13 254/21/13
f 254/21/14 258/22/14 255/23/14
f 255/23/15 257/24/15 256/25/15
f 256/25/16 190/26/16 189/4/16
f 262/7/17 267/27/17 261/16/17
f 261/16/18 266/28/18 260/18/18
f 260/18/19 265/29/19 259/20/19
f 259/20/20 264/30/20 258/22/20
f 258/22/21 263/31/21 257/24/21
f 257/24/22 195/32/22 190/26/22
f 274/10/23 267/27/23 268/10/23
f 273/27/24 266/28/24 267/27/24
f 272/28/25 265/29/25 266/28/25
f 271/29/26 264/30/26 265/29/26
f 270/30/27 263/31/27 264/30/27
f 269/31/28 195/32/28 263/31/28
f 280/12/29 273/27/29 274/10/29
f 279/33/30 272/28/30 273/27/30
f 278/34/31 271/29/31 272/28/31
f 277/35/32 270/30/32 271/29/32
f 276/36/33 269/31/33 270/30/33
f 275/37/34 198/32/34 269/31/34
f 280/12/35 285/33/35 279/33/35
f 279/33/36 284/34/36 278/34/36
f 278/34/37 283/35/37 277/35/37
f 277/35/38 282/36/38 276/36/38
f 276/36/39 281/37/39 275/37/39
f 281/37/40 197/5/40 275/37/40
f 286/12/41 291/38/41 285/33/41
f 285/33/42 290/39/42 284/34/42
f 284/34/43 289/40/43 283/35/43
f 283/35/44 288/41/44 282/36/44
f 282/36/45 287/42/45 281/37/45
f 281/37/46 192/43/46 194/5/46
f 292/13/47 297/44/47 291/38/47
f 297/44/48 290/39/48 291/38/48
f 296/45/49 289/40/49 290/39/49
f 295/46/50 288/41/50 289/40/50
f 288/41/51 293/47/51 287/42/51
f 287/42/52 191/6/52 192/43/52
f 298/15/53 252/17/53 297/44/53
f 297/44/54 253/19/54 296/45/54
f 296/45/55 254/21/55 295/46/55
f 295/46/56 255/23/56 294/48/56
f 294/48/57 256/25/57 293/47/57
f 293/47/58 189/4/58 191/6/58
f 306/1/2 301/2/2 302/3/2
f 301/2/65 318/7/65 307/8/65
f 359/9/66 324/10/66 318/7/66
f 306/1/67 324/10/67 362/1/67
f 366/11/68 330/10/68 306/1/68
f 363/11/69 336/12/69 366/11/69
f 363/11/70 348/13/70 342/12/70
f 303/14/71 354/15/71 348/13/71
f 302/3/72 307/8/72 354/15/72
f 307/8/73 317/16/73 308/17/73
f 308/17/74 316/18/74 309/19/74
f 309/19/75 315/20/75 310/21/75
f 310/21/76 314/22/76 311/23/76
f 311/23/77 313/24/77 312/25/77
f 312/25/78 248/26/78 247/4/78
f 318/7/79 323/27/79 317/16/79
f 317/16/80 322/28/80 316/18/80
f 316/18/81 321/29/81 315/20/81
f 315/20/82 320/30/82 314/22/82
f 314/22/83 319/31/83 313/24/83
f 313/24/84 249/32/84 248/26/84
f 330/10/85 323/27/85 324/10/85
f 329/27/86 322/28/86 323/27/86
f 328/28/87 321/29/87 322/28/87
f 327/29/88 320/30/88 321/29/88
f 326/30/89 319/31/89 320/30/89
f 325/31/90 249/32/90 319/31/90
f 336/12/91 329/27/91 330/10/91
f 335/33/92 328/28/92 329/27/92
f 334/34/93 327/29/93 328/28/93
f 333/35/94 326/30/94 327/29/94
f 332/36/95 325/31/95 326/30/95
f 331/37/96 250/32/96 325/31/96
f 336/12/97 341/33/97 335/33/97
f 335/33/98 340/34/98 334/34/98
f 334/34/99 339/35/99 333/35/99
f 333/35/100 338/36/100 332/36/100
f 332/36/101 337/37/101 331/37/101
f 337/37/102 305/5/102 331/37/102
f 342/12/103 347/38/103 341/33/103
f 341/33/104 346/39/104 340/34/104
f 340/34/105 345/40/105 339/35/105
f 339/35/106 344/41/106 338/36/106
f 338/36/107 343/42/107 337/37/107
f 337/37/108 300/43/108 304/5/108
f 348/13/109 353/44/109 347/38/109
f 353/44/110 346/39/110 347/38/110
f 352/45/233 345/40/233 346/39/233
f 351/46/112 344/41/112 345/40/112
f 344/41/113 349/47/113 343/42/113
f 343/42/114 299/6/114 300/43/114
f 354/15/115 308/17/115 353/44/115
f 353/44/116 309/19/116 352/45/116
f 352/45/117 310/21/117 351/46/117
f 351/46/118 311/23/118 350/48/118
f 350/48/119 312/25/119 349/47/119
f 349/47/120 247/4/120 299/6/120
f 358/49/1 301/3/1 357/6/1
f 306/11/234 364/32/234 366/1/234
f 302/2/59 356/26/59 355/4/59
f 301/3/235 355/51/235 357/50/235
f 360/32/234 303/9/234 363/1/234
f 358/43/234 362/11/234 359/14/234
f 360/32/1 366/1/1 364/32/1
f 361/5/59 306/11/59 362/11/59
f 355/4/2 365/5/2 357/6/2
f 73/3/1 74/14/1 78/11/1
f 73/3/1 78/11/1 80/11/1
f 77/1/1 3/9/1 72/2/1
f 73/3/1 80/11/1 79/1/1
f 79/1/1 77/1/1 72/2/1
f 1/4/2 2/26/2 4/32/2
f 1/4/2 4/32/2 5/32/2
f 60/5/2 55/43/2 54/6/2
f 1/4/2 5/32/2 63/5/2
f 63/5/2 60/5/2 54/6/2
f 72/2/236 3/9/236 17/7/236
f 3/9/237 77/1/237 23/10/237
f 79/1/238 29/10/238 23/10/238
f 80/11/239 35/12/239 29/10/239
f 78/11/240 41/12/240 35/12/240
f 78/11/241 74/14/241 47/13/241
f 74/14/242 73/3/242 53/15/242
f 73/3/243 72/2/243 6/8/243
f 6/8/244 17/7/244 16/16/244
f 7/17/245 16/16/245 15/18/245
f 8/19/246 15/18/246 14/20/246
f 9/21/247 14/20/247 13/22/247
f 10/23/248 13/22/248 12/24/248
f 11/25/249 12/24/249 2/26/249
f 17/7/250 23/10/250 22/27/250
f 16/16/251 22/27/251 21/28/251
f 15/18/252 21/28/252 20/29/252
f 14/20/253 20/29/253 19/30/253
f 13/22/254 19/30/254 18/31/254
f 12/24/255 18/31/255 4/32/255
f 29/10/256 28/27/256 22/27/256
f 28/27/257 27/28/257 21/28/257
f 27/28/258 26/29/258 20/29/258
f 26/29/259 25/30/259 19/30/259
f 25/30/260 24/31/260 18/31/260
f 24/31/261 5/32/261 4/32/261
f 35/12/262 34/33/262 28/27/262
f 34/33/263 33/34/263 27/28/263
f 33/34/264 32/35/264 26/29/264
f 32/35/265 31/36/265 25/30/265
f 31/36/266 30/37/266 24/31/266
f 30/37/267 63/5/267 5/32/267
f 35/12/268 41/12/268 40/33/268
f 34/33/269 40/33/269 39/34/269
f 33/34/270 39/34/270 38/35/270
f 32/35/271 38/35/271 37/36/271
f 31/36/272 37/36/272 36/37/272
f 36/37/273 60/5/273 63/5/273
f 41/12/274 47/13/274 46/38/274
f 40/33/275 46/38/275 45/39/275
f 39/34/276 45/39/276 44/40/276
f 38/35/277 44/40/277 43/41/277
f 37/36/278 43/41/278 42/42/278
f 36/37/279 42/42/279 55/43/279
f 47/13/280 53/15/280 52/44/280
f 52/44/281 51/45/281 45/39/281
f 51/45/282 50/46/282 44/40/282
f 50/46/283 49/48/283 43/41/283
f 43/41/284 49/48/284 48/47/284
f 42/42/285 48/47/285 54/6/285
f 53/15/286 6/8/286 7/17/286
f 52/44/287 7/17/287 8/19/287
f 51/45/288 8/19/288 9/21/288
f 50/46/289 9/21/289 10/23/289
f 49/48/290 10/23/290 11/25/290
f 48/47/291 11/25/291 1/4/291
f 2/49/59 59/14/59 58/3/59
f 64/11/60 5/5/60 63/32/60
f 56/2/1 57/9/1 55/26/1
f 1/50/61 58/3/61 56/2/61
f 62/1/60 60/32/60 55/52/60
f 2/43/60 4/5/60 61/11/60
f 60/32/59 62/1/59 65/1/59
f 4/5/1 5/5/1 64/11/1
f 61/11/62 64/11/62 65/1/62
f 58/3/63 68/3/63 66/2/63
f 61/11/64 70/11/64 69/14/64
f 57/9/64 67/9/64 71/1/64
f 59/14/59 69/14/59 68/3/59
f 62/1/64 71/1/64 70/11/64
f 56/2/1 66/2/1 67/9/1
f 66/2/2 68/3/2 69/14/2
f 66/2/2 69/14/2 70/11/2
f 71/1/2 67/9/2 66/2/2
f 75/3/2 76/14/2 133/11/2
f 75/3/2 133/11/2 136/11/2
f 132/1/2 130/9/2 129/2/2
f 75/3/2 136/11/2 135/1/2
f 135/1/2 132/1/2 129/2/2
f 129/2/292 130/9/292 92/7/292
f 130/9/293 132/1/293 98/10/293
f 135/1/294 104/10/294 98/10/294
f 136/11/295 110/12/295 104/10/295
f 133/11/296 116/12/296 110/12/296
f 133/11/297 76/14/297 122/13/297
f 76/14/298 75/3/298 128/15/298
f 75/3/299 129/2/299 81/8/299
f 81/8/300 92/7/300 91/16/300
f 82/17/301 91/16/301 90/18/301
f 83/19/302 90/18/302 89/20/302
f 84/21/303 89/20/303 88/22/303
f 85/23/304 88/22/304 87/24/304
f 86/25/305 87/24/305 3/26/305
f 92/7/306 98/10/306 97/27/306
f 91/16/307 97/27/307 96/28/307
f 90/18/308 96/28/308 95/29/308
f 89/20/309 95/29/309 94/30/309
f 88/22/310 94/30/310 93/31/310
f 87/24/311 93/31/311 77/32/311
f 104/10/312 103/27/312 97/27/312
f 103/27/313 102/28/313 96/28/313
f 102/28/314 101/29/314 95/29/314
f 101/29/315 100/30/315 94/30/315
f 100/30/316 99/31/316 93/31/316
f 99/31/317 79/32/317 77/32/317
f 110/12/318 109/33/318 103/27/318
f 109/33/319 108/34/319 102/28/319
f 108/34/320 107/35/320 101/29/320
f 107/35/321 106/36/321 100/30/321
f 106/36/322 105/37/322 99/31/322
f 105/37/323 80/5/323 79/32/323
f 110/12/324 116/12/324 115/33/324
f 109/33/325 115/33/325 114/34/325
f 108/34/326 114/34/326 113/35/326
f 107/35/327 113/35/327 112/36/327
f 106/36/328 112/36/328 111/37/328
f 111/37/329 78/5/329 80/5/329
f 116/12/330 122/13/330 121/38/330
f 115/33/331 121/38/331 120/39/331
f 114/34/332 120/39/332 119/40/332
f 113/35/333 119/40/333 118/41/333
f 112/36/334 118/41/334 117/42/334
f 111/37/335 117/42/335 74/43/335
f 122/13/336 128/15/336 127/44/336
f 127/44/337 126/45/337 120/39/337
f 126/45/338 125/46/338 119/40/338
f 125/46/339 124/48/339 118/41/339
f 118/41/340 124/48/340 123/47/340
f 117/42/341 123/47/341 73/6/341
f 128/15/342 81/8/342 82/17/342
f 127/44/343 82/17/343 83/19/343
f 126/45/344 83/19/344 84/21/344
f 125/46/345 84/21/345 85/23/345
f 124/48/346 85/23/346 86/25/346
f 123/47/347 86/25/347 72/4/347
f 131/3/59 188/14/59 134/11/59
f 131/3/59 134/11/59 137/11/59
f 193/1/59 187/9/59 186/2/59
f 131/3/59 137/11/59 196/1/59
f 196/1/59 193/1/59 186/2/59
f 186/2/348 187/9/348 149/7/348
f 187/9/349 193/1/349 155/10/349
f 196/1/350 161/10/350 155/10/350
f 137/11/351 167/12/351 161/10/351
f 134/11/352 173/12/352 167/12/352
f 134/11/353 188/14/353 179/13/353
f 188/14/354 131/3/354 185/15/354
f 131/3/355 186/2/355 138/8/355
f 138/8/356 149/7/356 148/16/356
f 139/17/357 148/16/357 147/18/357
f 140/19/358 147/18/358 146/20/358
f 141/21/359 146/20/359 145/22/359
f 142/23/360 145/22/360 144/24/360
f 143/25/361 144/24/361 130/26/361
f 149/7/362 155/10/362 154/27/362
f 148/16/363 154/27/363 153/28/363
f 147/18/364 153/28/364 152/29/364
f 146/20/365 152/29/365 151/30/365
f 145/22/366 151/30/366 150/31/366
f 144/24/367 150/31/367 132/32/367
f 161/10/368 160/27/368 154/27/368
f 160/27/369 159/28/369 153/28/369
f 159/28/370 158/29/370 152/29/370
f 158/29/371 157/30/371 151/30/371
f 157/30/372 156/31/372 150/31/372
f 156/31/373 135/32/373 132/32/373
f 167/12/374 166/33/374 160/27/374
f 166/33/375 165/34/375 159/28/375
f 165/34/376 164/35/376 158/29/376
f 164/35/377 163/36/377 157/30/377
f 163/36/378 162/37/378 156/31/378
f 162/37/379 136/5/379 135/32/379
f 167/12/380 173/12/380 172/33/380
f 166/33/381 172/33/381 171/34/381
f 165/34/382 171/34/382 170/35/382
f 164/35/383 170/35/383 169/36/383
f 163/36/384 169/36/384 168/37/384
f 168/37/385 133/5/385 136/5/385
f 173/12/386 179/13/386 178/38/386
f 172/33/387 178/38/387 177/39/387
f 171/34/388 177/39/388 176/40/388
f 170/35/389 176/40/389 175/41/389
f 169/36/390 175/41/390 174/42/390
f 168/37/391 174/42/391 76/43/391
f 179/13/392 185/15/392 184/44/392
f 184/44/393 183/45/393 177/39/393
f 183/45/394 182/46/394 176/40/394
f 182/46/395 181/48/395 175/41/395
f 175/41/396 181/48/396 180/47/396
f 174/42/397 180/47/397 75/6/397
f 185/15/398 138/8/398 139/17/398
f 184/44/399 139/17/399 140/19/399
f 183/45/400 140/19/400 141/21/400
f 182/46/401 141/21/401 142/23/401
f 181/48/402 142/23/402 143/25/402
f 180/47/403 143/25/403 129/4/403
f 191/3/62 192/14/62 194/11/62
f 191/3/62 194/11/62 197/11/62
f 195/1/62 190/9/62 189/2/62
f 191/3/62 197/11/62 198/1/62
f 198/1/62 195/1/62 189/2/62
f 189/2/404 190/9/404 210/7/404
f 190/9/405 195/1/405 216/10/405
f 198/1/406 222/10/406 216/10/406
f 197/11/407 228/12/407 222/10/407
f 194/11/408 234/12/408 228/12/408
f 194/11/409 192/14/409 240/13/409
f 192/14/410 191/3/410 246/15/410
f 191/3/411 189/2/411 199/8/411
f 199/8/412 210/7/412 209/16/412
f 200/17/413 209/16/413 208/18/413
f 201/19/414 208/18/414 207/20/414
f 202/21/415 207/20/415 206/22/415
f 203/23/416 206/22/416 205/24/416
f 204/25/417 205/24/417 187/26/417
f 210/7/418 216/10/418 215/27/418
f 209/16/419 215/27/419 214/28/419
f 208/18/420 214/28/420 213/29/420
f 207/20/421 213/29/421 212/30/421
f 206/22/422 212/30/422 211/31/422
f 205/24/423 211/31/423 193/32/423
f 222/10/424 221/27/424 215/27/424
f 221/27/425 220/28/425 214/28/425
f 220/28/426 219/29/426 213/29/426
f 219/29/427 218/30/427 212/30/427
f 218/30/428 217/31/428 211/31/428
f 217/31/429 196/32/429 193/32/429
f 228/12/430 227/33/430 221/27/430
f 227/33/431 226/34/431 220/28/431
f 226/34/432 225/35/432 219/29/432
f 225/35/433 224/36/433 218/30/433
f 224/36/434 223/37/434 217/31/434
f 223/37/435 137/5/435 196/32/435
f 228/12/436 234/12/436 233/33/436
f 227/33/437 233/33/437 232/34/437
f 226/34/438 232/34/438 231/35/438
f 225/35/439 231/35/439 230/36/439
f 224/36/440 230/36/440 229/37/440
f 229/37/441 134/5/441 137/5/441
f 234/12/442 240/13/442 239/38/442
f 233/33/443 239/38/443 238/39/443
f 232/34/444 238/39/444 237/40/444
f 231/35/445 237/40/445 236/41/445
f 230/36/446 236/41/446 235/42/446
f 229/37/447 235/42/447 188/43/447
f 240/13/448 246/15/448 245/44/448
f 245/44/449 244/45/449 238/39/449
f 244/45/450 243/46/450 237/40/450
f 243/46/451 242/48/451 236/41/451
f 236/41/452 242/48/452 241/47/452
f 235/42/453 241/47/453 131/6/453
f 246/15/454 199/8/454 200/17/454
f 245/44/455 200/17/455 201/19/455
f 244/45/456 201/19/456 202/21/456
f 243/46/457 202/21/457 203/23/457
f 242/48/458 203/23/458 204/25/458
f 241/47/459 204/25/459 186/4/459
f 299/3/1 300/14/1 304/11/1
f 299/3/1 304/11/1 305/11/1
f 249/1/1 248/9/1 247/2/1
f 299/3/1 305/11/1 250/1/1
f 250/1/1 249/1/1 247/2/1
f 247/2/236 248/9/236 262/7/236
f 248/9/237 249/1/237 268/10/237
f 250/1/238 274/10/238 268/10/238
f 305/11/239 280/12/239 274/10/239
f 304/11/240 286/12/240 280/12/240
f 304/11/241 300/14/241 292/13/241
f 300/14/242 299/3/242 298/15/242
f 299/3/243 247/2/243 251/8/243
f 251/8/244 262/7/244 261/16/244
f 252/17/245 261/16/245 260/18/245
f 253/19/246 260/18/246 259/20/246
f 254/21/247 259/20/247 258/22/247
f 255/23/248 258/22/248 257/24/248
f 256/25/249 257/24/249 190/26/249
f 262/7/250 268/10/250 267/27/250
f 261/16/251 267/27/251 266/28/251
f 260/18/252 266/28/252 265/29/252
f 259/20/253 265/29/253 264/30/253
f 258/22/254 264/30/254 263/31/254
f 257/24/255 263/31/255 195/32/255
f 274/10/256 273/27/256 267/27/256
f 273/27/257 272/28/257 266/28/257
f 272/28/258 271/29/258 265/29/258
f 271/29/259 270/30/259 264/30/259
f 270/30/260 269/31/260 263/31/260
f 269/31/261 198/32/261 195/32/261
f 280/12/262 279/33/262 273/27/262
f 279/33/263 278/34/263 272/28/263
f 278/34/264 277/35/264 271/29/264
f 277/35/265 276/36/265 270/30/265
f 276/36/266 275/37/266 269/31/266
f 275/37/267 197/5/267 198/32/267
f 280/12/268 286/12/268 285/33/268
f 279/33/269 285/33/269 284/34/269
f 278/34/270 284/34/270 283/35/270
f 277/35/271 283/35/271 282/36/271
f 276/36/272 282/36/272 281/37/272
f 281/37/273 194/5/273 197/5/273
f 286/12/274 292/13/274 291/38/274
f 285/33/275 291/38/275 290/39/275
f 284/34/276 290/39/276 289/40/276
f 283/35/277 289/40/277 288/41/277
f 282/36/278 288/41/278 287/42/278
f 281/37/279 287/42/279 192/43/279
f 292/13/280 298/15/280 297/44/280
f 297/44/281 296/45/281 290/39/281
f 296/45/282 295/46/282 289/40/282
f 295/46/283 294/48/283 288/41/283
f 288/41/284 294/48/284 293/47/284
f 287/42/285 293/47/285 191/6/285
f 298/15/286 251/8/286 252/17/286
f 297/44/287 252/17/287 253/19/287
f 296/45/288 253/19/288 254/21/288
f 295/46/289 254/21/289 255/23/289
f 294/48/290 255/23/290 256/25/290
f 293/47/291 256/25/291 189/4/291
f 302/3/2 303/14/2 363/11/2
f 302/3/2 363/11/2 366/11/2
f 362/1/2 359/9/2 301/2/2
f 302/3/2 366/11/2 306/1/2
f 306/1/2 362/1/2 301/2/2
f 301/2/292 359/9/292 318/7/292
f 359/9/293 362/1/293 324/10/293
f 306/1/294 330/10/294 324/10/294
f 366/11/295 336/12/295 330/10/295
f 363/11/296 342/12/296 336/12/296
f 363/11/297 303/14/297 348/13/297
f 303/14/298 302/3/298 354/15/298
f 302/3/299 301/2/299 307/8/299
f 307/8/300 318/7/300 317/16/300
f 308/17/301 317/16/301 316/18/301
f 309/19/302 316/18/302 315/20/302
f 310/21/303 315/20/303 314/22/303
f 311/23/304 314/22/304 313/24/304
f 312/25/305 313/24/305 248/26/305
f 318/7/306 324/10/306 323/27/306
f 317/16/307 323/27/307 322/28/307
f 316/18/308 322/28/308 321/29/308
f 315/20/309 321/29/309 320/30/309
f 314/22/310 320/30/310 319/31/310
f 313/24/311 319/31/311 249/32/311
f 330/10/312 329/27/312 323/27/312
f 329/27/313 328/28/313 322/28/313
f 328/28/314 327/29/314 321/29/314
f 327/29/315 326/30/315 320/30/315
f 326/30/316 325/31/316 319/31/316
f 325/31/317 250/32/317 249/32/317
f 336/12/318 335/33/318 329/27/318
f 335/33/319 334/34/319 328/28/319
f 334/34/320 333/35/320 327/29/320
f 333/35/321 332/36/321 326/30/321
f 332/36/322 331/37/322 325/31/322
f 331/37/323 305/5/323 250/32/323
f 336/12/324 342/12/324 341/33/324
f 335/33/325 341/33/325 340/34/325
f 334/34/326 340/34/326 339/35/326
f 333/35/327 339/35/327 338/36/327
f 332/36/328 338/36/328 337/37/328
f 337/37/329 304/5/329 305/5/329
f 342/12/330 348/13/330 347/38/330
f 341/33/331 347/38/331 346/39/331
f 340/34/332 346/39/332 345/40/332
f 339/35/333 345/40/333 344/41/333
f 338/36/334 344/41/334 343/42/334
f 337/37/335 343/42/335 300/43/335
f 348/13/336 354/15/336 353/44/336
f 353/44/337 352/45/337 346/39/337
f 352/45/338 351/46/338 345/40/338
f 351/46/339 350/48/339 344/41/339
f 344/41/340 350/48/340 349/47/340
f 343/42/341 349/47/341 299/6/341
f 354/15/342 307/8/342 308/17/342
f 353/44/343 308/17/343 309/19/343
f 352/45/344 309/19/344 310/21/344
f 351/46/345 310/21/345 311/23/345
f 350/48/346 311/23/346 312/25/346
f 349/47/347 312/25/347 247/4/347
f 358/49/1 359/14/1 301/3/1
f 306/11/234 365/5/234 364/32/234
f 302/2/59 303/9/59 356/26/59
f 301/3/235 302/2/235 355/51/235
f 360/32/234 356/52/234 303/9/234
f 358/43/234 361/5/234 362/11/234
f 360/32/1 363/1/1 366/1/1
f 361/5/59 365/5/59 306/11/59
f 355/4/2 356/26/2 360/32/2
f 355/4/2 360/32/2 364/32/2
f 361/5/2 358/43/2 357/6/2
f 355/4/2 364/32/2 365/5/2
f 365/5/2 361/5/2 357/6/2
