# Blender 4.1.1
# www.blender.org
o straight_down.003
v 4.600000 -1.100000 1.000000
v 4.600000 -0.100000 1.000000
v 4.600000 -1.100000 -1.000000
v 4.600000 -0.100000 -1.000000
v 8.000000 -0.800000 1.000000
v 4.600000 -0.100000 0.800000
v 4.600000 -0.100000 -0.800000
v 4.600000 -0.900000 0.800000
v 4.600000 -0.900000 -0.800000
v 8.000000 -0.600000 0.800000
v 11.400001 0.300000 1.000000
v 11.400001 1.300000 1.000000
v 11.400001 0.300000 -1.000000
v 11.400001 1.300000 -1.000000
v 11.400001 1.300000 -0.800000
v 11.400001 1.300000 0.800000
v 11.400001 0.500000 -0.800000
v 11.400001 0.500000 0.800000
v 8.000000 1.000000 -1.000000
v 8.000000 0.000000 1.000000
v 8.000000 1.000000 1.000000
v 6.999999 -0.200000 1.999999
v 8.000000 1.000000 0.800000
v 6.799999 0.000000 1.999998
v 5.083049 -0.197310 1.298482
v 5.671396 -0.123011 0.090325
v 7.286473 0.996846 -0.911539
v 6.634388 0.966951 -0.675299
v 6.069394 0.921370 -0.310539
v 5.610103 0.871423 0.161347
v 5.271128 0.827943 0.718719
v 5.064686 0.801115 1.339234
v 6.720823 0.965120 -0.495163
v 6.193890 0.920632 -0.154308
v 5.766334 0.872161 0.285843
v 5.451263 0.829774 0.805155
v 7.363100 0.196317 -0.731261
v 5.274344 0.004164 1.350658
v 7.715300 0.182006 0.828485
v 7.464412 0.153628 0.912822
v 7.065219 0.082519 1.224993
v 6.925453 0.047576 1.444528
v 7.189856 0.914727 1.095543
v 7.016184 0.878067 1.281810
v 6.819400 0.817214 1.735460
v 7.726724 0.978957 1.038143
v 7.498739 0.948642 1.126060
v 7.314352 0.913988 1.251775
v 7.172415 0.878805 1.406306
v 7.563874 -0.047414 1.084682
v 7.385374 -0.080445 1.190481
v 7.032730 -0.179422 1.738733
v 7.999998 -0.400000 4.999998
v 7.999998 0.600000 4.999998
v 5.199999 0.800000 1.999998
v 7.999998 0.600000 4.799998
v 7.999998 -0.200000 4.799998
v 7.298482 -0.397310 4.916949
v 6.090325 -0.323011 4.328602
v 5.283323 -0.229105 3.300475
v 5.070098 -0.201579 2.672774
v 5.324701 0.766951 3.365611
v 5.689461 0.721370 3.930604
v 6.161347 0.671423 4.389895
v 6.718719 0.627943 4.728870
v 5.283429 0.795057 2.669500
v 5.268739 -0.003683 2.636899
v 6.753046 -0.167071 4.515632
v 6.828485 -0.017994 2.284698
v 7.046508 -0.080820 2.753325
v 7.224993 -0.117481 2.934779
v 6.843174 0.780746 2.317300
v 6.945924 0.750473 2.587695
v 7.281810 0.678067 2.983814
v 7.496636 0.644421 3.107648
v 7.735459 0.617214 3.180598
v 7.038143 0.778957 2.273275
v 7.583072 0.646252 2.927512
v 7.779485 0.619003 2.985630
v 7.019780 -0.219467 2.232523
v 7.190481 -0.280445 2.614625
v 7.999998 0.600000 2.999998
v 10.999998 -0.600000 1.999999
v 10.999998 0.400000 1.999999
v 8.999998 0.400000 2.000000
v 9.199999 0.400000 1.999999
v 7.999998 -0.200000 3.199998
v 10.687492 -0.568114 3.346414
v 10.328602 -0.523011 3.909672
v 9.365610 0.566951 4.675297
v 9.930604 0.521370 4.310537
v 10.389895 0.471423 3.838650
v 10.728870 0.427943 3.281278
v 8.669500 0.595057 4.716569
v 9.279175 0.565120 4.495161
v 9.806108 0.520632 4.154306
v 10.548735 0.429774 3.194843
v 8.636899 -0.203683 4.731259
v 9.749290 -0.274915 4.203341
v 10.515631 -0.367071 3.246952
v 8.535585 -0.246372 3.087177
v 8.934778 -0.317481 2.775005
v 9.074545 -0.352424 2.555470
v 8.983814 0.478067 2.718188
v 9.107648 0.444421 2.503361
v 8.273274 0.578957 2.961855
v 8.985630 0.419003 2.220513
v 8.232523 -0.419467 2.980218
v 8.967267 -0.579422 2.261265
v 8.999998 -0.600000 2.000000
v 7.999998 -0.800000 -1.000000
v 7.999998 0.200000 -1.000000
v 10.799998 0.400000 1.999999
v 10.799998 -0.400000 1.999999
v 9.199998 -0.400000 2.000000
v 7.999999 -0.600000 -0.800000
v 8.701514 -0.797310 -0.916951
v 9.909672 -0.723011 -0.328604
v 10.371830 -0.673064 0.140415
v 10.716675 -0.629105 0.699522
v 10.929899 -0.601579 1.327224
v 10.911537 0.396846 1.286472
v 10.310536 0.321370 0.069393
v 9.838650 0.271423 -0.389898
v 9.281278 0.227943 -0.728873
v 10.716568 0.395057 1.330497
v 10.495161 0.365120 0.720822
v 9.714153 0.272161 -0.233667
v 10.528263 -0.431725 0.772931
v 10.203341 -0.474915 0.250707
v 9.171513 -0.417994 1.715299
v 9.087176 -0.446372 1.464412
v 8.953489 -0.480820 1.246673
v 8.775005 -0.517481 1.065219
v 8.297139 -0.581526 0.834090
v 8.904455 0.314727 1.189856
v 8.264538 0.217214 0.819400
v 8.961855 0.378957 1.726723
v 8.873938 0.348642 1.498739
v 8.416925 0.246252 1.072486
v 8.980217 -0.619467 1.767475
v 8.915316 -0.647414 1.563874
v 8.809517 -0.680445 1.385373
v 8.261265 -0.779422 1.032730
v 8.000000 0.000000 -1.000000
v 6.999999 0.800000 1.999999
v 8.000000 1.000000 -0.800000
v 6.799999 0.800000 1.999998
v 5.312506 -0.168114 0.653584
v 6.140416 -0.073064 -0.371833
v 6.699523 -0.029105 -0.716677
v 7.327225 -0.001579 -0.929901
v 7.330498 0.995057 -0.716571
v 5.259655 0.802904 1.383259
v 6.772932 0.168275 -0.528266
v 6.250708 0.125085 -0.203343
v 5.815369 0.076614 0.229025
v 5.484366 0.032929 0.753046
v 7.246674 0.119180 1.046508
v 6.834090 0.018475 1.702858
v 7.682698 0.980746 0.843175
v 7.412303 0.950473 0.945924
v 6.892350 0.844421 1.496637
v 7.072486 0.846252 1.583072
v 7.014368 0.819003 1.779485
v 7.767475 -0.019467 1.019781
v 7.233709 -0.115629 1.335284
v 7.113864 -0.149805 1.517936
v 5.000000 -0.200000 1.999998
v 5.000000 0.800000 1.999998
v 5.199999 0.000000 1.999998
v 6.653584 -0.368114 4.687492
v 5.628167 -0.273064 3.859582
v 5.088461 0.796846 2.713525
v 7.339234 0.601115 4.935312
v 5.504837 0.765120 3.279176
v 5.845692 0.720632 3.806108
v 6.285843 0.672161 4.233665
v 6.805155 0.629773 4.548735
v 7.383259 0.602904 4.740344
v 5.471734 -0.031725 3.227067
v 5.796657 -0.074915 3.749291
v 6.229025 -0.123386 4.184629
v 7.350657 -0.195836 4.725654
v 6.912821 -0.046372 2.535586
v 7.444528 -0.152424 3.074545
v 7.702858 -0.181525 3.165908
v 7.095543 0.714727 2.810143
v 7.126060 0.748642 2.501260
v 7.251774 0.713989 2.685647
v 7.406306 0.678805 2.827583
v 7.084682 -0.247414 2.436124
v 7.335284 -0.315629 2.766289
v 7.517936 -0.349805 2.886134
v 7.738733 -0.379422 2.967268
v 7.999998 -0.400000 2.999998
v 7.999998 0.600000 3.199998
v 10.916948 -0.597310 2.701515
v 9.859582 -0.473064 4.371831
v 9.300474 -0.429105 4.716675
v 8.672773 -0.401579 4.929899
v 8.713526 0.596846 4.911537
v 10.935311 0.401115 2.660764
v 10.233664 0.472161 3.714155
v 10.740343 0.402904 2.616739
v 9.227066 -0.231725 4.528264
v 10.184629 -0.323386 3.770972
v 10.725653 -0.395836 2.649340
v 8.284698 -0.217994 3.171513
v 8.753325 -0.280820 2.953490
v 9.165908 -0.381525 2.297140
v 8.317299 0.580746 3.156823
v 8.587694 0.550473 3.054074
v 8.810143 0.514727 2.904455
v 9.180597 0.417214 2.264538
v 8.501259 0.548642 2.873938
v 8.685646 0.513989 2.748223
v 8.827582 0.478805 2.593692
v 8.927511 0.446252 2.416926
v 8.436123 -0.447414 2.915316
v 8.614624 -0.480445 2.809517
v 8.766289 -0.515629 2.664714
v 8.886133 -0.549805 2.482062
v 7.999999 0.200000 1.000000
v 7.999999 0.200000 0.800000
v 7.999999 0.200000 -0.800000
v 9.346413 -0.768114 -0.687494
v 10.675297 0.366951 0.634387
v 8.660763 0.201115 -0.935314
v 10.154305 0.320632 0.193889
v 9.194842 0.229774 -0.548737
v 8.616737 0.202904 -0.740345
v 10.731258 -0.403683 1.363098
v 9.770971 -0.523386 -0.184632
v 9.246951 -0.567071 -0.515634
v 8.649340 -0.595836 -0.725655
v 8.555470 -0.552424 0.925453
v 9.156822 0.380746 1.682698
v 9.054073 0.350473 1.412303
v 8.718187 0.278067 1.016184
v 8.503361 0.244421 0.892350
v 8.748222 0.313989 1.314351
v 8.593692 0.278805 1.172415
v 8.220512 0.219003 1.014368
v 8.664713 -0.715629 1.233709
v 8.482061 -0.749805 1.113864
vn 1.0000 -0.0000 -0.0000
vn -0.0000 -0.0000 -1.0000
vn -0.0879 0.9961 -0.0000
vn -0.0000 -0.0000 1.0000
vn 0.0879 -0.9961 -0.0000
vn -1.0000 -0.0000 -0.0000
vn -0.9930 -0.0135 -0.1176
vn -0.0093 1.0000 0.0008
vn 0.9954 -0.0000 0.0963
vn -0.0000 1.0000 0.0064
vn -0.9935 -0.0000 -0.1140
vn -0.0234 0.9977 0.0632
vn 0.9977 0.0156 0.0664
vn 0.0261 -0.9968 -0.0752
vn -0.9418 -0.0172 -0.3359
vn -0.8428 -0.0135 -0.5381
vn -0.7015 -0.0062 -0.7126
vn -0.5250 0.0010 -0.8511
vn -0.3218 0.0043 -0.9468
vn -0.1036 -0.0000 -0.9946
vn -0.0266 0.9991 0.0343
vn -0.0450 0.9977 0.0505
vn -0.0570 0.9971 0.0501
vn -0.0565 0.9977 0.0372
vn -0.0393 0.9991 0.0180
vn -0.0044 1.0000 -0.0000
vn 0.9491 0.0046 0.3148
vn 0.8549 0.0016 0.5188
vn 0.7176 -0.0055 0.6964
vn 0.5439 -0.0129 0.8391
vn 0.3420 -0.0167 0.9395
vn 0.1237 -0.0132 0.9922
vn -0.0186 0.9990 0.0416
vn -0.0384 0.9975 0.0589
vn -0.0520 0.9969 0.0594
vn -0.0532 0.9975 0.0471
vn -0.0377 0.9989 0.0283
vn -0.0047 0.9999 0.0102
vn -0.9426 -0.0037 -0.3338
vn -0.8436 0.0001 -0.5370
vn -0.7020 0.0076 -0.7121
vn -0.5249 0.0150 -0.8510
vn -0.3204 0.0184 -0.9471
vn -0.1004 0.0142 -0.9948
vn -0.0562 0.9938 0.0960
vn -0.0879 0.9906 0.1045
vn -0.1099 0.9896 0.0923
vn -0.1153 0.9912 0.0654
vn -0.0994 0.9946 0.0316
vn -0.0606 0.9982 -0.0000
vn 0.9579 0.0211 0.2864
vn 0.8689 0.0182 0.4946
vn 0.7352 0.0107 0.6777
vn 0.5630 0.0025 0.8264
vn 0.3601 -0.0025 0.9329
vn 0.1382 -0.0000 0.9904
vn 0.0628 -0.9919 -0.1100
vn 0.0998 -0.9878 -0.1194
vn 0.1274 -0.9862 -0.1062
vn 0.1376 -0.9876 -0.0761
vn 0.1243 -0.9916 -0.0372
vn 0.0834 -0.9965 -0.0000
vn -0.1176 -0.0135 0.9930
vn 0.0008 1.0000 0.0093
vn 0.0963 -0.0000 -0.9954
vn 0.0064 1.0000 -0.0000
vn -0.1140 -0.0000 0.9935
vn 0.0632 0.9977 0.0234
vn 0.0664 0.0156 -0.9977
vn -0.0752 -0.9968 -0.0261
vn -0.3359 -0.0172 0.9418
vn -0.5381 -0.0135 0.8428
vn -0.7126 -0.0062 0.7015
vn -0.8511 0.0010 0.5250
vn -0.9468 0.0043 0.3218
vn -0.9946 -0.0000 0.1036
vn 0.0343 0.9991 0.0266
vn 0.0505 0.9977 0.0450
vn 0.0501 0.9971 0.0570
vn 0.0372 0.9977 0.0565
vn 0.0180 0.9991 0.0393
vn -0.0000 1.0000 0.0044
vn 0.3148 0.0046 -0.9491
vn 0.5188 0.0016 -0.8549
vn 0.9395 -0.0167 -0.3420
vn 0.9922 -0.0132 -0.1237
vn 0.0416 0.9990 0.0186
vn 0.0589 0.9975 0.0384
vn 0.0594 0.9969 0.0520
vn 0.0471 0.9975 0.0532
vn 0.0283 0.9989 0.0377
vn 0.0102 0.9999 0.0047
vn -0.3338 -0.0037 0.9426
vn -0.5370 0.0001 0.8436
vn -0.7121 0.0076 0.7020
vn -0.8510 0.0150 0.5249
vn -0.9471 0.0184 0.3204
vn -0.9948 0.0142 0.1004
vn 0.0960 0.9938 0.0562
vn 0.1045 0.9906 0.0879
vn 0.0923 0.9896 0.1099
vn 0.0654 0.9912 0.1153
vn 0.0316 0.9946 0.0994
vn -0.0000 0.9982 0.0606
vn 0.2864 0.0211 -0.9579
vn 0.4946 0.0182 -0.8689
vn 0.6777 0.0107 -0.7352
vn 0.8264 0.0025 -0.5630
vn 0.9329 -0.0025 -0.3601
vn 0.9904 -0.0000 -0.1382
vn -0.1100 -0.9919 -0.0628
vn -0.1194 -0.9878 -0.0998
vn -0.1062 -0.9862 -0.1274
vn -0.0761 -0.9876 -0.1376
vn -0.0372 -0.9916 -0.1243
vn -0.0000 -0.9965 -0.0834
vn 0.9930 -0.0135 0.1176
vn 0.0093 1.0000 -0.0008
vn -0.9954 -0.0000 -0.0963
vn -0.0000 1.0000 -0.0064
vn 0.9935 -0.0000 0.1140
vn 0.0234 0.9977 -0.0632
vn -0.9977 0.0156 -0.0664
vn -0.0261 -0.9968 0.0752
vn 0.9418 -0.0172 0.3359
vn 0.8428 -0.0135 0.5381
vn 0.7015 -0.0062 0.7126
vn 0.5250 0.0010 0.8511
vn 0.3218 0.0043 0.9468
vn 0.1036 -0.0000 0.9946
vn 0.0266 0.9991 -0.0343
vn 0.0450 0.9977 -0.0505
vn 0.0570 0.9971 -0.0501
vn 0.0565 0.9977 -0.0372
vn 0.0393 0.9991 -0.0180
vn 0.0044 1.0000 -0.0000
vn -0.9491 0.0046 -0.3148
vn -0.8549 0.0016 -0.5188
vn -0.7176 -0.0055 -0.6964
vn -0.5439 -0.0129 -0.8391
vn -0.3420 -0.0167 -0.9395
vn -0.1237 -0.0132 -0.9922
vn 0.0186 0.9990 -0.0416
vn 0.0384 0.9975 -0.0589
vn 0.0520 0.9969 -0.0594
vn 0.0532 0.9975 -0.0471
vn 0.0377 0.9989 -0.0283
vn 0.0047 0.9999 -0.0102
vn 0.9426 -0.0037 0.3338
vn 0.8436 0.0001 0.5370
vn 0.7020 0.0076 0.7121
vn 0.5249 0.0150 0.8510
vn 0.3204 0.0184 0.9471
vn 0.1004 0.0142 0.9948
vn 0.0562 0.9938 -0.0960
vn 0.0879 0.9906 -0.1045
vn 0.1099 0.9896 -0.0923
vn 0.0994 0.9946 -0.0316
vn 0.0606 0.9982 -0.0000
vn -0.9579 0.0211 -0.2864
vn -0.3601 -0.0025 -0.9329
vn -0.1382 -0.0000 -0.9904
vn -0.0628 -0.9919 0.1100
vn -0.0998 -0.9878 0.1194
vn -0.1274 -0.9862 0.1062
vn -0.1243 -0.9916 0.0372
vn -0.0834 -0.9965 -0.0000
vn 0.1176 -0.0135 -0.9930
vn -0.0008 1.0000 -0.0093
vn -0.0963 -0.0000 0.9954
vn -0.0064 1.0000 -0.0000
vn 0.1140 -0.0000 -0.9935
vn -0.0632 0.9977 -0.0234
vn -0.0664 0.0156 0.9977
vn 0.0752 -0.9968 0.0261
vn 0.3359 -0.0172 -0.9418
vn 0.5381 -0.0135 -0.8428
vn 0.7126 -0.0062 -0.7015
vn 0.8511 0.0010 -0.5250
vn 0.9468 0.0043 -0.3218
vn 0.9946 -0.0000 -0.1036
vn -0.0343 0.9991 -0.0266
vn -0.0505 0.9977 -0.0450
vn -0.0501 0.9971 -0.0570
vn -0.0372 0.9977 -0.0565
vn -0.0180 0.9991 -0.0393
vn -0.0000 1.0000 -0.0044
vn -0.5188 0.0016 0.8549
vn -0.6964 -0.0055 0.7176
vn -0.8391 -0.0129 0.5439
vn -0.9395 -0.0167 0.3420
vn -0.9922 -0.0132 0.1237
vn -0.0416 0.9990 -0.0186
vn -0.0589 0.9975 -0.0384
vn -0.0594 0.9969 -0.0520
vn -0.0471 0.9975 -0.0532
vn -0.0283 0.9989 -0.0377
vn -0.0102 0.9999 -0.0047
vn 0.3338 -0.0037 -0.9426
vn 0.5370 0.0001 -0.8436
vn 0.7121 0.0076 -0.7020
vn 0.8510 0.0150 -0.5249
vn 0.9471 0.0184 -0.3204
vn 0.9948 0.0142 -0.1004
vn -0.0960 0.9938 -0.0562
vn -0.1045 0.9906 -0.0879
vn -0.0923 0.9896 -0.1099
vn -0.0654 0.9912 -0.1153
vn -0.0316 0.9946 -0.0994
vn -0.0000 0.9982 -0.0606
vn -0.2864 0.0211 0.9579
vn -0.4946 0.0182 0.8689
vn -0.6777 0.0107 0.7352
vn -0.8264 0.0025 0.5630
vn -0.9329 -0.0025 0.3601
vn -0.9904 -0.0000 0.1382
vn 0.1100 -0.9919 0.0628
vn 0.1194 -0.9878 0.0998
vn 0.1062 -0.9862 0.1274
vn 0.0761 -0.9876 0.1376
vn 0.0372 -0.9916 0.1243
vn -0.0000 -0.9965 0.0834
vn 0.6964 -0.0055 -0.7176
vn 0.8391 -0.0129 -0.5439
vn 0.1153 0.9912 -0.0654
vn -0.8689 0.0182 -0.4946
vn -0.7352 0.0107 -0.6777
vn -0.5630 0.0025 -0.8264
vn -0.1376 -0.9876 0.0761
vn -0.3148 0.0046 0.9491
vn -0.9952 -0.0000 -0.0974
vn -0.0000 1.0000 0.0047
vn 0.9934 0.0136 0.1138
vn -0.0226 0.9980 0.0595
vn -0.9971 -0.0153 -0.0741
vn -0.0000 0.9963 0.0859
vn 0.9922 -0.0000 0.1243
vn -0.0000 -1.0000 -0.0038
vn -0.9488 -0.0046 -0.3159
vn -0.8543 -0.0015 -0.5197
vn -0.7169 0.0056 -0.6972
vn -0.5431 0.0130 -0.8396
vn -0.3412 0.0167 -0.9398
vn -0.1231 0.0132 -0.9923
vn -0.0183 0.9990 0.0404
vn -0.0381 0.9976 0.0583
vn -0.0520 0.9969 0.0593
vn -0.0536 0.9974 0.0474
vn -0.0386 0.9988 0.0287
vn -0.0061 0.9999 0.0105
vn 0.9430 0.0174 0.3323
vn 0.8449 0.0139 0.5348
vn 0.7043 0.0065 0.7099
vn 0.5283 -0.0007 0.8490
vn 0.3254 -0.0041 0.9456
vn 0.1073 -0.0000 0.9942
vn -0.0546 0.9942 0.0927
vn -0.0865 0.9909 0.1027
vn -0.1095 0.9897 0.0919
vn -0.1163 0.9910 0.0659
vn -0.1017 0.9943 0.0321
vn -0.0631 0.9980 -0.0000
vn -0.9555 -0.0205 -0.2942
vn -0.8650 -0.0175 -0.5014
vn -0.7304 -0.0101 -0.6830
vn -0.5579 -0.0020 -0.8299
vn -0.3555 0.0027 -0.9347
vn -0.1348 -0.0000 -0.9909
vn -0.0376 0.9913 0.1264
vn -0.0765 0.9874 0.1386
vn -0.1060 0.9862 0.1272
vn -0.1183 0.9880 0.0989
vn -0.1081 0.9922 0.0619
vn -0.0732 0.9970 0.0257
vn 0.9385 0.0032 0.3453
vn 0.8362 -0.0011 0.5484
vn 0.6916 -0.0090 0.7222
vn 0.5120 -0.0164 0.8588
vn 0.3061 -0.0195 0.9518
vn 0.0860 -0.0148 0.9962
vn 0.0179 -0.9991 -0.0388
vn 0.0371 -0.9977 -0.0562
vn 0.0501 -0.9971 -0.0569
vn 0.0506 -0.9977 -0.0451
vn 0.0347 -0.9990 -0.0268
vn 0.0014 -1.0000 -0.0095
vn -0.0974 -0.0000 0.9952
vn 0.0047 1.0000 -0.0000
vn 0.1138 0.0136 -0.9934
vn 0.0595 0.9980 0.0226
vn -0.0741 -0.0153 0.9971
vn 0.0859 0.9963 -0.0000
vn 0.1243 -0.0000 -0.9922
vn -0.0038 -1.0000 -0.0000
vn -0.3159 -0.0046 0.9488
vn -0.5197 -0.0015 0.8543
vn -0.6972 0.0056 0.7169
vn -0.8396 0.0130 0.5431
vn -0.9398 0.0167 0.3413
vn -0.9923 0.0132 0.1231
vn 0.0404 0.9990 0.0183
vn 0.0583 0.9976 0.0381
vn 0.0593 0.9969 0.0520
vn 0.0474 0.9974 0.0536
vn 0.0287 0.9988 0.0386
vn 0.0105 0.9999 0.0061
vn 0.3323 0.0174 -0.9430
vn 0.5348 0.0139 -0.8449
vn 0.9456 -0.0041 -0.3254
vn 0.9942 -0.0000 -0.1073
vn 0.0927 0.9942 0.0546
vn 0.1027 0.9909 0.0865
vn 0.0919 0.9897 0.1095
vn 0.0659 0.9910 0.1163
vn 0.0321 0.9943 0.1017
vn -0.0000 0.9980 0.0631
vn -0.2942 -0.0205 0.9555
vn -0.5014 -0.0175 0.8650
vn -0.6830 -0.0101 0.7304
vn -0.8299 -0.0020 0.5579
vn -0.9347 0.0027 0.3555
vn -0.9909 -0.0000 0.1348
vn 0.1264 0.9913 0.0376
vn 0.1386 0.9874 0.0765
vn 0.1272 0.9862 0.1060
vn 0.0989 0.9880 0.1183
vn 0.0619 0.9922 0.1081
vn 0.0257 0.9970 0.0732
vn 0.3453 0.0032 -0.9385
vn 0.5484 -0.0011 -0.8362
vn 0.7222 -0.0090 -0.6916
vn 0.8588 -0.0164 -0.5120
vn 0.9518 -0.0195 -0.3061
vn 0.9962 -0.0148 -0.0860
vn -0.0388 -0.9991 -0.0179
vn -0.0562 -0.9977 -0.0371
vn -0.0569 -0.9971 -0.0501
vn -0.0451 -0.9977 -0.0506
vn -0.0268 -0.9990 -0.0347
vn -0.0095 -1.0000 -0.0014
vn 0.9952 -0.0000 0.0974
vn -0.0000 1.0000 -0.0047
vn -0.9934 0.0136 -0.1138
vn 0.0226 0.9980 -0.0595
vn 0.9971 -0.0153 0.0741
vn -0.0000 0.9963 -0.0859
vn -0.9922 -0.0000 -0.1243
vn -0.0000 -1.0000 0.0038
vn 0.9488 -0.0046 0.3159
vn 0.8543 -0.0015 0.5197
vn 0.7169 0.0056 0.6972
vn 0.5431 0.0130 0.8396
vn 0.3412 0.0167 0.9398
vn 0.1231 0.0132 0.9923
vn 0.0183 0.9990 -0.0404
vn 0.0381 0.9976 -0.0583
vn 0.0520 0.9969 -0.0593
vn 0.0536 0.9974 -0.0474
vn 0.0386 0.9988 -0.0287
vn 0.0061 0.9999 -0.0105
vn -0.9430 0.0174 -0.3323
vn -0.8449 0.0139 -0.5348
vn -0.7043 0.0065 -0.7099
vn -0.5283 -0.0007 -0.8490
vn -0.3254 -0.0041 -0.9456
vn -0.1073 -0.0000 -0.9942
vn 0.0546 0.9942 -0.0927
vn 0.0865 0.9909 -0.1027
vn 0.1095 0.9897 -0.0919
vn 0.1163 0.9910 -0.0659
vn 0.1017 0.9943 -0.0321
vn 0.0631 0.9980 -0.0000
vn 0.9555 -0.0205 0.2942
vn 0.8650 -0.0175 0.5014
vn 0.7304 -0.0101 0.6830
vn 0.5579 -0.0020 0.8299
vn 0.3555 0.0027 0.9347
vn 0.1348 -0.0000 0.9909
vn 0.0376 0.9913 -0.1264
vn 0.0765 0.9874 -0.1386
vn 0.1060 0.9862 -0.1272
vn 0.1081 0.9922 -0.0619
vn 0.0732 0.9970 -0.0257
vn -0.9385 0.0032 -0.3453
vn -0.3061 -0.0195 -0.9518
vn -0.0860 -0.0148 -0.9962
vn -0.0179 -0.9991 0.0388
vn -0.0371 -0.9977 0.0562
vn -0.0501 -0.9971 0.0569
vn -0.0347 -0.9990 0.0268
vn -0.0014 -1.0000 0.0095
vn 0.0974 -0.0000 -0.9952
vn -0.0047 1.0000 -0.0000
vn -0.1138 0.0136 0.9934
vn -0.0595 0.9980 -0.0226
vn 0.0741 -0.0153 -0.9971
vn -0.0859 0.9963 -0.0000
vn -0.1243 -0.0000 0.9922
vn 0.0038 -1.0000 -0.0000
vn 0.3159 -0.0046 -0.9488
vn 0.5197 -0.0015 -0.8543
vn 0.6972 0.0056 -0.7169
vn 0.8396 0.0130 -0.5431
vn 0.9398 0.0167 -0.3412
vn 0.9923 0.0132 -0.1231
vn -0.0404 0.9990 -0.0183
vn -0.0583 0.9976 -0.0381
vn -0.0593 0.9969 -0.0520
vn -0.0474 0.9974 -0.0536
vn -0.0287 0.9988 -0.0386
vn -0.0105 0.9999 -0.0061
vn -0.5348 0.0139 0.8449
vn -0.7099 0.0065 0.7043
vn -0.8490 -0.0007 0.5283
vn -0.9456 -0.0041 0.3254
vn -0.9942 -0.0000 0.1073
vn -0.0927 0.9942 -0.0546
vn -0.1027 0.9909 -0.0865
vn -0.0919 0.9897 -0.1095
vn -0.0659 0.9910 -0.1163
vn -0.0321 0.9943 -0.1017
vn -0.0000 0.9980 -0.0631
vn 0.2942 -0.0205 -0.9555
vn 0.5014 -0.0175 -0.8650
vn 0.6830 -0.0101 -0.7304
vn 0.8299 -0.0020 -0.5579
vn 0.9347 0.0027 -0.3555
vn 0.9909 -0.0000 -0.1348
vn -0.1264 0.9913 -0.0376
vn -0.1386 0.9874 -0.0765
vn -0.1272 0.9862 -0.1060
vn -0.0989 0.9880 -0.1183
vn -0.0619 0.9922 -0.1081
vn -0.0257 0.9970 -0.0732
vn -0.3453 0.0032 0.9385
vn -0.5484 -0.0011 0.8362
vn -0.7222 -0.0090 0.6916
vn -0.8588 -0.0164 0.5120
vn -0.9518 -0.0195 0.3061
vn -0.9962 -0.0148 0.0860
vn 0.0388 -0.9991 0.0179
vn 0.0562 -0.9977 0.0371
vn 0.0569 -0.9971 0.0501
vn 0.0451 -0.9977 0.0506
vn 0.0268 -0.9990 0.0347
vn 0.0095 -1.0000 0.0014
vn 0.7099 0.0065 -0.7043
vn 0.8490 -0.0007 -0.5283
vn 0.1183 0.9880 -0.0989
vn -0.8362 -0.0011 -0.5484
vn -0.6916 -0.0090 -0.7222
vn -0.5120 -0.0164 -0.8588
vn -0.0506 -0.9977 0.0451
vn -0.3323 0.0174 0.9430
vt 0.625000 0.666667
vt 0.375000 0.750000
vt 0.375000 0.500000
vt 0.625000 0.250000
vt 0.375000 0.250000
vt 0.625000 0.583333
vt 0.875000 0.666667
vt 0.625000 1.000000
vt 0.375000 1.000000
vt 0.125000 0.750000
vt 0.125000 0.500000
vt 0.625000 0.750000
vt 0.625000 0.500000
vt 0.875000 0.583333
vt 0.875000 0.500000
vt 0.625000 0.785714
vt 0.375000 0.785714
vt 0.660714 0.666667
vt 0.660714 0.583333
vt 0.660714 0.500000
vt 0.375000 0.464286
vt 0.625000 0.821429
vt 0.375000 0.821429
vt 0.625000 0.857143
vt 0.375000 0.857143
vt 0.625000 0.892857
vt 0.375000 0.892857
vt 0.625000 0.928571
vt 0.375000 0.928571
vt 0.625000 0.964286
vt 0.375000 0.964286
vt 0.696429 0.666667
vt 0.732143 0.666667
vt 0.767857 0.666667
vt 0.803571 0.666667
vt 0.839286 0.666667
vt 0.696429 0.583333
vt 0.732143 0.583333
vt 0.767857 0.583333
vt 0.803571 0.583333
vt 0.839286 0.583333
vt 0.696429 0.500000
vt 0.732143 0.500000
vt 0.767857 0.500000
vt 0.803571 0.500000
vt 0.839286 0.500000
vt 0.375000 0.428571
vt 0.375000 0.392857
vt 0.375000 0.357143
vt 0.375000 0.321429
vt 0.375000 0.285714
vt 0.875000 0.750000
s 0
f 10/1/1 5/2/1 111/3/1
f 4/4/2 111/3/2 3/5/2
f 116/6/3 8/7/3 10/1/3
f 5/2/4 2/8/4 1/9/4
f 111/3/5 1/10/5 3/11/5
f 6/7/3 224/12/3 225/1/3
f 112/13/3 7/14/3 226/6/3
f 6/7/2 10/1/2 8/7/2
f 7/14/4 116/6/4 226/6/4
f 1/9/6 9/14/6 3/5/6
f 18/1/1 11/2/1 13/3/1
f 19/4/2 13/3/2 145/5/2
f 17/6/3 225/7/3 18/1/3
f 11/2/4 21/8/4 20/9/4
f 145/11/5 11/2/5 20/10/5
f 23/7/3 12/12/3 16/1/3
f 19/15/3 15/6/3 14/13/3
f 23/7/2 18/1/2 225/7/2
f 147/14/4 17/6/4 15/6/4
f 20/9/6 226/14/6 145/5/6
f 171/1/4 169/2/4 22/3/4
f 169/2/7 32/16/7 25/17/7
f 170/12/8 154/18/8 32/16/8
f 171/1/9 154/18/9 55/1/9
f 24/6/10 38/18/10 171/1/10
f 148/6/11 160/19/11 24/6/11
f 148/6/12 165/20/12 45/19/12
f 146/13/13 52/21/13 165/20/13
f 22/3/14 25/17/14 52/21/14
f 25/17/15 31/22/15 149/23/15
f 149/23/16 30/24/16 26/25/16
f 26/25/17 29/26/17 150/27/17
f 150/27/18 28/28/18 151/29/18
f 151/29/19 27/30/19 152/31/19
f 152/31/20 19/8/20 145/9/20
f 32/16/21 36/32/21 31/22/21
f 31/22/22 35/33/22 30/24/22
f 30/24/23 34/34/23 29/26/23
f 29/26/24 33/35/24 28/28/24
f 28/28/25 153/36/25 27/30/25
f 27/30/26 147/7/26 19/8/26
f 38/18/27 36/32/27 154/18/27
f 158/32/28 35/33/28 36/32/28
f 157/33/29 34/34/29 35/33/29
f 156/34/30 33/35/30 34/34/30
f 155/35/31 153/36/31 33/35/31
f 37/36/32 147/7/32 153/36/32
f 160/19/33 158/32/33 38/18/33
f 42/37/34 157/33/34 158/32/34
f 41/38/35 156/34/35 157/33/35
f 159/39/36 155/35/36 156/34/36
f 40/40/37 37/36/37 155/35/37
f 39/41/38 226/7/38 37/36/38
f 45/19/39 42/37/39 160/19/39
f 163/37/40 41/38/40 42/37/40
f 44/38/41 159/39/41 41/38/41
f 43/39/42 40/40/42 159/39/42
f 162/40/43 39/41/43 40/40/43
f 161/41/44 225/14/44 39/41/44
f 45/19/45 164/42/45 163/37/45
f 163/37/46 49/43/46 44/38/46
f 44/38/47 48/44/47 43/39/47
f 43/39/48 47/45/48 162/40/48
f 162/40/49 46/46/49 161/41/49
f 161/41/50 21/15/50 23/14/50
f 165/20/51 168/47/51 164/42/51
f 164/42/52 167/48/52 49/43/52
f 49/43/53 51/49/53 48/44/53
f 48/44/54 50/50/54 47/45/54
f 47/45/55 166/51/55 46/46/55
f 46/46/56 20/5/56 21/15/56
f 52/21/57 149/23/57 168/47/57
f 168/47/58 26/25/58 167/48/58
f 167/48/59 150/27/59 51/49/59
f 51/49/60 151/29/60 50/50/60
f 50/50/61 152/31/61 166/51/61
f 166/51/62 145/9/62 20/5/62
f 57/1/1 53/2/1 196/3/1
f 53/2/63 175/16/63 58/17/63
f 54/12/64 180/18/64 175/16/64
f 57/1/65 180/18/65 56/1/65
f 87/6/66 184/18/66 57/1/66
f 197/6/67 187/19/67 87/6/67
f 197/6/68 79/20/68 76/19/68
f 82/13/69 195/21/69 79/20/69
f 196/3/70 58/17/70 195/21/70
f 58/17/71 65/22/71 172/23/71
f 172/23/72 64/24/72 59/25/72
f 59/25/73 63/26/73 173/27/73
f 173/27/74 62/28/74 60/29/74
f 60/29/75 174/30/75 61/31/75
f 61/31/76 170/8/76 169/9/76
f 175/16/77 179/32/77 65/22/77
f 65/22/78 178/33/78 64/24/78
f 64/24/79 177/34/79 63/26/79
f 63/26/80 176/35/80 62/28/80
f 62/28/81 66/36/81 174/30/81
f 174/30/82 55/7/82 170/8/82
f 184/18/83 179/32/83 180/18/83
f 68/32/84 178/33/84 179/32/84
f 181/35/85 66/36/85 176/35/85
f 67/36/86 55/7/86 66/36/86
f 187/19/87 68/32/87 184/18/87
f 186/37/88 183/33/88 68/32/88
f 71/38/89 182/34/89 183/33/89
f 70/39/90 181/35/90 182/34/90
f 185/40/91 67/36/91 181/35/91
f 69/41/92 171/7/92 67/36/92
f 76/19/93 186/37/93 187/19/93
f 75/37/94 71/38/94 186/37/94
f 74/38/95 70/39/95 71/38/95
f 188/39/96 185/40/96 70/39/96
f 73/40/97 69/41/97 185/40/97
f 72/41/98 24/14/98 69/41/98
f 76/19/99 78/42/99 75/37/99
f 75/37/100 191/43/100 74/38/100
f 74/38/101 190/44/101 188/39/101
f 188/39/102 189/45/102 73/40/102
f 73/40/103 77/46/103 72/41/103
f 72/41/104 146/15/104 148/14/104
f 79/20/105 194/47/105 78/42/105
f 78/42/106 193/48/106 191/43/106
f 191/43/107 81/49/107 190/44/107
f 190/44/108 192/50/108 189/45/108
f 189/45/109 80/51/109 77/46/109
f 77/46/110 22/5/110 146/15/110
f 195/21/111 172/23/111 194/47/111
f 194/47/112 59/25/112 193/48/112
f 193/48/113 173/27/113 81/49/113
f 81/49/114 60/29/114 192/50/114
f 192/50/115 61/31/115 80/51/115
f 80/51/116 169/9/116 22/5/116
f 114/1/2 83/2/2 110/3/2
f 83/2/117 203/16/117 198/17/117
f 84/12/118 205/18/118 203/16/118
f 114/1/119 205/18/119 113/1/119
f 115/6/120 208/18/120 114/1/120
f 86/6/121 211/19/121 115/6/121
f 86/6/122 107/20/122 215/19/122
f 85/13/123 109/21/123 107/20/123
f 110/3/124 198/17/124 109/21/124
f 198/17/125 93/22/125 88/23/125
f 88/23/126 92/24/126 89/25/126
f 89/25/127 91/26/127 199/27/127
f 199/27/128 90/28/128 200/29/128
f 200/29/129 202/30/129 201/31/129
f 201/31/130 54/8/130 53/9/130
f 203/16/131 97/32/131 93/22/131
f 93/22/132 204/33/132 92/24/132
f 92/24/133 96/34/133 91/26/133
f 91/26/134 95/35/134 90/28/134
f 90/28/135 94/36/135 202/30/135
f 202/30/136 56/7/136 54/8/136
f 208/18/137 97/32/137 205/18/137
f 100/32/138 204/33/138 97/32/138
f 207/33/139 96/34/139 204/33/139
f 99/34/140 95/35/140 96/34/140
f 206/35/141 94/36/141 95/35/141
f 98/36/142 56/7/142 94/36/142
f 211/19/143 100/32/143 208/18/143
f 103/37/144 207/33/144 100/32/144
f 102/38/145 99/34/145 207/33/145
f 210/39/146 206/35/146 99/34/146
f 101/40/147 98/36/147 206/35/147
f 209/41/148 57/7/148 98/36/148
f 215/19/149 103/37/149 211/19/149
f 105/37/150 102/38/150 103/37/150
f 104/38/151 210/39/151 102/38/151
f 214/39/152 101/40/152 210/39/152
f 213/40/153 209/41/153 101/40/153
f 212/41/154 87/14/154 209/41/154
f 215/19/155 219/42/155 105/37/155
f 105/37/156 218/43/156 104/38/156
f 104/38/157 217/44/157 214/39/157
f 213/40/158 106/46/158 212/41/158
f 212/41/159 82/15/159 197/14/159
f 107/20/160 223/47/160 219/42/160
f 216/45/161 108/51/161 106/46/161
f 106/46/162 196/5/162 82/15/162
f 109/21/163 88/23/163 223/47/163
f 223/47/164 89/25/164 222/48/164
f 222/48/165 199/27/165 221/49/165
f 220/50/166 201/31/166 108/51/166
f 108/51/167 53/9/167 196/5/167
f 111/2/168 229/16/168 117/17/168
f 112/12/169 232/18/169 229/16/169
f 116/1/170 232/18/170 226/1/170
f 10/6/171 236/18/171 116/1/171
f 225/6/172 135/19/172 10/6/172
f 225/6/173 244/20/173 137/19/173
f 224/13/174 144/21/174 244/20/174
f 5/3/175 117/17/175 144/21/175
f 117/17/176 125/22/176 227/23/176
f 227/23/177 124/24/177 118/25/177
f 118/25/178 123/26/178 119/27/178
f 119/27/179 228/28/179 120/29/179
f 120/29/180 122/30/180 121/31/180
f 121/31/181 84/8/181 83/9/181
f 229/16/182 231/32/182 125/22/182
f 125/22/183 128/33/183 124/24/183
f 124/24/184 230/34/184 123/26/184
f 123/26/185 127/35/185 228/28/185
f 228/28/186 126/36/186 122/30/186
f 122/30/187 113/7/187 84/8/187
f 235/32/188 128/33/188 231/32/188
f 234/33/189 230/34/189 128/33/189
f 130/34/190 127/35/190 230/34/190
f 129/35/191 126/36/191 127/35/191
f 233/36/192 113/7/192 126/36/192
f 135/19/193 235/32/193 236/18/193
f 237/37/194 234/33/194 235/32/194
f 134/38/195 130/34/195 234/33/195
f 133/39/196 129/35/196 130/34/196
f 132/40/197 233/36/197 129/35/197
f 131/41/198 114/7/198 233/36/198
f 137/19/199 237/37/199 135/19/199
f 241/37/200 134/38/200 237/37/200
f 240/38/201 133/39/201 134/38/201
f 136/39/202 132/40/202 133/39/202
f 239/40/203 131/41/203 132/40/203
f 238/41/204 115/14/204 131/41/204
f 137/19/205 140/42/205 241/37/205
f 241/37/206 243/43/206 240/38/206
f 240/38/207 242/44/207 136/39/207
f 136/39/208 139/45/208 239/40/208
f 239/40/209 138/46/209 238/41/209
f 238/41/210 85/15/210 86/14/210
f 244/20/211 246/47/211 140/42/211
f 140/42/212 245/48/212 243/43/212
f 243/43/213 143/49/213 242/44/213
f 242/44/214 142/50/214 139/45/214
f 139/45/215 141/51/215 138/46/215
f 138/46/216 110/5/216 85/15/216
f 144/21/217 227/23/217 246/47/217
f 246/47/218 118/25/218 245/48/218
f 245/48/219 119/27/219 143/49/219
f 143/49/220 120/29/220 142/50/220
f 142/50/221 121/31/221 141/51/221
f 141/51/222 83/9/222 110/5/222
f 183/33/223 177/34/223 178/33/223
f 182/34/224 176/35/224 177/34/224
f 214/39/225 216/45/225 213/40/225
f 219/42/226 222/48/226 218/43/226
f 218/43/227 221/49/227 217/44/227
f 217/44/228 220/50/228 216/45/228
f 221/49/229 200/29/229 220/50/229
f 236/18/230 231/32/230 232/18/230
f 111/3/1 112/13/1 226/6/1
f 111/3/1 226/6/1 116/6/1
f 225/1/1 224/12/1 5/2/1
f 111/3/1 116/6/1 10/1/1
f 10/1/1 225/1/1 5/2/1
f 4/4/2 112/13/2 111/3/2
f 116/6/3 9/14/3 8/7/3
f 5/2/4 224/12/4 2/8/4
f 111/3/5 5/2/5 1/10/5
f 6/7/3 2/52/3 224/12/3
f 112/13/3 4/15/3 7/14/3
f 6/7/2 225/1/2 10/1/2
f 7/14/4 9/14/4 116/6/4
f 1/9/6 2/8/6 6/7/6
f 1/9/6 6/7/6 8/7/6
f 7/14/6 4/15/6 3/5/6
f 1/9/6 8/7/6 9/14/6
f 9/14/6 7/14/6 3/5/6
f 13/3/1 14/13/1 15/6/1
f 13/3/1 15/6/1 17/6/1
f 16/1/1 12/12/1 11/2/1
f 13/3/1 17/6/1 18/1/1
f 18/1/1 16/1/1 11/2/1
f 19/4/2 14/13/2 13/3/2
f 17/6/3 226/14/3 225/7/3
f 11/2/4 12/12/4 21/8/4
f 145/11/5 13/3/5 11/2/5
f 23/7/3 21/52/3 12/12/3
f 19/15/3 147/14/3 15/6/3
f 23/7/2 16/1/2 18/1/2
f 147/14/4 226/14/4 17/6/4
f 20/9/6 21/8/6 23/7/6
f 20/9/6 23/7/6 225/7/6
f 147/14/6 19/15/6 145/5/6
f 20/9/6 225/7/6 226/14/6
f 226/14/6 147/14/6 145/5/6
f 22/3/4 146/13/4 148/6/4
f 22/3/4 148/6/4 24/6/4
f 55/1/4 170/12/4 169/2/4
f 22/3/4 24/6/4 171/1/4
f 171/1/4 55/1/4 169/2/4
f 169/2/231 170/12/231 32/16/231
f 170/12/232 55/1/232 154/18/232
f 171/1/233 38/18/233 154/18/233
f 24/6/234 160/19/234 38/18/234
f 148/6/235 45/19/235 160/19/235
f 148/6/236 146/13/236 165/20/236
f 146/13/237 22/3/237 52/21/237
f 22/3/238 169/2/238 25/17/238
f 25/17/239 32/16/239 31/22/239
f 149/23/240 31/22/240 30/24/240
f 26/25/241 30/24/241 29/26/241
f 150/27/242 29/26/242 28/28/242
f 151/29/243 28/28/243 27/30/243
f 152/31/244 27/30/244 19/8/244
f 32/16/245 154/18/245 36/32/245
f 31/22/246 36/32/246 35/33/246
f 30/24/247 35/33/247 34/34/247
f 29/26/248 34/34/248 33/35/248
f 28/28/249 33/35/249 153/36/249
f 27/30/250 153/36/250 147/7/250
f 38/18/251 158/32/251 36/32/251
f 158/32/252 157/33/252 35/33/252
f 157/33/253 156/34/253 34/34/253
f 156/34/254 155/35/254 33/35/254
f 155/35/255 37/36/255 153/36/255
f 37/36/256 226/7/256 147/7/256
f 160/19/257 42/37/257 158/32/257
f 42/37/258 41/38/258 157/33/258
f 41/38/259 159/39/259 156/34/259
f 159/39/260 40/40/260 155/35/260
f 40/40/261 39/41/261 37/36/261
f 39/41/262 225/14/262 226/7/262
f 45/19/263 163/37/263 42/37/263
f 163/37/264 44/38/264 41/38/264
f 44/38/265 43/39/265 159/39/265
f 43/39/266 162/40/266 40/40/266
f 162/40/267 161/41/267 39/41/267
f 161/41/268 23/14/268 225/14/268
f 45/19/269 165/20/269 164/42/269
f 163/37/270 164/42/270 49/43/270
f 44/38/271 49/43/271 48/44/271
f 43/39/272 48/44/272 47/45/272
f 162/40/273 47/45/273 46/46/273
f 161/41/274 46/46/274 21/15/274
f 165/20/275 52/21/275 168/47/275
f 164/42/276 168/47/276 167/48/276
f 49/43/277 167/48/277 51/49/277
f 48/44/278 51/49/278 50/50/278
f 47/45/279 50/50/279 166/51/279
f 46/46/280 166/51/280 20/5/280
f 52/21/281 25/17/281 149/23/281
f 168/47/282 149/23/282 26/25/282
f 167/48/283 26/25/283 150/27/283
f 51/49/284 150/27/284 151/29/284
f 50/50/285 151/29/285 152/31/285
f 166/51/286 152/31/286 145/9/286
f 196/3/1 82/13/1 197/6/1
f 196/3/1 197/6/1 87/6/1
f 56/1/1 54/12/1 53/2/1
f 196/3/1 87/6/1 57/1/1
f 57/1/1 56/1/1 53/2/1
f 53/2/287 54/12/287 175/16/287
f 54/12/288 56/1/288 180/18/288
f 57/1/289 184/18/289 180/18/289
f 87/6/290 187/19/290 184/18/290
f 197/6/291 76/19/291 187/19/291
f 197/6/292 82/13/292 79/20/292
f 82/13/293 196/3/293 195/21/293
f 196/3/294 53/2/294 58/17/294
f 58/17/295 175/16/295 65/22/295
f 172/23/296 65/22/296 64/24/296
f 59/25/297 64/24/297 63/26/297
f 173/27/298 63/26/298 62/28/298
f 60/29/299 62/28/299 174/30/299
f 61/31/300 174/30/300 170/8/300
f 175/16/301 180/18/301 179/32/301
f 65/22/302 179/32/302 178/33/302
f 64/24/303 178/33/303 177/34/303
f 63/26/304 177/34/304 176/35/304
f 62/28/305 176/35/305 66/36/305
f 174/30/306 66/36/306 55/7/306
f 184/18/307 68/32/307 179/32/307
f 68/32/308 183/33/308 178/33/308
f 181/35/309 67/36/309 66/36/309
f 67/36/310 171/7/310 55/7/310
f 187/19/311 186/37/311 68/32/311
f 186/37/312 71/38/312 183/33/312
f 71/38/313 70/39/313 182/34/313
f 70/39/314 185/40/314 181/35/314
f 185/40/315 69/41/315 67/36/315
f 69/41/316 24/14/316 171/7/316
f 76/19/317 75/37/317 186/37/317
f 75/37/318 74/38/318 71/38/318
f 74/38/319 188/39/319 70/39/319
f 188/39/320 73/40/320 185/40/320
f 73/40/321 72/41/321 69/41/321
f 72/41/322 148/14/322 24/14/322
f 76/19/323 79/20/323 78/42/323
f 75/37/324 78/42/324 191/43/324
f 74/38/325 191/43/325 190/44/325
f 188/39/326 190/44/326 189/45/326
f 73/40/327 189/45/327 77/46/327
f 72/41/328 77/46/328 146/15/328
f 79/20/329 195/21/329 194/47/329
f 78/42/330 194/47/330 193/48/330
f 191/43/331 193/48/331 81/49/331
f 190/44/332 81/49/332 192/50/332
f 189/45/333 192/50/333 80/51/333
f 77/46/334 80/51/334 22/5/334
f 195/21/335 58/17/335 172/23/335
f 194/47/336 172/23/336 59/25/336
f 193/48/337 59/25/337 173/27/337
f 81/49/338 173/27/338 60/29/338
f 192/50/339 60/29/339 61/31/339
f 80/51/340 61/31/340 169/9/340
f 110/3/2 85/13/2 86/6/2
f 110/3/2 86/6/2 115/6/2
f 113/1/2 84/12/2 83/2/2
f 110/3/2 115/6/2 114/1/2
f 114/1/2 113/1/2 83/2/2
f 83/2/341 84/12/341 203/16/341
f 84/12/342 113/1/342 205/18/342
f 114/1/343 208/18/343 205/18/343
f 115/6/344 211/19/344 208/18/344
f 86/6/345 215/19/345 211/19/345
f 86/6/346 85/13/346 107/20/346
f 85/13/347 110/3/347 109/21/347
f 110/3/348 83/2/348 198/17/348
f 198/17/349 203/16/349 93/22/349
f 88/23/350 93/22/350 92/24/350
f 89/25/351 92/24/351 91/26/351
f 199/27/352 91/26/352 90/28/352
f 200/29/353 90/28/353 202/30/353
f 201/31/354 202/30/354 54/8/354
f 203/16/355 205/18/355 97/32/355
f 93/22/356 97/32/356 204/33/356
f 92/24/357 204/33/357 96/34/357
f 91/26/358 96/34/358 95/35/358
f 90/28/359 95/35/359 94/36/359
f 202/30/360 94/36/360 56/7/360
f 208/18/361 100/32/361 97/32/361
f 100/32/362 207/33/362 204/33/362
f 207/33/363 99/34/363 96/34/363
f 99/34/364 206/35/364 95/35/364
f 206/35/365 98/36/365 94/36/365
f 98/36/366 57/7/366 56/7/366
f 211/19/367 103/37/367 100/32/367
f 103/37/368 102/38/368 207/33/368
f 102/38/369 210/39/369 99/34/369
f 210/39/370 101/40/370 206/35/370
f 101/40/371 209/41/371 98/36/371
f 209/41/372 87/14/372 57/7/372
f 215/19/373 105/37/373 103/37/373
f 105/37/374 104/38/374 102/38/374
f 104/38/375 214/39/375 210/39/375
f 214/39/376 213/40/376 101/40/376
f 213/40/377 212/41/377 209/41/377
f 212/41/378 197/14/378 87/14/378
f 215/19/379 107/20/379 219/42/379
f 105/37/380 219/42/380 218/43/380
f 104/38/381 218/43/381 217/44/381
f 213/40/382 216/45/382 106/46/382
f 212/41/383 106/46/383 82/15/383
f 107/20/384 109/21/384 223/47/384
f 216/45/385 220/50/385 108/51/385
f 106/46/386 108/51/386 196/5/386
f 109/21/387 198/17/387 88/23/387
f 223/47/388 88/23/388 89/25/388
f 222/48/389 89/25/389 199/27/389
f 220/50/390 200/29/390 201/31/390
f 108/51/391 201/31/391 53/9/391
f 111/2/392 112/12/392 229/16/392
f 112/12/393 226/1/393 232/18/393
f 116/1/394 236/18/394 232/18/394
f 10/6/395 135/19/395 236/18/395
f 225/6/396 137/19/396 135/19/396
f 225/6/397 224/13/397 244/20/397
f 224/13/398 5/3/398 144/21/398
f 5/3/399 111/2/399 117/17/399
f 117/17/400 229/16/400 125/22/400
f 227/23/401 125/22/401 124/24/401
f 118/25/402 124/24/402 123/26/402
f 119/27/403 123/26/403 228/28/403
f 120/29/404 228/28/404 122/30/404
f 121/31/405 122/30/405 84/8/405
f 229/16/406 232/18/406 231/32/406
f 125/22/407 231/32/407 128/33/407
f 124/24/408 128/33/408 230/34/408
f 123/26/409 230/34/409 127/35/409
f 228/28/410 127/35/410 126/36/410
f 122/30/411 126/36/411 113/7/411
f 235/32/412 234/33/412 128/33/412
f 234/33/413 130/34/413 230/34/413
f 130/34/414 129/35/414 127/35/414
f 129/35/415 233/36/415 126/36/415
f 233/36/416 114/7/416 113/7/416
f 135/19/417 237/37/417 235/32/417
f 237/37/418 134/38/418 234/33/418
f 134/38/419 133/39/419 130/34/419
f 133/39/420 132/40/420 129/35/420
f 132/40/421 131/41/421 233/36/421
f 131/41/422 115/14/422 114/7/422
f 137/19/423 241/37/423 237/37/423
f 241/37/424 240/38/424 134/38/424
f 240/38/425 136/39/425 133/39/425
f 136/39/426 239/40/426 132/40/426
f 239/40/427 238/41/427 131/41/427
f 238/41/428 86/14/428 115/14/428
f 137/19/429 244/20/429 140/42/429
f 241/37/430 140/42/430 243/43/430
f 240/38/431 243/43/431 242/44/431
f 136/39/432 242/44/432 139/45/432
f 239/40/433 139/45/433 138/46/433
f 238/41/434 138/46/434 85/15/434
f 244/20/435 144/21/435 246/47/435
f 140/42/436 246/47/436 245/48/436
f 243/43/437 245/48/437 143/49/437
f 242/44/438 143/49/438 142/50/438
f 139/45/439 142/50/439 141/51/439
f 138/46/440 141/51/440 110/5/440
f 144/21/441 117/17/441 227/23/441
f 246/47/442 227/23/442 118/25/442
f 245/48/443 118/25/443 119/27/443
f 143/49/444 119/27/444 120/29/444
f 142/50/445 120/29/445 121/31/445
f 141/51/446 121/31/446 83/9/446
f 183/33/447 182/34/447 177/34/447
f 182/34/448 181/35/448 176/35/448
f 214/39/449 217/44/449 216/45/449
f 219/42/450 223/47/450 222/48/450
f 218/43/451 222/48/451 221/49/451
f 217/44/452 221/49/452 220/50/452
f 221/49/453 199/27/453 200/29/453
f 236/18/454 235/32/454 231/32/454
