# Blender 4.2.1 LTS
# www.blender.org
mtllib water_slide_helix_down_v3.mtl
o Plane
v -3.000000 0.000000 0.000000
v -2.923880 0.382683 0.000000
v -2.707107 0.707107 0.000000
v -1.000000 0.000000 -0.000000
v -1.076121 -0.382683 0.000000
v -1.292893 -0.707107 0.000000
v -1.617316 -0.923879 0.000000
v -2.000000 -1.000000 0.000000
v -2.382683 -0.923879 0.000000
v -2.707107 -0.707107 0.000000
v -2.923879 -0.382683 0.000000
v -2.934443 -0.097516 0.623735
v -2.859986 0.285167 0.607909
v -2.647950 0.609590 0.562839
v -0.978148 -0.097516 0.207912
v -1.052605 -0.480200 0.223738
v -1.264640 -0.804623 0.268808
v -1.581974 -1.021396 0.336259
v -1.956295 -1.097516 0.415823
v -2.330616 -1.021396 0.495388
v -2.647950 -0.804623 0.562839
v -2.859986 -0.480200 0.607909
v -2.740637 -0.195033 1.220210
v -2.671097 0.187651 1.189249
v -2.473065 0.512074 1.101080
v -0.913546 -0.195033 0.406737
v -0.983085 -0.577716 0.437698
v -1.181117 -0.902140 0.525867
v -1.477492 -1.118912 0.657822
v -1.827091 -1.195033 0.813473
v -2.176690 -1.118912 0.969125
v -2.473065 -0.902140 1.101080
v -2.671097 -0.577716 1.189249
v -2.427051 -0.292549 1.763356
v -2.365469 0.090134 1.718614
v -2.190095 0.414557 1.591197
v -0.809017 -0.292549 0.587785
v -0.870600 -0.675233 0.632528
v -1.045973 -0.999656 0.759944
v -1.308437 -1.216429 0.950635
v -1.618034 -1.292549 1.175571
v -1.927631 -1.216429 1.400506
v -2.190095 -0.999656 1.591198
v -2.365468 -0.675233 1.718613
v -2.007392 -0.390066 2.229435
v -1.956458 -0.007382 2.172866
v -1.811408 0.317041 2.011773
v -0.669131 -0.390066 0.743145
v -0.720065 -0.772749 0.799714
v -0.865114 -1.097172 0.960807
v -1.082196 -1.313945 1.201900
v -1.338261 -1.390066 1.486290
v -1.594326 -1.313945 1.770679
v -1.811408 -1.097172 2.011773
v -1.956457 -0.772749 2.172866
v -1.500000 -0.487582 2.598077
v -1.461940 -0.104899 2.532155
v -1.353554 0.219525 2.344424
v -0.500000 -0.487582 0.866026
v -0.538060 -0.870265 0.931948
v -0.646447 -1.194689 1.119678
v -0.808658 -1.411462 1.400637
v -1.000000 -1.487582 1.732051
v -1.191342 -1.411462 2.063465
v -1.353553 -1.194689 2.344424
v -1.461940 -0.870266 2.532154
v -0.927051 -0.585099 2.853170
v -0.903529 -0.202415 2.780775
v -0.836542 0.122008 2.574612
v -0.309017 -0.585098 0.951057
v -0.332539 -0.967782 1.023452
v -0.399526 -1.292205 1.229615
v -0.499778 -1.508978 1.538160
v -0.618034 -1.585099 1.902113
v -0.736290 -1.508978 2.266067
v -0.836542 -1.292205 2.574612
v -0.903528 -0.967782 2.780775
v -0.313585 -0.682615 2.983566
v -0.305629 -0.299932 2.907863
v -0.282970 0.024492 2.692277
v -0.104529 -0.682615 0.994522
v -0.112485 -1.065298 1.070226
v -0.135144 -1.389722 1.285811
v -0.169056 -1.606494 1.608457
v -0.209057 -1.682615 1.989044
v -0.249058 -1.606495 2.369631
v -0.282970 -1.389722 2.692277
v -0.305628 -1.065298 2.907862
v 0.313586 -0.780131 2.983566
v 0.305629 -0.397448 2.907863
v 0.282970 -0.073024 2.692277
v 0.104528 -0.780131 0.994522
v 0.112485 -1.162814 1.070226
v 0.135144 -1.487238 1.285811
v 0.169056 -1.704011 1.608457
v 0.209057 -1.780131 1.989044
v 0.249059 -1.704011 2.369631
v 0.282970 -1.487238 2.692277
v 0.305629 -1.162815 2.907862
v 0.927051 -0.877648 2.853170
v 0.903529 -0.494964 2.780775
v 0.836542 -0.170541 2.574612
v 0.309017 -0.877647 0.951057
v 0.332540 -1.260331 1.023452
v 0.399526 -1.584754 1.229615
v 0.499779 -1.801527 1.538160
v 0.618035 -1.877648 1.902113
v 0.736290 -1.801527 2.266067
v 0.836542 -1.584754 2.574612
v 0.903529 -1.260331 2.780775
v 1.500000 -0.975164 2.598077
v 1.461940 -0.592481 2.532155
v 1.353554 -0.268057 2.344424
v 0.500000 -0.975164 0.866026
v 0.538061 -1.357847 0.931948
v 0.646447 -1.682271 1.119678
v 0.808659 -1.899044 1.400637
v 1.000001 -1.975164 1.732051
v 1.191342 -1.899044 2.063465
v 1.353554 -1.682271 2.344424
v 1.461940 -1.357848 2.532154
v 2.007392 -1.072680 2.229435
v 1.956458 -0.689997 2.172866
v 1.811409 -0.365573 2.011773
v 0.669131 -1.072680 0.743145
v 0.720066 -1.455364 0.799713
v 0.865115 -1.779787 0.960807
v 1.082196 -1.996560 1.201900
v 1.338262 -2.072680 1.486290
v 1.594327 -1.996560 1.770679
v 1.811409 -1.779787 2.011773
v 1.956458 -1.455364 2.172866
v 2.427052 -1.170197 1.763356
v 2.365469 -0.787513 1.718614
v 2.190096 -0.463090 1.591198
v 0.809017 -1.170197 0.587785
v 0.870600 -1.552880 0.632528
v 1.045973 -1.877304 0.759944
v 1.308437 -2.094076 0.950635
v 1.618035 -2.170197 1.175571
v 1.927632 -2.094077 1.400506
v 2.190096 -1.877304 1.591197
v 2.365469 -1.552880 1.718613
v 2.740637 -1.267713 1.220210
v 2.671098 -0.885029 1.189249
v 2.473066 -0.560606 1.101080
v 0.913546 -1.267713 0.406737
v 0.983086 -1.650397 0.437697
v 1.181117 -1.974820 0.525867
v 1.477493 -2.191593 0.657822
v 1.827092 -2.267713 0.813473
v 2.176691 -2.191593 0.969124
v 2.473066 -1.974820 1.101079
v 2.671098 -1.650397 1.189249
v 2.934444 -1.365229 0.623735
v 2.859987 -0.982546 0.607909
v 2.647951 -0.658122 0.562840
v 0.978148 -1.365229 0.207912
v 1.052605 -1.747913 0.223738
v 1.264641 -2.072336 0.268807
v 1.581975 -2.289109 0.336259
v 1.956296 -2.365229 0.415823
v 2.330617 -2.289109 0.495387
v 2.647951 -2.072336 0.562839
v 2.859987 -1.747913 0.607908
v 3.000001 -1.462745 -0.000000
v 2.923881 -1.080062 -0.000000
v 2.707108 -0.755639 0.000000
v 1.000000 -1.462746 -0.000000
v 1.076121 -1.845429 -0.000001
v 1.292894 -2.169853 -0.000000
v 1.617317 -2.386625 -0.000000
v 2.000001 -2.462746 -0.000001
v 2.382684 -2.386626 -0.000001
v 2.707108 -2.169852 -0.000001
v 2.923880 -1.845429 -0.000001
v 2.934444 -1.560262 -0.623736
v 2.859987 -1.177578 -0.607909
v 2.647951 -0.853155 -0.562839
v 0.978148 -1.560262 -0.207912
v 1.052605 -1.942946 -0.223739
v 1.264641 -2.267369 -0.268808
v 1.581975 -2.484142 -0.336260
v 1.956296 -2.560262 -0.415824
v 2.330617 -2.484142 -0.495389
v 2.647951 -2.267369 -0.562840
v 2.859987 -1.942946 -0.607909
v 2.740637 -1.657778 -1.220211
v 2.671098 -1.275095 -1.189250
v 2.473067 -0.950671 -1.101080
v 0.913546 -1.657779 -0.406737
v 0.983085 -2.040462 -0.437698
v 1.181117 -2.364885 -0.525868
v 1.477493 -2.581658 -0.657823
v 1.827092 -2.657778 -0.813474
v 2.176690 -2.581658 -0.969126
v 2.473066 -2.364885 -1.101081
v 2.671098 -2.040462 -1.189250
v 2.427052 -1.755294 -1.763357
v 2.365469 -1.372611 -1.718614
v 2.190097 -1.048188 -1.591198
v 0.809018 -1.755295 -0.587786
v 0.870600 -2.137979 -0.632529
v 1.045973 -2.462402 -0.759944
v 1.308437 -2.679174 -0.950636
v 1.618035 -2.755295 -1.175572
v 1.927632 -2.679174 -1.400507
v 2.190096 -2.462401 -1.591199
v 2.365469 -2.137978 -1.718614
v 2.007392 -1.852811 -2.229436
v 1.956458 -1.470127 -2.172867
v 1.811409 -1.145704 -2.011774
v 0.669131 -1.852811 -0.743145
v 0.720065 -2.235495 -0.799714
v 0.865115 -2.559918 -0.960808
v 1.082196 -2.776690 -1.201901
v 1.338262 -2.852811 -1.486291
v 1.594327 -2.776691 -1.770680
v 1.811409 -2.559918 -2.011774
v 1.956458 -2.235494 -2.172867
v 1.500000 -1.950327 -2.598078
v 1.461940 -1.567644 -2.532155
v 1.353554 -1.243220 -2.344425
v 0.500000 -1.950328 -0.866026
v 0.538060 -2.333011 -0.931949
v 0.646447 -2.657434 -1.119679
v 0.808659 -2.874207 -1.400638
v 1.000001 -2.950327 -1.732053
v 1.191342 -2.874207 -2.063466
v 1.353554 -2.657434 -2.344425
v 1.461940 -2.333011 -2.532155
v 0.927051 -2.047843 -2.853171
v 0.903529 -1.665160 -2.780776
v 0.836543 -1.340737 -2.574614
v 0.309017 -2.047844 -0.951057
v 0.332539 -2.430527 -1.023452
v 0.399526 -2.754951 -1.229616
v 0.499778 -2.971723 -1.538161
v 0.618034 -3.047843 -1.902115
v 0.736290 -2.971723 -2.266068
v 0.836542 -2.754950 -2.574614
v 0.903529 -2.430527 -2.780776
v 0.313585 -2.145360 -2.983567
v 0.305629 -1.762677 -2.907864
v 0.282970 -1.438253 -2.692279
v 0.104529 -2.145360 -0.994523
v 0.112485 -2.528044 -1.070226
v 0.135144 -2.852467 -1.285812
v 0.169056 -3.069239 -1.608458
v 0.209057 -3.145360 -1.989046
v 0.249058 -3.069240 -2.369632
v 0.282970 -2.852467 -2.692279
v 0.305629 -2.528043 -2.907864
v -0.313586 -2.242876 -2.983567
v -0.305629 -1.860193 -2.907864
v -0.282970 -1.535770 -2.692280
v -0.104528 -2.242877 -0.994523
v -0.112486 -2.625560 -1.070226
v -0.135144 -2.949983 -1.285812
v -0.169056 -3.166756 -1.608458
v -0.209057 -3.242876 -1.989046
v -0.249059 -3.166756 -2.369632
v -0.282970 -2.949983 -2.692279
v -0.305629 -2.625560 -2.907864
v -0.927052 -2.340392 -2.853171
v -0.903529 -1.957709 -2.780776
v -0.836543 -1.633286 -2.574614
v -0.309017 -2.340393 -0.951057
v -0.332540 -2.723076 -1.023452
v -0.399526 -3.047499 -1.229616
v -0.499779 -3.264272 -1.538161
v -0.618035 -3.340392 -1.902115
v -0.736290 -3.264272 -2.266068
v -0.836543 -3.047499 -2.574614
v -0.903529 -2.723076 -2.780777
v -1.500001 -2.437909 -2.598078
v -1.461941 -2.055226 -2.532156
v -1.353554 -1.730803 -2.344426
v -0.500000 -2.437909 -0.866026
v -0.538061 -2.820593 -0.931948
v -0.646447 -3.145016 -1.119679
v -0.808659 -3.361788 -1.400638
v -1.000001 -3.437909 -1.732053
v -1.191343 -3.361789 -2.063466
v -1.353555 -3.145015 -2.344425
v -1.461941 -2.820592 -2.532156
v -2.007393 -2.535425 -2.229436
v -1.956459 -2.152742 -2.172867
v -1.811410 -1.828319 -2.011775
v -0.669131 -2.535426 -0.743146
v -0.720066 -2.918109 -0.799714
v -0.865115 -3.242532 -0.960808
v -1.082197 -3.459305 -1.201901
v -1.338263 -3.535425 -1.486291
v -1.594327 -3.459305 -1.770680
v -1.811410 -3.242532 -2.011774
v -1.956458 -2.918108 -2.172868
v -2.427053 -2.632941 -1.763357
v -2.365470 -2.250258 -1.718614
v -2.190098 -1.925835 -1.591199
v -0.809018 -2.632942 -0.587786
v -0.870601 -3.015625 -0.632528
v -1.045973 -3.340048 -0.759944
v -1.308437 -3.556821 -0.950636
v -1.618036 -3.632941 -1.175572
v -1.927633 -3.556821 -1.400507
v -2.190098 -3.340048 -1.591199
v -2.365470 -3.015625 -1.718615
v -2.740638 -2.730458 -1.220211
v -2.671099 -2.347775 -1.189250
v -2.473068 -2.023352 -1.101081
v -0.913546 -2.730458 -0.406737
v -0.983086 -3.113142 -0.437698
v -1.181118 -3.437565 -0.525868
v -1.477493 -3.654337 -0.657822
v -1.827093 -3.730458 -0.813474
v -2.176691 -3.654337 -0.969125
v -2.473068 -3.437564 -1.101080
v -2.671099 -3.113141 -1.189250
v -2.934445 -2.827974 -0.623735
v -2.859988 -2.445291 -0.607909
v -2.647953 -2.120868 -0.562840
v -0.978148 -2.827975 -0.207912
v -1.052606 -3.210658 -0.223738
v -1.264641 -3.535081 -0.268808
v -1.581975 -3.751853 -0.336259
v -1.956297 -3.827974 -0.415824
v -2.330618 -3.751854 -0.495388
v -2.647953 -3.535081 -0.562840
v -2.859988 -3.210657 -0.607909
v -3.000002 -2.925490 0.000000
v -2.923882 -2.542807 0.000000
v -2.707110 -2.218385 -0.000000
v -1.000001 -2.925491 -0.000000
v -1.076121 -3.308174 0.000000
v -1.292894 -3.632597 -0.000000
v -1.617317 -3.849370 -0.000000
v -2.000002 -3.925490 -0.000000
v -2.382685 -3.849370 -0.000000
v -2.707110 -3.632597 0.000000
v -2.923882 -3.308174 -0.000000
v -2.934445 -3.023006 0.623736
v -2.859988 -2.640324 0.607909
v -2.647953 -2.315901 0.562840
v -0.978148 -3.023007 0.207912
v -1.052605 -3.405690 0.223738
v -1.264641 -3.730114 0.268808
v -1.581975 -3.946886 0.336259
v -1.956297 -4.023006 0.415824
v -2.330618 -3.946886 0.495388
v -2.647953 -3.730113 0.562840
v -2.859988 -3.405690 0.607909
v -2.740638 -3.120523 1.220211
v -2.671099 -2.737840 1.189250
v -2.473068 -2.413417 1.101081
v -0.913546 -3.120523 0.406737
v -0.983085 -3.503207 0.437698
v -1.181117 -3.827630 0.525867
v -1.477493 -4.044403 0.657822
v -1.827093 -4.120523 0.813474
v -2.176691 -4.044403 0.969125
v -2.473068 -3.827630 1.101081
v -2.671099 -3.503206 1.189250
v -2.427052 -3.218039 1.763357
v -2.365470 -2.835356 1.718615
v -2.190099 -2.510933 1.591199
v -0.809018 -3.218040 0.587785
v -0.870600 -3.600723 0.632528
v -1.045973 -3.925146 0.759944
v -1.308437 -4.141919 0.950635
v -1.618035 -4.218040 1.175572
v -1.927633 -4.141919 1.400507
v -2.190098 -3.925146 1.591200
v -2.365470 -3.600723 1.718615
v -2.007393 -3.315555 2.229436
v -1.956459 -2.932873 2.172868
v -1.811411 -2.608450 2.011775
v -0.669131 -3.315556 0.743145
v -0.720065 -3.698239 0.799714
v -0.865115 -4.022663 0.960807
v -1.082196 -4.239436 1.201901
v -1.338262 -4.315556 1.486291
v -1.594327 -4.239436 1.770680
v -1.811410 -4.022662 2.011775
v -1.956459 -3.698239 2.172868
v -1.500001 -3.413072 2.598078
v -1.461941 -3.030389 2.532156
v -1.353555 -2.705966 2.344426
v -0.500000 -3.413072 0.866026
v -0.538060 -3.795756 0.931948
v -0.646446 -4.120179 1.119679
v -0.808658 -4.336952 1.400638
v -1.000001 -4.413073 1.732053
v -1.191342 -4.336952 2.063466
v -1.353555 -4.120179 2.344426
v -1.461941 -3.795755 2.532156
v -0.927051 -3.510588 2.853172
v -0.903529 -3.127905 2.780777
v -0.836543 -2.803482 2.574615
v -0.309017 -3.510589 0.951057
v -0.332539 -3.893272 1.023452
v -0.399526 -4.217696 1.229615
v -0.499778 -4.434469 1.538160
v -0.618034 -4.510589 1.902115
v -0.736290 -4.434469 2.266068
v -0.836542 -4.217695 2.574615
v -0.903529 -3.893271 2.780777
v -0.313585 -3.608104 2.983568
v -0.305628 -3.225421 2.907865
v -0.282970 -2.900999 2.692281
v -0.104528 -3.608105 0.994523
v -0.112485 -3.990788 1.070226
v -0.135144 -4.315212 1.285811
v -0.169055 -4.531985 1.608457
v -0.209057 -4.608106 1.989046
v -0.249058 -4.531985 2.369633
v -0.282969 -4.315212 2.692280
v -0.305628 -3.990788 2.907865
v 0.313587 -3.705621 2.983568
v 0.305629 -3.322938 2.907865
v 0.282970 -2.998515 2.692281
v 0.104529 -3.705621 0.994523
v 0.112486 -4.088305 1.070226
v 0.135145 -4.412729 1.285811
v 0.169056 -4.629502 1.608457
v 0.209058 -4.705622 1.989046
v 0.249059 -4.629502 2.369633
v 0.282971 -4.412728 2.692280
v 0.305629 -4.088304 2.907865
v 0.927053 -3.803137 2.853172
v 0.903530 -3.420454 2.780777
v 0.836543 -3.096031 2.574615
v 0.309018 -3.803138 0.951057
v 0.332541 -4.185821 1.023452
v 0.399527 -4.510245 1.229615
v 0.499779 -4.727018 1.538160
v 0.618035 -4.803139 1.902115
v 0.736291 -4.727018 2.266068
v 0.836544 -4.510245 2.574615
v 0.903530 -4.185821 2.780777
v 1.500003 -3.900653 2.598078
v 1.461942 -3.517970 2.532156
v 1.353556 -3.193547 2.344427
v 0.500001 -3.900654 0.866026
v 0.538061 -4.283338 0.931948
v 0.646448 -4.607762 1.119679
v 0.808659 -4.824535 1.400638
v 1.000002 -4.900655 1.732052
v 1.191344 -4.824535 2.063466
v 1.353556 -4.607761 2.344426
v 1.461942 -4.283337 2.532156
v 2.007395 -3.998169 2.229436
v 1.956460 -3.615487 2.172868
v 1.811411 -3.291064 2.011775
v 0.669132 -3.998170 0.743145
v 0.720066 -4.380854 0.799713
v 0.865116 -4.705278 0.960807
v 1.082197 -4.922051 1.201901
v 1.338264 -4.998172 1.486291
v 1.594329 -4.922051 1.770680
v 1.811411 -4.705278 2.011774
v 1.956460 -4.380854 2.172867
v 2.427054 -4.095686 1.763357
v 2.365471 -3.713003 1.718614
v 2.190099 -3.388580 1.591200
v 0.809018 -4.095686 0.587785
v 0.870601 -4.478371 0.632527
v 1.045974 -4.802795 0.759943
v 1.308438 -5.019568 0.950635
v 1.618037 -5.095688 1.175571
v 1.927634 -5.019568 1.400507
v 2.190099 -4.802794 1.591199
v 2.365471 -4.478370 1.718614
v 2.740640 -4.193202 1.220210
v 2.671100 -3.810519 1.189249
v 2.473069 -3.486096 1.101081
v 0.913547 -4.193203 0.406737
v 0.983086 -4.575887 0.437697
v 1.181118 -4.900311 0.525867
v 1.477494 -5.117085 0.657822
v 1.827094 -5.193205 0.813473
v 2.176692 -5.117085 0.969125
v 2.473069 -4.900311 1.101080
v 2.671101 -4.575887 1.189249
v 2.934446 -4.290719 0.623735
v 2.859989 -3.908036 0.607908
v 2.647954 -3.583613 0.562840
v 0.978149 -4.290720 0.207911
v 1.052606 -4.673404 0.223737
v 1.264642 -4.997828 0.268807
v 1.581976 -5.214601 0.336258
v 1.956298 -5.290721 0.415823
v 2.330619 -5.214601 0.495387
v 2.647955 -4.997828 0.562839
v 2.859990 -4.673403 0.607908
v 3.000004 -4.388236 -0.000001
v 2.923883 -4.005552 -0.000001
v 2.707111 -3.681129 -0.000001
v 1.000002 -4.388236 -0.000001
v 1.076122 -4.770920 -0.000001
v 1.292895 -5.095345 -0.000001
v 1.617318 -5.312118 -0.000001
v 2.000003 -5.388238 -0.000001
v 2.382687 -5.312118 -0.000001
v 2.707112 -5.095344 -0.000001
v 2.923884 -4.770920 -0.000001
v -2.923879 -0.382683 -2.300000
v -2.707107 -0.707107 -2.300000
v -2.382683 -0.923879 -2.300000
v -2.000000 -1.000000 -2.300000
v -1.617316 -0.923879 -2.300000
v -1.292893 -0.707107 -2.300000
v -1.076121 -0.382683 -2.300000
v -1.000000 0.000000 -2.300000
v -2.707107 0.707107 -2.300000
v -2.923880 0.382683 -2.300000
v -3.000000 0.000000 -2.300000
v -2.850222 -0.001440 -0.008024
v -2.786187 0.324382 -0.011905
v -2.583071 0.623762 -0.012999
v -1.146617 0.029280 0.012088
v -1.214722 -0.328267 0.018127
v -1.397773 -0.602576 0.023949
v -1.672370 -0.786201 0.022665
v -1.997187 -0.851020 0.017239
v -2.322743 -0.786760 0.010268
v -2.599322 -0.602839 0.003280
v -2.784601 -0.327068 -0.002934
v -2.787721 -0.097516 0.592548
v -2.726255 0.228580 0.570306
v -2.528950 0.526604 0.524729
v -1.119964 -0.068375 0.247139
v -1.181378 -0.423173 0.275366
v -1.356811 -0.700920 0.325820
v -1.626542 -0.886754 0.385097
v -1.947184 -0.951429 0.448619
v -2.268115 -0.885738 0.509190
v -2.540230 -0.700339 0.558240
v -2.722522 -0.423613 0.587867
v -2.603605 -0.195033 1.159200
v -2.548107 0.131063 1.124664
v -2.364590 0.429088 1.039060
v -1.044107 -0.165891 0.474592
v -1.098310 -0.520689 0.514970
v -1.259419 -0.798437 0.600797
v -1.510932 -0.984270 0.714859
v -1.811361 -1.048946 0.843658
v -2.112685 -0.983254 0.969630
v -2.368655 -0.797856 1.074185
v -2.540804 -0.521129 1.141065
v -2.305699 -0.292549 1.675188
v -2.258594 0.033547 1.629869
v -2.096885 0.331571 1.507980
v -0.922618 -0.263407 0.681303
v -0.967241 -0.618206 0.732069
v -1.106985 -0.895953 0.849516
v -1.329287 -1.081787 1.013378
v -1.596372 -1.146462 1.201825
v -1.864920 -1.080771 1.387694
v -2.093559 -0.895372 1.543182
v -2.248040 -0.618645 1.644393
v -1.907022 -0.390066 2.117963
v -1.870369 -0.063970 2.063840
v -1.737536 0.234055 1.910994
v -0.760806 -0.360924 0.858238
v -0.793899 -0.715722 0.917172
v -0.906171 -0.993470 1.061107
v -1.089546 -1.179303 1.267608
v -1.311614 -1.243979 1.507467
v -1.535650 -1.178287 1.745108
v -1.726964 -0.992888 1.944735
v -1.857027 -0.716162 2.075853
v -1.425000 -0.487582 2.468173
v -1.400401 -0.161486 2.407612
v -1.302249 0.136538 2.230489
v -0.565743 -0.458440 0.997664
v -0.585860 -0.813238 1.062191
v -0.665752 -1.090986 1.226323
v -0.802187 -1.276819 1.466437
v -0.969532 -1.341495 1.747225
v -1.139264 -1.275803 2.026253
v -1.284892 -1.090405 2.261294
v -1.384852 -0.813678 2.416588
v -0.880698 -0.585099 2.710511
v -0.869228 -0.259002 2.646160
v -0.810047 0.039022 2.452500
v -0.345954 -0.555957 1.093487
v -0.352215 -0.910755 1.160786
v -0.396237 -1.188503 1.337943
v -0.479767 -1.374336 1.601176
v -0.585076 -1.439011 1.910621
v -0.693086 -1.373320 2.218841
v -0.786665 -1.187921 2.479024
v -0.852153 -0.911195 2.651707
v -0.297906 -0.682615 2.834388
v -0.300066 -0.356519 2.769058
v -0.282442 -0.058494 2.567325
v -0.111045 -0.653473 1.141520
v -0.103178 -1.008271 1.208650
v -0.109404 -1.286019 1.391088
v -0.136380 -1.471852 1.665936
v -0.175051 -1.536528 1.990514
v -0.216618 -1.470836 2.314455
v -0.254056 -1.285438 2.588408
v -0.282210 -1.008711 2.770934
v 0.297906 -0.780131 2.834388
v 0.282211 -0.454035 2.770934
v 0.257507 -0.156011 2.569946
v 0.128717 -0.750989 1.139662
v 0.150370 -1.105787 1.203690
v 0.182210 -1.383535 1.383436
v 0.212968 -1.569369 1.657886
v 0.242626 -1.634044 1.983412
v 0.269318 -1.568353 2.308916
v 0.289656 -1.382954 2.584666
v 0.300066 -1.106228 2.769057
v 0.880699 -0.877648 2.710511
v 0.852154 -0.551551 2.651708
v 0.786202 -0.253527 2.460248
v 0.362853 -0.848506 1.087996
v 0.397345 -1.203304 1.146123
v 0.465861 -1.481052 1.315321
v 0.553008 -1.666885 1.577379
v 0.649698 -1.731561 1.889624
v 0.743484 -1.665869 2.202466
v 0.820709 -1.480471 2.467962
v 0.869228 -1.203744 2.646159
v 1.425000 -0.975164 2.468173
v 1.384853 -0.649068 2.416589
v 1.280536 -0.351043 2.243026
v 0.581131 -0.946022 0.988779
v 0.626954 -1.300820 1.038465
v 0.729151 -1.578568 1.189720
v 0.868879 -1.764401 1.427932
v 1.028376 -1.829077 1.713252
v 1.185155 -1.763386 1.999758
v 1.315893 -1.577987 2.243397
v 1.400401 -1.301260 2.407612
v 1.907023 -1.072680 2.117963
v 1.857028 -0.746584 2.075853
v 1.718904 -0.448560 1.927772
v 0.774011 -1.043538 0.846348
v 0.829163 -1.398337 0.885421
v 0.960574 -1.676085 1.012123
v 1.146775 -1.861918 1.216079
v 1.362109 -1.926593 1.462002
v 1.575030 -1.860902 1.709651
v 1.753566 -1.675503 1.920784
v 1.870370 -1.398777 2.063840
v 2.305699 -1.170197 1.675188
v 2.248041 -0.844100 1.644393
v 2.082148 -0.546076 1.528265
v 0.933063 -1.141055 0.666928
v 0.995133 -1.495853 0.693679
v 1.150016 -1.773601 0.790291
v 1.374553 -1.959434 0.951076
v 1.636311 -2.024110 1.146855
v 1.896068 -1.958418 1.344824
v 2.114599 -1.773020 1.514223
v 2.258594 -1.496293 1.629868
v 2.603606 -1.267713 1.159199
v 2.540805 -0.941617 1.141065
v 2.354393 -0.643592 1.061966
v 1.051335 -1.238571 0.458359
v 1.117611 -1.593369 0.471621
v 1.289196 -1.871117 0.533919
v 1.542255 -2.056950 0.644507
v 1.838998 -2.121626 0.781586
v 2.134239 -2.055935 0.921221
v 2.383215 -1.870536 1.041484
v 2.548107 -1.593809 1.124664
v 2.787722 -1.365229 0.592548
v 2.722523 -1.039133 0.587867
v 2.523739 -0.741109 0.549254
v 1.123659 -1.336088 0.229758
v 1.191244 -1.690886 0.228950
v 1.372032 -1.968634 0.254213
v 1.642554 -2.154467 0.309771
v 1.961313 -2.219142 0.382157
v 2.279134 -2.153451 0.457357
v 2.547673 -1.968052 0.523226
v 2.726256 -1.691326 0.570306
v 2.850001 -1.462745 -0.000000
v 2.785254 -1.136649 0.008976
v 2.582785 -0.838625 0.012536
v 1.146874 -1.433604 -0.008885
v 1.212814 -1.788402 -0.023726
v 1.394903 -2.066150 -0.036604
v 1.671065 -2.251983 -0.038505
v 1.997908 -2.316658 -0.033974
v 2.324419 -2.250967 -0.026496
v 2.600785 -2.065568 -0.017898
v 2.785254 -1.788842 -0.008977
v 2.787722 -1.560262 -0.592549
v 2.726256 -1.234166 -0.570307
v 2.528952 -0.936141 -0.524729
v 1.119965 -1.531120 -0.247139
v 1.181378 -1.885919 -0.275366
v 1.356811 -2.163666 -0.325821
v 1.626543 -2.349499 -0.385098
v 1.947186 -2.414175 -0.448620
v 2.268116 -2.348484 -0.509190
v 2.540231 -2.163085 -0.558241
v 2.722523 -1.886358 -0.587868
v 2.603606 -1.657778 -1.159200
v 2.548107 -1.331682 -1.124665
v 2.364591 -1.033657 -1.039061
v 1.044108 -1.628637 -0.474592
v 1.098311 -1.983435 -0.514971
v 1.259420 -2.261183 -0.600797
v 1.510933 -2.447016 -0.714860
v 1.811362 -2.511691 -0.843659
v 2.112686 -2.446000 -0.969631
v 2.368656 -2.260601 -1.074186
v 2.540805 -1.983875 -1.141066
v 2.305699 -1.755294 -1.675189
v 2.258594 -1.429198 -1.629869
v 2.096886 -1.131174 -1.507981
v 0.922618 -1.726153 -0.681304
v 0.967241 -2.080951 -0.732069
v 1.106986 -2.358699 -0.849517
v 1.329288 -2.544532 -1.013379
v 1.596373 -2.609208 -1.201827
v 1.864921 -2.543516 -1.387695
v 2.093560 -2.358117 -1.543184
v 2.248041 -2.081391 -1.644394
v 1.907023 -1.852811 -2.117964
v 1.870370 -1.526715 -2.063841
v 1.737537 -1.228690 -1.910995
v 0.760806 -1.823670 -0.858239
v 0.793899 -2.178468 -0.917173
v 0.906171 -2.456215 -1.061108
v 1.089547 -2.642048 -1.267609
v 1.311614 -2.706724 -1.507469
v 1.535650 -2.641032 -1.745109
v 1.726964 -2.455634 -1.944737
v 1.857028 -2.178907 -2.075854
v 1.425000 -1.950327 -2.468174
v 1.400401 -1.624231 -2.407613
v 1.302250 -1.326206 -2.230490
v 0.565743 -1.921186 -0.997665
v 0.585860 -2.275984 -1.062191
v 0.665752 -2.553731 -1.226324
v 0.802187 -2.739564 -1.466438
v 0.969532 -2.804240 -1.747227
v 1.139264 -2.738549 -2.026254
v 1.284893 -2.553150 -2.261296
v 1.384853 -2.276423 -2.416589
v 0.880698 -2.047843 -2.710513
v 0.869228 -1.721747 -2.646160
v 0.810048 -1.423723 -2.452502
v 0.345954 -2.018702 -1.093488
v 0.352215 -2.373500 -1.160787
v 0.396237 -2.651248 -1.337944
v 0.479768 -2.837081 -1.601177
v 0.585077 -2.901757 -1.910623
v 0.693087 -2.836065 -2.218842
v 0.786665 -2.650666 -2.479026
v 0.852154 -2.373940 -2.651708
v 0.297906 -2.145360 -2.834389
v 0.300066 -1.819264 -2.769058
v 0.282442 -1.521239 -2.567327
v 0.111045 -2.116219 -1.141520
v 0.103177 -2.471017 -1.208651
v 0.109404 -2.748764 -1.391089
v 0.136380 -2.934597 -1.665936
v 0.175051 -2.999273 -1.990515
v 0.216618 -2.933581 -2.314456
v 0.254056 -2.748183 -2.588410
v 0.282211 -2.471456 -2.770935
v -0.297907 -2.242876 -2.834389
v -0.282211 -1.916780 -2.770935
v -0.257507 -1.618756 -2.569948
v -0.128717 -2.213735 -1.139663
v -0.150370 -2.568533 -1.203691
v -0.182210 -2.846280 -1.383436
v -0.212968 -3.032113 -1.657887
v -0.242626 -3.096789 -1.983413
v -0.269318 -3.031098 -2.308917
v -0.289656 -2.845699 -2.584668
v -0.300066 -2.568972 -2.769059
v -0.880699 -2.340392 -2.710513
v -0.852154 -2.014297 -2.651709
v -0.786202 -1.716272 -2.460250
v -0.362853 -2.311251 -1.087997
v -0.397345 -2.666049 -1.146123
v -0.465861 -2.943797 -1.315322
v -0.553008 -3.129630 -1.577380
v -0.649699 -3.194305 -1.889626
v -0.743484 -3.128614 -2.202467
v -0.820709 -2.943215 -2.467964
v -0.869228 -2.666489 -2.646161
v -1.425001 -2.437909 -2.468174
v -1.384853 -2.111813 -2.416590
v -1.280536 -1.813789 -2.243027
v -0.581131 -2.408767 -0.988780
v -0.626955 -2.763566 -1.038465
v -0.729151 -3.041313 -1.189721
v -0.868879 -3.227146 -1.427933
v -1.028376 -3.291821 -1.713253
v -1.185155 -3.226130 -1.999759
v -1.315893 -3.040731 -2.243398
v -1.400401 -2.764005 -2.407613
v -1.907024 -2.535425 -2.117964
v -1.857028 -2.209329 -2.075854
v -1.718905 -1.911305 -1.927773
v -0.774011 -2.506284 -0.846349
v -0.829163 -2.861082 -0.885421
v -0.960574 -3.138829 -1.012123
v -1.146776 -3.324662 -1.216079
v -1.362109 -3.389338 -1.462003
v -1.575030 -3.323647 -1.709652
v -1.753567 -3.138248 -1.920785
v -1.870370 -2.861521 -2.063841
v -2.305701 -2.632941 -1.675189
v -2.248042 -2.306846 -1.644394
v -2.082150 -2.008821 -1.528266
v -0.933063 -2.603800 -0.666928
v -0.995133 -2.958598 -0.693680
v -1.150016 -3.236346 -0.790291
v -1.374553 -3.422179 -0.951077
v -1.636311 -3.486854 -1.146856
v -1.896068 -3.421163 -1.344825
v -2.114601 -3.235764 -1.514224
v -2.258595 -2.959038 -1.629870
v -2.603607 -2.730458 -1.159200
v -2.540806 -2.404362 -1.141066
v -2.354394 -2.106338 -1.061967
v -1.051335 -2.701316 -0.458360
v -1.117611 -3.056114 -0.471621
v -1.289196 -3.333862 -0.533920
v -1.542256 -3.519695 -0.644508
v -1.838999 -3.584371 -0.781587
v -2.134240 -3.518679 -0.921222
v -2.383217 -3.333280 -1.041485
v -2.548108 -3.056554 -1.124665
v -2.787723 -2.827974 -0.592549
v -2.722524 -2.501878 -0.587867
v -2.523741 -2.203854 -0.549254
v -1.123660 -2.798833 -0.229758
v -1.191244 -3.153631 -0.228951
v -1.372032 -3.431378 -0.254214
v -1.642554 -3.617211 -0.309771
v -1.961313 -3.681887 -0.382158
v -2.279134 -3.616195 -0.457358
v -2.547675 -3.430797 -0.523227
v -2.726257 -3.154070 -0.570307
v -2.850002 -2.925490 0.000000
v -2.785255 -2.599395 -0.008976
v -2.582787 -2.301370 -0.012536
v -1.146874 -2.896349 0.008884
v -1.212814 -3.251147 0.023726
v -1.394904 -3.528894 0.036603
v -1.671066 -3.714727 0.038504
v -1.997909 -3.779403 0.033973
v -2.324420 -3.713712 0.026495
v -2.600787 -3.528313 0.017898
v -2.785255 -3.251586 0.008976
v -2.787723 -3.023006 0.592549
v -2.726257 -2.696911 0.570307
v -2.528954 -2.398887 0.524729
v -1.119965 -2.993865 0.247139
v -1.181378 -3.348663 0.275366
v -1.356811 -3.626411 0.325820
v -1.626543 -3.812244 0.385097
v -1.947186 -3.876920 0.448620
v -2.268117 -3.811228 0.509190
v -2.540233 -3.625829 0.558241
v -2.722524 -3.349103 0.587867
v -2.603606 -3.120523 1.159201
v -2.548108 -2.794427 1.124665
v -2.364593 -2.496403 1.039062
v -1.044108 -3.091382 0.474592
v -1.098311 -3.446180 0.514971
v -1.259420 -3.723927 0.600797
v -1.510933 -3.909760 0.714859
v -1.811362 -3.974436 0.843659
v -2.112687 -3.908744 0.969631
v -2.368658 -3.723346 1.074186
v -2.540806 -3.446619 1.141066
v -2.305700 -3.218039 1.675189
v -2.258595 -2.891943 1.629870
v -2.096888 -2.593919 1.507982
v -0.922619 -3.188898 0.681303
v -0.967241 -3.543696 0.732069
v -1.106985 -3.821444 0.849516
v -1.329288 -4.007277 1.013378
v -1.596373 -4.071952 1.201826
v -1.864922 -4.006261 1.387695
v -2.093561 -3.820862 1.543184
v -2.248043 -3.544136 1.644394
v -1.907023 -3.315555 2.117965
v -1.870371 -2.989460 2.063842
v -1.737539 -2.691436 1.910997
v -0.760806 -3.286414 0.858238
v -0.793899 -3.641212 0.917172
v -0.906171 -3.918960 1.061108
v -1.089546 -4.104794 1.267608
v -1.311615 -4.169469 1.507468
v -1.535651 -4.103777 1.745109
v -1.726966 -3.918378 1.944738
v -1.857029 -3.641652 2.075855
v -1.425001 -3.413072 2.468175
v -1.400401 -3.086976 2.407614
v -1.302251 -2.788952 2.230491
v -0.565743 -3.383931 0.997664
v -0.585859 -3.738729 1.062191
v -0.665752 -4.016477 1.226323
v -0.802187 -4.202310 1.466437
v -0.969532 -4.266985 1.747227
v -1.139264 -4.201294 2.026254
v -1.284893 -4.015895 2.261297
v -1.384854 -3.739168 2.416590
v -0.880698 -3.510588 2.710514
v -0.869228 -3.184492 2.646162
v -0.810048 -2.886468 2.452503
v -0.345954 -3.481447 1.093488
v -0.352215 -3.836245 1.160787
v -0.396237 -4.113993 1.337943
v -0.479767 -4.299827 1.601176
v -0.585077 -4.364502 1.910623
v -0.693087 -4.298810 2.218842
v -0.786665 -4.113411 2.479027
v -0.852154 -3.836684 2.651709
v -0.297906 -3.608104 2.834390
v -0.300065 -3.282009 2.769060
v -0.282442 -2.983984 2.567328
v -0.111045 -3.578963 1.141520
v -0.103177 -3.933761 1.208650
v -0.109404 -4.211510 1.391088
v -0.136380 -4.397343 1.665936
v -0.175050 -4.462018 1.990515
v -0.216618 -4.396327 2.314456
v -0.254056 -4.210928 2.588411
v -0.282211 -3.934201 2.770936
v 0.297907 -3.705621 2.834390
v 0.282212 -3.379525 2.770936
v 0.257507 -3.081501 2.569949
v 0.128717 -3.676480 1.139663
v 0.150370 -4.031278 1.203690
v 0.182211 -4.309026 1.383436
v 0.212968 -4.494860 1.657886
v 0.242626 -4.559535 1.983413
v 0.269319 -4.493844 2.308917
v 0.289657 -4.308444 2.584669
v 0.300066 -4.031717 2.769059
v 0.880700 -3.803137 2.710513
v 0.852155 -3.477041 2.651710
v 0.786203 -3.179017 2.460251
v 0.362854 -3.773996 1.087997
v 0.397346 -4.128794 1.146123
v 0.465862 -4.406543 1.315321
v 0.553008 -4.592376 1.577379
v 0.649699 -4.657052 1.889626
v 0.743484 -4.591360 2.202467
v 0.820710 -4.405961 2.467965
v 0.869229 -4.129233 2.646161
v 1.425002 -3.900653 2.468174
v 1.384855 -3.574558 2.416590
v 1.280538 -3.276533 2.243028
v 0.581132 -3.871512 0.988780
v 0.626955 -4.226311 1.038464
v 0.729152 -4.504059 1.189720
v 0.868879 -4.689893 1.427933
v 1.028377 -4.754568 1.713253
v 1.185156 -4.688877 1.999759
v 1.315894 -4.503478 2.243399
v 1.400402 -4.226750 2.407613
v 1.907025 -3.998169 2.117964
v 1.857030 -3.672074 2.075854
v 1.718907 -3.374050 1.927774
v 0.774012 -3.969028 0.846348
v 0.829164 -4.323827 0.885420
v 0.960575 -4.601576 1.012123
v 1.146776 -4.787409 1.216079
v 1.362110 -4.852085 1.462003
v 1.575031 -4.786393 1.709651
v 1.753568 -4.600994 1.920785
v 1.870371 -4.324266 2.063841
v 2.305701 -4.095686 1.675189
v 2.248044 -3.769590 1.644394
v 2.082151 -3.471566 1.528266
v 0.933064 -4.066545 0.666928
v 0.995134 -4.421344 0.693679
v 1.150017 -4.699092 0.790290
v 1.374554 -4.884926 0.951076
v 1.636312 -4.949601 1.146856
v 1.896070 -4.883910 1.344824
v 2.114602 -4.698511 1.514224
v 2.258596 -4.421783 1.629869
v 2.603608 -4.193202 1.159200
v 2.540808 -3.867106 1.141065
v 2.354396 -3.569082 1.061967
v 1.051336 -4.164062 0.458359
v 1.117612 -4.518860 0.471620
v 1.289197 -4.796609 0.533919
v 1.542256 -4.982442 0.644507
v 1.839000 -5.047118 0.781586
v 2.134241 -4.981426 0.921222
v 2.383218 -4.796027 1.041484
v 2.548110 -4.519300 1.124664
v 2.787724 -4.290719 0.592548
v 2.722526 -3.964623 0.587867
v 2.523742 -3.666599 0.549254
v 1.123660 -4.261578 0.229758
v 1.191245 -4.616377 0.228950
v 1.372033 -4.894125 0.254212
v 1.642555 -5.079959 0.309770
v 1.961314 -5.144634 0.382156
v 2.279136 -5.078943 0.457357
v 2.547676 -4.893544 0.523226
v 2.726259 -4.616817 0.570306
v 2.850901 -4.385341 -0.016131
v 2.783983 -4.059341 -0.005881
v 2.581951 -3.763801 0.000617
v 1.147153 -4.359237 0.002363
v 1.211736 -4.707831 -0.011339
v 1.395232 -4.988807 -0.026015
v 1.673277 -5.176811 -0.032571
v 2.001528 -5.242190 -0.034175
v 2.328619 -5.176124 -0.032901
v 2.604678 -4.989809 -0.029494
v 2.788002 -4.712084 -0.023971
v -2.820470 -0.339850 -2.200141
v -2.627960 -0.627960 -2.200141
v -2.339849 -0.820470 -2.200142
v -2.000000 -0.888070 -2.200142
v -1.660150 -0.820470 -2.200142
v -1.372040 -0.627960 -2.200142
v -1.179530 -0.339850 -2.200142
v -1.097740 0.019442 -2.187889
v -2.624247 0.651741 -2.187889
v -2.820470 0.339850 -2.200142
v -2.888070 0.000000 -2.200141
vn -0.8344 -0.5511 -0.0041
vn -0.9720 0.1940 0.1329
vn -0.9784 -0.1940 0.0721
vn 0.9628 -0.1933 -0.1886
vn -0.8153 0.5511 0.1775
vn 0.7871 -0.5408 -0.2968
vn 0.5091 -0.8021 -0.3121
vn 0.1635 -0.9507 -0.2637
vn -0.2123 -0.9599 -0.1831
vn -0.5640 -0.8206 -0.0920
vn -0.2457 -0.9599 -0.1350
vn -0.5708 -0.8206 0.0273
vn -0.8170 -0.5511 0.1695
vn -0.9231 0.1940 0.3321
vn -0.9420 -0.1940 0.2739
vn 0.9026 -0.1933 -0.3846
vn -0.7606 0.5511 0.3431
vn 0.7081 -0.5408 -0.4540
vn 0.4331 -0.8021 -0.4111
vn 0.1051 -0.9507 -0.2919
vn -0.7639 -0.5511 0.3356
vn -0.8339 0.1940 0.5167
vn -0.8644 -0.1940 0.4638
vn 0.8029 -0.1933 -0.5639
vn -0.6726 0.5511 0.4938
vn 0.5983 -0.5408 -0.5913
vn 0.3382 -0.8021 -0.4922
vn 0.0421 -0.9507 -0.3074
vn -0.2684 -0.9599 -0.0810
vn -0.5527 -0.8206 0.1454
vn 0.6681 -0.1933 -0.7185
vn -0.5553 0.5511 0.6228
vn 0.4623 -0.5408 -0.7028
vn 0.2284 -0.8021 -0.5517
vn -0.0228 -0.9507 -0.3094
vn -0.2794 -0.9599 -0.0234
vn -0.5104 -0.8206 0.2571
vn -0.6775 -0.5511 0.4871
vn -0.7082 0.1940 0.6788
vn -0.7491 -0.1940 0.6334
vn 0.1087 -0.8021 -0.5871
vn -0.0866 -0.9507 -0.2979
vn -0.2782 -0.9599 0.0352
vn -0.4458 -0.8206 0.3576
vn -0.5614 -0.5511 0.6173
vn -0.5516 0.1940 0.8112
vn -0.6011 -0.1940 0.7753
vn 0.5041 -0.1933 -0.8417
vn -0.4136 0.5511 0.7247
vn 0.3060 -0.5408 -0.7835
vn -0.2647 -0.9599 0.0923
vn -0.3617 -0.8206 0.4425
vn -0.4208 -0.5511 0.7206
vn -0.3709 0.1940 0.9082
vn -0.4267 -0.1940 0.8833
vn 0.3181 -0.1933 -0.9281
vn -0.2539 0.5511 0.7948
vn 0.1364 -0.5408 -0.8300
vn -0.0157 -0.8021 -0.5969
vn -0.1466 -0.9507 -0.2734
vn -0.2618 -0.5511 0.7923
vn -0.1740 0.1940 0.9655
vn -0.2337 -0.1940 0.9528
vn 0.1182 -0.1933 -0.9740
vn -0.0831 0.5511 0.8303
vn -0.0391 -0.5408 -0.8403
vn -0.1395 -0.8021 -0.5806
vn -0.2003 -0.9507 -0.2370
vn -0.2398 -0.9599 0.1453
vn -0.2618 -0.8206 0.5080
vn 0.0913 0.5511 0.8294
vn -0.2130 -0.5408 -0.8138
vn -0.2571 -0.8021 -0.5389
vn -0.2452 -0.9507 -0.1901
vn -0.2043 -0.9599 0.1920
vn -0.1504 -0.8206 0.5513
vn -0.0913 -0.5511 0.8294
vn 0.0305 0.1940 0.9805
vn -0.0305 -0.1940 0.9805
vn -0.0869 -0.1933 -0.9773
vn -0.2793 -0.9507 -0.1350
vn -0.1599 -0.9599 0.2303
vn -0.0325 -0.8206 0.5706
vn 0.0831 -0.5511 0.8303
vn 0.2337 0.1940 0.9528
vn 0.1740 -0.1940 0.9655
vn -0.2882 -0.1933 -0.9379
vn 0.2618 0.5511 0.7923
vn -0.3775 -0.5408 -0.7517
vn -0.3636 -0.8021 -0.4737
vn 0.0868 -0.8206 0.5648
vn 0.2539 -0.5511 0.7948
vn 0.4267 0.1940 0.8833
vn 0.3709 -0.1940 0.9082
vn -0.4769 -0.1933 -0.8575
vn 0.4208 0.5511 0.7206
vn -0.5255 -0.5408 -0.6568
vn -0.4541 -0.8021 -0.3877
vn -0.3013 -0.9507 -0.0740
vn -0.1086 -0.9599 0.2585
vn 0.6011 0.1940 0.7753
vn 0.5516 -0.1940 0.8112
vn -0.6447 -0.1933 -0.7396
vn 0.5614 0.5511 0.6173
vn -0.6506 -0.5408 -0.5332
vn -0.5248 -0.8021 -0.2849
vn -0.3101 -0.9507 -0.0097
vn -0.0525 -0.9599 0.2754
vn 0.2024 -0.8206 0.5344
vn 0.4136 -0.5511 0.7247
vn -0.7472 -0.5408 -0.3863
vn -0.5726 -0.8021 -0.1695
vn -0.3054 -0.9507 0.0550
vn 0.0060 -0.9599 0.2803
vn 0.3091 -0.8206 0.4807
vn 0.5553 -0.5511 0.6228
vn 0.7491 0.1940 0.6334
vn 0.7082 -0.1940 0.6788
vn -0.7844 -0.1933 -0.5894
vn 0.6775 0.5511 0.4871
vn -0.2873 -0.9507 0.1173
vn 0.0641 -0.9599 0.2729
vn 0.4023 -0.8206 0.4059
vn 0.6726 -0.5511 0.4938
vn 0.8644 0.1940 0.4638
vn 0.8339 -0.1940 0.5167
vn -0.8898 -0.1933 -0.4134
vn 0.7639 0.5511 0.3356
vn -0.8112 -0.5408 -0.2225
vn -0.5953 -0.8021 -0.0468
vn 0.4779 -0.8206 0.3134
vn 0.7606 -0.5511 0.3431
vn 0.9420 0.1940 0.2739
vn 0.9231 -0.1940 0.3321
vn -0.9563 -0.1933 -0.2194
vn 0.8170 0.5511 0.1695
vn -0.8397 -0.5408 -0.0489
vn -0.5920 -0.8021 0.0780
vn -0.2566 -0.9507 0.1744
vn 0.1194 -0.9599 0.2537
vn 0.9720 -0.1940 0.1329
vn -0.9810 -0.1933 -0.0158
vn 0.8344 0.5511 -0.0041
vn -0.8316 -0.5408 0.1267
vn -0.5629 -0.8021 0.1994
vn -0.2147 -0.9507 0.2240
vn 0.1696 -0.9599 0.2233
vn 0.5326 -0.8206 0.2072
vn 0.8153 -0.5511 0.1775
vn 0.9784 0.1940 0.0721
vn -0.5091 -0.8021 0.3121
vn -0.1635 -0.9507 0.2637
vn 0.2123 -0.9599 0.1831
vn 0.5640 -0.8206 0.0920
vn 0.8344 -0.5511 0.0041
vn 0.9720 0.1940 -0.1329
vn 0.9784 -0.1940 -0.0721
vn -0.9628 -0.1933 0.1886
vn 0.8153 0.5511 -0.1775
vn -0.7871 -0.5408 0.2968
vn 0.2457 -0.9599 0.1350
vn 0.5708 -0.8206 -0.0273
vn 0.8170 -0.5511 -0.1695
vn 0.9231 0.1940 -0.3321
vn 0.9420 -0.1940 -0.2739
vn -0.9026 -0.1933 0.3846
vn 0.7606 0.5511 -0.3431
vn -0.7081 -0.5408 0.4540
vn -0.4331 -0.8021 0.4111
vn -0.1051 -0.9507 0.2919
vn 0.7639 -0.5511 -0.3356
vn 0.8339 0.1940 -0.5167
vn 0.8644 -0.1940 -0.4638
vn -0.8029 -0.1933 0.5639
vn 0.6726 0.5511 -0.4938
vn -0.5983 -0.5408 0.5913
vn -0.3382 -0.8021 0.4922
vn -0.0421 -0.9507 0.3074
vn 0.2684 -0.9599 0.0810
vn 0.5527 -0.8206 -0.1454
vn 0.5553 0.5511 -0.6228
vn -0.4623 -0.5408 0.7028
vn -0.2284 -0.8021 0.5517
vn 0.0228 -0.9507 0.3094
vn 0.2794 -0.9599 0.0234
vn 0.5104 -0.8206 -0.2571
vn 0.6775 -0.5511 -0.4871
vn 0.7082 0.1940 -0.6788
vn 0.7491 -0.1940 -0.6334
vn -0.6681 -0.1933 0.7185
vn 0.0866 -0.9507 0.2979
vn 0.2782 -0.9599 -0.0352
vn 0.4458 -0.8206 -0.3576
vn 0.5614 -0.5511 -0.6173
vn 0.5516 0.1940 -0.8112
vn 0.6011 -0.1940 -0.7753
vn -0.5041 -0.1933 0.8417
vn 0.4136 0.5511 -0.7247
vn -0.3060 -0.5408 0.7835
vn -0.1087 -0.8021 0.5871
vn 0.3617 -0.8206 -0.4425
vn 0.4208 -0.5511 -0.7206
vn 0.3709 0.1940 -0.9082
vn 0.4267 -0.1940 -0.8833
vn -0.3181 -0.1933 0.9281
vn 0.2539 0.5511 -0.7948
vn -0.1364 -0.5408 0.8300
vn 0.0157 -0.8021 0.5969
vn 0.1466 -0.9507 0.2734
vn 0.2647 -0.9599 -0.0923
vn 0.1740 0.1940 -0.9655
vn 0.2337 -0.1940 -0.9528
vn -0.1182 -0.1933 0.9740
vn 0.0831 0.5511 -0.8303
vn 0.0391 -0.5408 0.8403
vn 0.1395 -0.8021 0.5806
vn 0.2003 -0.9507 0.2370
vn 0.2398 -0.9599 -0.1453
vn 0.2618 -0.8206 -0.5080
vn 0.2618 -0.5511 -0.7923
vn 0.2130 -0.5408 0.8138
vn 0.2571 -0.8021 0.5389
vn 0.2452 -0.9507 0.1901
vn 0.2043 -0.9599 -0.1920
vn 0.1504 -0.8206 -0.5513
vn 0.0913 -0.5511 -0.8294
vn -0.0305 0.1940 -0.9805
vn 0.0305 -0.1940 -0.9805
vn 0.0869 -0.1933 0.9773
vn -0.0913 0.5511 -0.8294
vn 0.2793 -0.9507 0.1350
vn 0.1599 -0.9599 -0.2303
vn 0.0325 -0.8206 -0.5706
vn -0.0831 -0.5511 -0.8303
vn -0.2337 0.1940 -0.9528
vn -0.1740 -0.1940 -0.9655
vn 0.2882 -0.1933 0.9379
vn -0.2618 0.5511 -0.7923
vn 0.3775 -0.5408 0.7517
vn 0.3636 -0.8021 0.4737
vn -0.0868 -0.8206 -0.5648
vn -0.2539 -0.5511 -0.7948
vn -0.4267 0.1940 -0.8833
vn -0.3709 -0.1940 -0.9082
vn 0.4769 -0.1933 0.8575
vn -0.4208 0.5511 -0.7206
vn 0.5255 -0.5408 0.6568
vn 0.4541 -0.8021 0.3877
vn 0.3013 -0.9507 0.0740
vn 0.1086 -0.9599 -0.2585
vn -0.6011 0.1940 -0.7753
vn -0.5516 -0.1940 -0.8112
vn 0.6447 -0.1933 0.7396
vn -0.5614 0.5511 -0.6173
vn 0.6506 -0.5408 0.5332
vn 0.5248 -0.8021 0.2849
vn 0.3101 -0.9507 0.0097
vn 0.0525 -0.9599 -0.2754
vn -0.2024 -0.8206 -0.5344
vn -0.4136 -0.5511 -0.7247
vn 0.5726 -0.8021 0.1695
vn 0.3054 -0.9507 -0.0550
vn -0.0060 -0.9599 -0.2803
vn -0.3091 -0.8206 -0.4807
vn -0.5553 -0.5511 -0.6228
vn -0.7491 0.1940 -0.6334
vn -0.7082 -0.1940 -0.6788
vn 0.7844 -0.1933 0.5894
vn -0.6775 0.5511 -0.4871
vn 0.7472 -0.5408 0.3863
vn -0.0641 -0.9599 -0.2729
vn -0.4023 -0.8206 -0.4059
vn -0.6726 -0.5511 -0.4938
vn -0.8644 0.1940 -0.4638
vn -0.8339 -0.1940 -0.5167
vn 0.8898 -0.1933 0.4134
vn -0.7639 0.5511 -0.3356
vn 0.8112 -0.5408 0.2225
vn 0.5953 -0.8021 0.0468
vn 0.2873 -0.9507 -0.1173
vn -0.7606 -0.5511 -0.3431
vn -0.9420 0.1940 -0.2739
vn -0.9231 -0.1940 -0.3321
vn 0.9563 -0.1933 0.2194
vn -0.8170 0.5511 -0.1695
vn 0.8397 -0.5408 0.0489
vn 0.5920 -0.8021 -0.0780
vn 0.2566 -0.9507 -0.1744
vn -0.1194 -0.9599 -0.2537
vn -0.4779 -0.8206 -0.3134
vn 0.9810 -0.1933 0.0158
vn -0.8344 0.5511 0.0041
vn 0.8316 -0.5408 -0.1267
vn 0.5629 -0.8021 -0.1994
vn 0.2147 -0.9507 -0.2240
vn -0.1696 -0.9599 -0.2233
vn -0.5326 -0.8206 -0.2072
vn -0.8153 -0.5511 -0.1775
vn -0.9784 0.1940 -0.0721
vn -0.9720 -0.1940 -0.1329
vn -0.2648 -0.9599 0.0923
vn -0.5556 -0.8315 -0.0000
vn -0.1951 -0.9808 -0.0000
vn 0.1951 -0.9808 -0.0000
vn 0.5556 -0.8315 -0.0000
vn 0.8315 -0.5556 -0.0000
vn -0.8315 0.5556 -0.0000
vn 0.9808 -0.1951 -0.0000
vn -0.9808 -0.1951 -0.0000
vn -0.9808 0.1951 -0.0000
vn -0.8315 -0.5556 -0.0000
vn -0.0000 -0.0000 -1.0000
vn 0.8327 0.5537 0.0057
vn 0.9724 -0.1925 -0.1319
vn 0.9780 0.1963 -0.0705
vn -0.9644 0.1845 0.1897
vn 0.8108 -0.5574 -0.1786
vn -0.7883 0.5416 0.2920
vn -0.5118 0.8023 0.3071
vn -0.1673 0.9508 0.2609
vn 0.2083 0.9609 0.1825
vn 0.5609 0.8227 0.0929
vn 0.2435 0.9603 0.1360
vn 0.5693 0.8217 -0.0265
vn 0.8163 0.5523 -0.1690
vn 0.9230 -0.1944 -0.3321
vn 0.9419 0.1944 -0.2738
vn -0.9044 0.1846 0.3848
vn 0.7551 -0.5581 -0.3439
vn -0.7087 0.5406 0.4534
vn -0.4345 0.8012 0.4114
vn -0.1072 0.9501 0.2929
vn 0.7634 0.5523 -0.3350
vn 0.8338 -0.1944 -0.5167
vn 0.8644 0.1944 -0.4637
vn -0.8046 0.1846 0.5644
vn 0.6671 -0.5581 -0.4934
vn -0.5989 0.5406 0.5908
vn -0.3394 0.8012 0.4928
vn -0.0440 0.9501 0.3087
vn 0.2665 0.9603 0.0824
vn 0.5513 0.8217 -0.1443
vn -0.6697 0.1846 0.7194
vn 0.5500 -0.5581 -0.6213
vn -0.4630 0.5406 0.7024
vn -0.2296 0.8012 0.5526
vn 0.0212 0.9501 0.3111
vn 0.2778 0.9603 0.0252
vn 0.5093 0.8217 -0.2558
vn 0.6770 0.5523 -0.4864
vn 0.7081 -0.1944 -0.6788
vn 0.7491 0.1944 -0.6333
vn -0.1097 0.8012 0.5882
vn 0.0854 0.9501 0.2999
vn 0.2770 0.9603 -0.0331
vn 0.4450 0.8217 -0.3561
vn 0.5611 0.5523 -0.6166
vn 0.5515 -0.1944 -0.8112
vn 0.6011 0.1944 -0.7752
vn -0.5055 0.1846 0.8429
vn 0.4088 -0.5581 -0.7221
vn -0.3068 0.5406 0.7834
vn 0.2640 0.9603 -0.0900
vn 0.3612 0.8217 -0.4408
vn 0.4206 0.5523 -0.7198
vn 0.3708 -0.1944 -0.9081
vn 0.4268 0.1944 -0.8832
vn -0.3192 0.1846 0.9295
vn 0.2497 -0.5581 -0.7913
vn -0.1372 0.5406 0.8300
vn 0.0150 0.8012 0.5982
vn 0.1459 0.9501 0.2756
vn 0.2618 0.5523 -0.7915
vn 0.1739 -0.1944 -0.9654
vn 0.2338 0.1944 -0.9526
vn -0.1189 0.1846 0.9756
vn 0.0798 -0.5581 -0.8259
vn 0.0383 0.5406 0.8404
vn 0.1391 0.8012 0.5820
vn 0.2000 0.9501 0.2393
vn 0.2396 0.9603 -0.1429
vn 0.2617 0.8217 -0.5063
vn -0.0937 -0.5581 -0.8244
vn 0.2122 0.5406 0.8141
vn 0.2570 0.8012 0.5404
vn 0.2454 0.9501 0.1924
vn 0.2046 0.9603 -0.1896
vn 0.1507 0.8217 -0.5496
vn 0.0915 0.5523 -0.8286
vn -0.0306 -0.1944 -0.9804
vn 0.0306 0.1944 -0.9804
vn 0.0865 0.1846 0.9790
vn 0.2800 0.9501 0.1372
vn 0.1607 0.9603 -0.2280
vn 0.0331 0.8217 -0.5689
vn -0.0828 0.5523 -0.8295
vn -0.2338 -0.1944 -0.9526
vn -0.1739 0.1944 -0.9654
vn 0.2882 0.1846 0.9396
vn -0.2631 -0.5581 -0.7869
vn 0.3768 0.5406 0.7522
vn 0.3638 0.8012 0.4751
vn -0.0859 0.8217 -0.5634
vn -0.2534 0.5523 -0.7942
vn -0.4268 -0.1944 -0.8832
vn -0.3708 0.1944 -0.9081
vn 0.4772 0.1846 0.8592
vn -0.4209 -0.5581 -0.7151
vn 0.5250 0.5406 0.6574
vn 0.4546 0.8012 0.3891
vn 0.3025 0.9501 0.0760
vn 0.1098 0.9603 -0.2564
vn -0.6011 -0.1944 -0.7752
vn -0.5515 0.1944 -0.8112
vn 0.6454 0.1846 0.7412
vn -0.5604 -0.5581 -0.6119
vn 0.6502 0.5406 0.5339
vn 0.5256 0.8012 0.2861
vn 0.3116 0.9501 0.0115
vn 0.0541 0.9603 -0.2736
vn -0.2011 0.8217 -0.5332
vn -0.4130 0.5523 -0.7242
vn 0.7470 0.5406 0.3870
vn 0.5735 0.8012 0.1706
vn 0.3072 0.9501 -0.0536
vn -0.0040 0.9603 -0.2789
vn -0.3076 0.8217 -0.4797
vn -0.5545 0.5523 -0.6225
vn -0.7491 -0.1944 -0.6333
vn -0.7081 0.1944 -0.6788
vn 0.7854 0.1846 0.5908
vn -0.6754 -0.5581 -0.4820
vn 0.2894 0.9501 -0.1163
vn -0.0619 0.9603 -0.2720
vn -0.4006 0.8217 -0.4053
vn -0.6718 0.5523 -0.4936
vn -0.8644 -0.1944 -0.4637
vn -0.8338 0.1944 -0.5167
vn 0.8911 0.1846 0.4146
vn -0.7608 -0.5581 -0.3311
vn 0.8111 0.5406 0.2233
vn 0.5965 0.8012 0.0476
vn -0.4761 0.8217 -0.3132
vn -0.7598 0.5523 -0.3431
vn -0.9419 -0.1944 -0.2738
vn -0.9230 0.1944 -0.3321
vn 0.9578 0.1846 0.2203
vn -0.8130 -0.5581 -0.1657
vn 0.8398 0.5406 0.0497
vn 0.5933 0.8012 -0.0775
vn 0.2589 0.9501 -0.1739
vn -0.1171 0.9603 -0.2532
vn -0.9719 0.1944 -0.1329
vn 0.9827 0.1846 0.0163
vn -0.8297 -0.5581 0.0070
vn 0.8318 0.5406 -0.1260
vn 0.5643 0.8012 -0.1991
vn 0.2170 0.9501 -0.2239
vn -0.1672 0.9603 -0.2233
vn -0.5308 0.8217 -0.2073
vn -0.8145 0.5523 -0.1776
vn -0.9783 -0.1944 -0.0720
vn 0.5105 0.8012 -0.3121
vn 0.1657 0.9501 -0.2642
vn -0.2099 0.9603 -0.1837
vn -0.5623 0.8217 -0.0924
vn -0.8336 0.5523 -0.0044
vn -0.9719 -0.1944 0.1329
vn -0.9783 0.1944 0.0720
vn 0.9646 0.1846 -0.1884
vn -0.8101 -0.5581 0.1794
vn 0.7874 0.5406 -0.2962
vn -0.2435 0.9603 -0.1360
vn -0.5693 0.8217 0.0265
vn -0.8163 0.5523 0.1690
vn -0.9230 -0.1944 0.3321
vn -0.9419 0.1944 0.2738
vn 0.9044 0.1846 -0.3848
vn -0.7551 -0.5581 0.3439
vn 0.7087 0.5406 -0.4534
vn 0.4345 0.8012 -0.4114
vn 0.1072 0.9501 -0.2929
vn -0.7634 0.5523 0.3350
vn -0.8338 -0.1944 0.5167
vn -0.8644 0.1944 0.4637
vn 0.8046 0.1846 -0.5644
vn -0.6671 -0.5581 0.4934
vn 0.5989 0.5406 -0.5908
vn 0.3394 0.8012 -0.4928
vn 0.0440 0.9501 -0.3087
vn -0.2665 0.9603 -0.0824
vn -0.5513 0.8217 0.1443
vn -0.5500 -0.5581 0.6213
vn 0.4630 0.5406 -0.7024
vn 0.2296 0.8012 -0.5526
vn -0.0212 0.9501 -0.3111
vn -0.2778 0.9603 -0.0252
vn -0.5093 0.8217 0.2558
vn -0.6770 0.5523 0.4864
vn -0.7081 -0.1944 0.6788
vn -0.7491 0.1944 0.6333
vn 0.6697 0.1846 -0.7194
vn -0.0854 0.9501 -0.2999
vn -0.2770 0.9603 0.0331
vn -0.4450 0.8217 0.3561
vn -0.5611 0.5523 0.6166
vn -0.5515 -0.1944 0.8112
vn -0.6011 0.1944 0.7752
vn 0.5055 0.1846 -0.8429
vn -0.4088 -0.5581 0.7221
vn 0.3068 0.5406 -0.7834
vn 0.1097 0.8012 -0.5882
vn -0.3612 0.8217 0.4408
vn -0.4206 0.5523 0.7198
vn -0.3708 -0.1944 0.9081
vn -0.4268 0.1944 0.8832
vn 0.3192 0.1846 -0.9295
vn -0.2497 -0.5581 0.7913
vn 0.1372 0.5406 -0.8300
vn -0.0150 0.8012 -0.5982
vn -0.1459 0.9501 -0.2756
vn -0.2640 0.9603 0.0900
vn -0.1739 -0.1944 0.9654
vn -0.2338 0.1944 0.9526
vn 0.1189 0.1846 -0.9756
vn -0.0798 -0.5581 0.8259
vn -0.0383 0.5406 -0.8404
vn -0.1391 0.8012 -0.5820
vn -0.2000 0.9501 -0.2393
vn -0.2396 0.9603 0.1429
vn -0.2617 0.8217 0.5063
vn -0.2618 0.5523 0.7915
vn -0.2122 0.5406 -0.8141
vn -0.2570 0.8012 -0.5404
vn -0.2454 0.9501 -0.1924
vn -0.2046 0.9603 0.1896
vn -0.1507 0.8217 0.5496
vn -0.0915 0.5523 0.8286
vn 0.0306 -0.1944 0.9804
vn -0.0306 0.1944 0.9804
vn -0.0865 0.1846 -0.9790
vn 0.0937 -0.5581 0.8244
vn -0.2800 0.9501 -0.1372
vn -0.1607 0.9603 0.2280
vn -0.0331 0.8217 0.5689
vn 0.0828 0.5523 0.8295
vn 0.2338 -0.1944 0.9526
vn 0.1739 0.1944 0.9654
vn -0.2882 0.1846 -0.9396
vn 0.2631 -0.5581 0.7869
vn -0.3768 0.5406 -0.7522
vn -0.3638 0.8012 -0.4751
vn 0.0859 0.8217 0.5634
vn 0.2534 0.5523 0.7942
vn 0.4268 -0.1944 0.8832
vn 0.3708 0.1944 0.9081
vn -0.4772 0.1846 -0.8592
vn 0.4209 -0.5581 0.7151
vn -0.5250 0.5406 -0.6574
vn -0.4546 0.8012 -0.3891
vn -0.3025 0.9501 -0.0760
vn -0.1098 0.9603 0.2564
vn 0.6011 -0.1944 0.7752
vn 0.5515 0.1944 0.8112
vn -0.6454 0.1846 -0.7412
vn 0.5604 -0.5581 0.6119
vn -0.6502 0.5406 -0.5339
vn -0.5256 0.8012 -0.2861
vn -0.3116 0.9501 -0.0115
vn -0.0541 0.9603 0.2736
vn 0.2011 0.8217 0.5332
vn 0.4130 0.5523 0.7242
vn -0.5735 0.8012 -0.1706
vn -0.3072 0.9501 0.0536
vn 0.0040 0.9603 0.2789
vn 0.3076 0.8217 0.4797
vn 0.5545 0.5523 0.6225
vn 0.7491 -0.1944 0.6333
vn 0.7081 0.1944 0.6788
vn -0.7854 0.1846 -0.5908
vn 0.6754 -0.5581 0.4820
vn -0.7470 0.5406 -0.3870
vn 0.0619 0.9603 0.2720
vn 0.4006 0.8217 0.4053
vn 0.6718 0.5523 0.4936
vn 0.8644 -0.1944 0.4637
vn 0.8338 0.1944 0.5167
vn -0.8911 0.1846 -0.4146
vn 0.7608 -0.5581 0.3311
vn -0.8111 0.5406 -0.2233
vn -0.5965 0.8012 -0.0476
vn -0.2894 0.9501 0.1163
vn 0.7598 0.5523 0.3431
vn 0.9419 -0.1944 0.2738
vn 0.9230 0.1944 0.3321
vn -0.9578 0.1846 -0.2203
vn 0.8130 -0.5581 0.1657
vn -0.8398 0.5406 -0.0497
vn -0.5933 0.8012 0.0775
vn -0.2589 0.9501 0.1739
vn 0.1171 0.9603 0.2532
vn 0.4761 0.8217 0.3132
vn -0.9827 0.1846 -0.0163
vn 0.8297 -0.5581 -0.0070
vn -0.8318 0.5406 0.1260
vn -0.5643 0.8012 0.1991
vn -0.2170 0.9501 0.2239
vn 0.1672 0.9603 0.2233
vn 0.5308 0.8217 0.2073
vn 0.8145 0.5523 0.1776
vn 0.9783 -0.1944 0.0720
vn 0.9719 0.1944 0.1329
vn -0.5105 0.8012 0.3121
vn -0.1657 0.9501 0.2642
vn 0.2099 0.9603 0.1837
vn 0.5623 0.8217 0.0924
vn 0.8337 0.5523 0.0044
vn 0.9719 -0.1944 -0.1329
vn 0.9783 0.1944 -0.0720
vn -0.9646 0.1846 0.1884
vn 0.8101 -0.5581 -0.1794
vn -0.7874 0.5406 0.2962
vn -0.8289 -0.5593 0.0071
vn 0.5547 0.8319 -0.0168
vn 0.8323 0.5403 -0.1234
vn 0.5640 0.8017 -0.1978
vn 0.2155 0.9506 -0.2234
vn -0.1697 0.9599 -0.2230
vn -0.5335 0.8202 -0.2066
vn -0.8165 0.5497 -0.1763
vn -0.9778 -0.1975 -0.0702
vn -0.9727 0.1913 -0.1312
vn 0.9827 0.1843 0.0179
vn 0.1945 0.9808 -0.0165
vn -0.1952 0.9806 -0.0162
vn -0.5556 0.8313 -0.0159
vn -0.8316 0.5551 -0.0160
vn 0.8372 -0.5466 -0.0199
vn -0.9786 0.2048 -0.0196
vn 0.9804 0.1961 -0.0170
vn 0.9808 -0.1941 -0.0169
vn 0.8307 0.5564 -0.0170
vn -0.0044 -0.0106 0.9999
vn 0.2470 0.8964 0.3679
vn 0.5748 0.8139 0.0848
vn 0.3133 0.8984 0.3078
vn 0.5788 0.8147 -0.0356
vn 0.3704 0.8984 0.2360
vn 0.5587 0.8147 -0.1551
vn 0.4114 0.8984 0.1538
vn 0.5143 0.8147 -0.2679
vn 0.4344 0.8984 0.0649
vn 0.4473 0.8147 -0.3690
vn 0.4384 0.8984 -0.0268
vn 0.3608 0.8147 -0.4539
vn 0.4232 0.8984 -0.1174
vn 0.2586 0.8147 -0.5190
vn 0.1450 0.8147 -0.5614
vn 0.3896 0.8984 -0.2028
vn 0.3389 0.8984 -0.2794
vn 0.0251 0.8147 -0.5793
vn 0.2734 0.8984 -0.3437
vn -0.0959 0.8147 -0.5719
vn 0.1960 0.8984 -0.3930
vn -0.2127 0.8147 -0.5395
vn -0.3202 0.8147 -0.4834
vn 0.1100 0.8984 -0.4252
vn 0.0191 0.8984 -0.4388
vn -0.4137 0.8147 -0.4063
vn -0.0725 0.8984 -0.4332
vn -0.4892 0.8147 -0.3114
vn -0.1610 0.8984 -0.4086
vn -0.5432 0.8147 -0.2029
vn -0.2424 0.8984 -0.3662
vn -0.5735 0.8147 -0.0855
vn -0.3133 0.8984 -0.3078
vn -0.5788 0.8147 0.0356
vn -0.3704 0.8984 -0.2360
vn -0.5587 0.8147 0.1551
vn -0.5143 0.8147 0.2679
vn -0.4114 0.8984 -0.1538
vn -0.4344 0.8984 -0.0649
vn -0.4473 0.8147 0.3690
vn -0.4384 0.8984 0.0268
vn -0.3608 0.8147 0.4539
vn -0.4232 0.8984 0.1174
vn -0.2586 0.8147 0.5190
vn -0.1450 0.8147 0.5614
vn -0.3896 0.8984 0.2028
vn -0.3389 0.8984 0.2794
vn -0.0251 0.8147 0.5793
vn -0.2734 0.8984 0.3437
vn 0.0959 0.8147 0.5719
vn -0.1960 0.8984 0.3930
vn 0.2127 0.8147 0.5395
vn 0.3202 0.8147 0.4834
vn -0.1100 0.8984 0.4252
vn -0.0191 0.8984 0.4388
vn 0.4137 0.8147 0.4063
vn 0.0725 0.8984 0.4332
vn 0.4892 0.8147 0.3114
vn 0.1610 0.8984 0.4086
vn 0.5432 0.8147 0.2029
vn 0.2424 0.8984 0.3662
vn 0.5735 0.8147 0.0855
vn 0.0709 0.0287 -0.9971
vn 0.0107 0.0177 -0.9998
vn -0.0356 0.0119 -0.9993
vn -0.1174 -0.0536 -0.9916
vn -0.1182 -0.1600 -0.9800
vn -0.0463 -0.2216 -0.9740
vn 0.0464 -0.2229 -0.9737
vn 0.1220 -0.1734 -0.9773
vn 0.1555 -0.0943 -0.9833
vn 0.1360 -0.0157 -0.9906
vn -0.5349 0.8209 -0.2003
vn -0.1437 0.8973 -0.4173
vn 0.5568 0.8306 0.0001
vn 0.1955 0.9807 -0.0000
vn 0.3771 0.9103 0.1709
vt 0.000000 0.000000
s 0
f 11/1/1 10/1/1 21/1/1 22/1/1
f 2/1/2 1/1/2 12/1/2 13/1/2
f 1/1/3 11/1/3 22/1/3 12/1/3
f 5/1/4 4/1/4 15/1/4 16/1/4
f 3/1/5 2/1/5 13/1/5 14/1/5
f 6/1/6 5/1/6 16/1/6 17/1/6
f 7/1/7 6/1/7 17/1/7 18/1/7
f 8/1/8 7/1/8 18/1/8 19/1/8
f 9/1/9 8/1/9 19/1/9 20/1/9
f 10/1/10 9/1/10 20/1/10 21/1/10
f 20/1/11 19/1/11 30/1/11 31/1/11
f 21/1/12 20/1/12 31/1/12 32/1/12
f 22/1/13 21/1/13 32/1/13 33/1/13
f 13/1/14 12/1/14 23/1/14 24/1/14
f 12/1/15 22/1/15 33/1/15 23/1/15
f 16/1/16 15/1/16 26/1/16 27/1/16
f 14/1/17 13/1/17 24/1/17 25/1/17
f 17/1/18 16/1/18 27/1/18 28/1/18
f 18/1/19 17/1/19 28/1/19 29/1/19
f 19/1/20 18/1/20 29/1/20 30/1/20
f 33/1/21 32/1/21 43/1/21 44/1/21
f 24/1/22 23/1/22 34/1/22 35/1/22
f 23/1/23 33/1/23 44/1/23 34/1/23
f 27/1/24 26/1/24 37/1/24 38/1/24
f 25/1/25 24/1/25 35/1/25 36/1/25
f 28/1/26 27/1/26 38/1/26 39/1/26
f 29/1/27 28/1/27 39/1/27 40/1/27
f 30/1/28 29/1/28 40/1/28 41/1/28
f 31/1/29 30/1/29 41/1/29 42/1/29
f 32/1/30 31/1/30 42/1/30 43/1/30
f 38/1/31 37/1/31 48/1/31 49/1/31
f 36/1/32 35/1/32 46/1/32 47/1/32
f 39/1/33 38/1/33 49/1/33 50/1/33
f 40/1/34 39/1/34 50/1/34 51/1/34
f 41/1/35 40/1/35 51/1/35 52/1/35
f 42/1/36 41/1/36 52/1/36 53/1/36
f 43/1/37 42/1/37 53/1/37 54/1/37
f 44/1/38 43/1/38 54/1/38 55/1/38
f 35/1/39 34/1/39 45/1/39 46/1/39
f 34/1/40 44/1/40 55/1/40 45/1/40
f 51/1/41 50/1/41 61/1/41 62/1/41
f 52/1/42 51/1/42 62/1/42 63/1/42
f 53/1/43 52/1/43 63/1/43 64/1/43
f 54/1/44 53/1/44 64/1/44 65/1/44
f 55/1/45 54/1/45 65/1/45 66/1/45
f 46/1/46 45/1/46 56/1/46 57/1/46
f 45/1/47 55/1/47 66/1/47 56/1/47
f 49/1/48 48/1/48 59/1/48 60/1/48
f 47/1/49 46/1/49 57/1/49 58/1/49
f 50/1/50 49/1/50 60/1/50 61/1/50
f 64/1/51 63/1/51 74/1/51 75/1/51
f 65/1/52 64/1/52 75/1/52 76/1/52
f 66/1/53 65/1/53 76/1/53 77/1/53
f 57/1/54 56/1/54 67/1/54 68/1/54
f 56/1/55 66/1/55 77/1/55 67/1/55
f 60/1/56 59/1/56 70/1/56 71/1/56
f 58/1/57 57/1/57 68/1/57 69/1/57
f 61/1/58 60/1/58 71/1/58 72/1/58
f 62/1/59 61/1/59 72/1/59 73/1/59
f 63/1/60 62/1/60 73/1/60 74/1/60
f 77/1/61 76/1/61 87/1/61 88/1/61
f 68/1/62 67/1/62 78/1/62 79/1/62
f 67/1/63 77/1/63 88/1/63 78/1/63
f 71/1/64 70/1/64 81/1/64 82/1/64
f 69/1/65 68/1/65 79/1/65 80/1/65
f 72/1/66 71/1/66 82/1/66 83/1/66
f 73/1/67 72/1/67 83/1/67 84/1/67
f 74/1/68 73/1/68 84/1/68 85/1/68
f 75/1/69 74/1/69 85/1/69 86/1/69
f 76/1/70 75/1/70 86/1/70 87/1/70
f 80/1/71 79/1/71 90/1/71 91/1/71
f 83/1/72 82/1/72 93/1/72 94/1/72
f 84/1/73 83/1/73 94/1/73 95/1/73
f 85/1/74 84/1/74 95/1/74 96/1/74
f 86/1/75 85/1/75 96/1/75 97/1/75
f 87/1/76 86/1/76 97/1/76 98/1/76
f 88/1/77 87/1/77 98/1/77 99/1/77
f 79/1/78 78/1/78 89/1/78 90/1/78
f 78/1/79 88/1/79 99/1/79 89/1/79
f 82/1/80 81/1/80 92/1/80 93/1/80
f 96/1/81 95/1/81 106/1/81 107/1/81
f 97/1/82 96/1/82 107/1/82 108/1/82
f 98/1/83 97/1/83 108/1/83 109/1/83
f 99/1/84 98/1/84 109/1/84 110/1/84
f 90/1/85 89/1/85 100/1/85 101/1/85
f 89/1/86 99/1/86 110/1/86 100/1/86
f 93/1/87 92/1/87 103/1/87 104/1/87
f 91/1/88 90/1/88 101/1/88 102/1/88
f 94/1/89 93/1/89 104/1/89 105/1/89
f 95/1/90 94/1/90 105/1/90 106/1/90
f 109/1/91 108/1/91 119/1/91 120/1/91
f 110/1/92 109/1/92 120/1/92 121/1/92
f 101/1/93 100/1/93 111/1/93 112/1/93
f 100/1/94 110/1/94 121/1/94 111/1/94
f 104/1/95 103/1/95 114/1/95 115/1/95
f 102/1/96 101/1/96 112/1/96 113/1/96
f 105/1/97 104/1/97 115/1/97 116/1/97
f 106/1/98 105/1/98 116/1/98 117/1/98
f 107/1/99 106/1/99 117/1/99 118/1/99
f 108/1/100 107/1/100 118/1/100 119/1/100
f 112/1/101 111/1/101 122/1/101 123/1/101
f 111/1/102 121/1/102 132/1/102 122/1/102
f 115/1/103 114/1/103 125/1/103 126/1/103
f 113/1/104 112/1/104 123/1/104 124/1/104
f 116/1/105 115/1/105 126/1/105 127/1/105
f 117/1/106 116/1/106 127/1/106 128/1/106
f 118/1/107 117/1/107 128/1/107 129/1/107
f 119/1/108 118/1/108 129/1/108 130/1/108
f 120/1/109 119/1/109 130/1/109 131/1/109
f 121/1/110 120/1/110 131/1/110 132/1/110
f 127/1/111 126/1/111 137/1/111 138/1/111
f 128/1/112 127/1/112 138/1/112 139/1/112
f 129/1/113 128/1/113 139/1/113 140/1/113
f 130/1/114 129/1/114 140/1/114 141/1/114
f 131/1/115 130/1/115 141/1/115 142/1/115
f 132/1/116 131/1/116 142/1/116 143/1/116
f 123/1/117 122/1/117 133/1/117 134/1/117
f 122/1/118 132/1/118 143/1/118 133/1/118
f 126/1/119 125/1/119 136/1/119 137/1/119
f 124/1/120 123/1/120 134/1/120 135/1/120
f 140/1/121 139/1/121 150/1/121 151/1/121
f 141/1/122 140/1/122 151/1/122 152/1/122
f 142/1/123 141/1/123 152/1/123 153/1/123
f 143/1/124 142/1/124 153/1/124 154/1/124
f 134/1/125 133/1/125 144/1/125 145/1/125
f 133/1/126 143/1/126 154/1/126 144/1/126
f 137/1/127 136/1/127 147/1/127 148/1/127
f 135/1/128 134/1/128 145/1/128 146/1/128
f 138/1/129 137/1/129 148/1/129 149/1/129
f 139/1/130 138/1/130 149/1/130 150/1/130
f 153/1/131 152/1/131 163/1/131 164/1/131
f 154/1/132 153/1/132 164/1/132 165/1/132
f 145/1/133 144/1/133 155/1/133 156/1/133
f 144/1/134 154/1/134 165/1/134 155/1/134
f 148/1/135 147/1/135 158/1/135 159/1/135
f 146/1/136 145/1/136 156/1/136 157/1/136
f 149/1/137 148/1/137 159/1/137 160/1/137
f 150/1/138 149/1/138 160/1/138 161/1/138
f 151/1/139 150/1/139 161/1/139 162/1/139
f 152/1/140 151/1/140 162/1/140 163/1/140
f 155/1/141 165/1/141 176/1/141 166/1/141
f 159/1/142 158/1/142 169/1/142 170/1/142
f 157/1/143 156/1/143 167/1/143 168/1/143
f 160/1/144 159/1/144 170/1/144 171/1/144
f 161/1/145 160/1/145 171/1/145 172/1/145
f 162/1/146 161/1/146 172/1/146 173/1/146
f 163/1/147 162/1/147 173/1/147 174/1/147
f 164/1/148 163/1/148 174/1/148 175/1/148
f 165/1/149 164/1/149 175/1/149 176/1/149
f 156/1/150 155/1/150 166/1/150 167/1/150
f 172/1/151 171/1/151 182/1/151 183/1/151
f 173/1/152 172/1/152 183/1/152 184/1/152
f 174/1/153 173/1/153 184/1/153 185/1/153
f 175/1/154 174/1/154 185/1/154 186/1/154
f 176/1/155 175/1/155 186/1/155 187/1/155
f 167/1/156 166/1/156 177/1/156 178/1/156
f 166/1/157 176/1/157 187/1/157 177/1/157
f 170/1/158 169/1/158 180/1/158 181/1/158
f 168/1/159 167/1/159 178/1/159 179/1/159
f 171/1/160 170/1/160 181/1/160 182/1/160
f 185/1/161 184/1/161 195/1/161 196/1/161
f 186/1/162 185/1/162 196/1/162 197/1/162
f 187/1/163 186/1/163 197/1/163 198/1/163
f 178/1/164 177/1/164 188/1/164 189/1/164
f 177/1/165 187/1/165 198/1/165 188/1/165
f 181/1/166 180/1/166 191/1/166 192/1/166
f 179/1/167 178/1/167 189/1/167 190/1/167
f 182/1/168 181/1/168 192/1/168 193/1/168
f 183/1/169 182/1/169 193/1/169 194/1/169
f 184/1/170 183/1/170 194/1/170 195/1/170
f 198/1/171 197/1/171 208/1/171 209/1/171
f 189/1/172 188/1/172 199/1/172 200/1/172
f 188/1/173 198/1/173 209/1/173 199/1/173
f 192/1/174 191/1/174 202/1/174 203/1/174
f 190/1/175 189/1/175 200/1/175 201/1/175
f 193/1/176 192/1/176 203/1/176 204/1/176
f 194/1/177 193/1/177 204/1/177 205/1/177
f 195/1/178 194/1/178 205/1/178 206/1/178
f 196/1/179 195/1/179 206/1/179 207/1/179
f 197/1/180 196/1/180 207/1/180 208/1/180
f 201/1/181 200/1/181 211/1/181 212/1/181
f 204/1/182 203/1/182 214/1/182 215/1/182
f 205/1/183 204/1/183 215/1/183 216/1/183
f 206/1/184 205/1/184 216/1/184 217/1/184
f 207/1/185 206/1/185 217/1/185 218/1/185
f 208/1/186 207/1/186 218/1/186 219/1/186
f 209/1/187 208/1/187 219/1/187 220/1/187
f 200/1/188 199/1/188 210/1/188 211/1/188
f 199/1/189 209/1/189 220/1/189 210/1/189
f 203/1/190 202/1/190 213/1/190 214/1/190
f 217/1/191 216/1/191 227/1/191 228/1/191
f 218/1/192 217/1/192 228/1/192 229/1/192
f 219/1/193 218/1/193 229/1/193 230/1/193
f 220/1/194 219/1/194 230/1/194 231/1/194
f 211/1/195 210/1/195 221/1/195 222/1/195
f 210/1/196 220/1/196 231/1/196 221/1/196
f 214/1/197 213/1/197 224/1/197 225/1/197
f 212/1/198 211/1/198 222/1/198 223/1/198
f 215/1/199 214/1/199 225/1/199 226/1/199
f 216/1/200 215/1/200 226/1/200 227/1/200
f 230/1/201 229/1/201 240/1/201 241/1/201
f 231/1/202 230/1/202 241/1/202 242/1/202
f 222/1/203 221/1/203 232/1/203 233/1/203
f 221/1/204 231/1/204 242/1/204 232/1/204
f 225/1/205 224/1/205 235/1/205 236/1/205
f 223/1/206 222/1/206 233/1/206 234/1/206
f 226/1/207 225/1/207 236/1/207 237/1/207
f 227/1/208 226/1/208 237/1/208 238/1/208
f 228/1/209 227/1/209 238/1/209 239/1/209
f 229/1/210 228/1/210 239/1/210 240/1/210
f 233/1/211 232/1/211 243/1/211 244/1/211
f 232/1/212 242/1/212 253/1/212 243/1/212
f 236/1/213 235/1/213 246/1/213 247/1/213
f 234/1/214 233/1/214 244/1/214 245/1/214
f 237/1/215 236/1/215 247/1/215 248/1/215
f 238/1/216 237/1/216 248/1/216 249/1/216
f 239/1/217 238/1/217 249/1/217 250/1/217
f 240/1/218 239/1/218 250/1/218 251/1/218
f 241/1/219 240/1/219 251/1/219 252/1/219
f 242/1/220 241/1/220 252/1/220 253/1/220
f 248/1/221 247/1/221 258/1/221 259/1/221
f 249/1/222 248/1/222 259/1/222 260/1/222
f 250/1/223 249/1/223 260/1/223 261/1/223
f 251/1/224 250/1/224 261/1/224 262/1/224
f 252/1/225 251/1/225 262/1/225 263/1/225
f 253/1/226 252/1/226 263/1/226 264/1/226
f 244/1/227 243/1/227 254/1/227 255/1/227
f 243/1/228 253/1/228 264/1/228 254/1/228
f 247/1/229 246/1/229 257/1/229 258/1/229
f 245/1/230 244/1/230 255/1/230 256/1/230
f 261/1/231 260/1/231 271/1/231 272/1/231
f 262/1/232 261/1/232 272/1/232 273/1/232
f 263/1/233 262/1/233 273/1/233 274/1/233
f 264/1/234 263/1/234 274/1/234 275/1/234
f 255/1/235 254/1/235 265/1/235 266/1/235
f 254/1/236 264/1/236 275/1/236 265/1/236
f 258/1/237 257/1/237 268/1/237 269/1/237
f 256/1/238 255/1/238 266/1/238 267/1/238
f 259/1/239 258/1/239 269/1/239 270/1/239
f 260/1/240 259/1/240 270/1/240 271/1/240
f 274/1/241 273/1/241 284/1/241 285/1/241
f 275/1/242 274/1/242 285/1/242 286/1/242
f 266/1/243 265/1/243 276/1/243 277/1/243
f 265/1/244 275/1/244 286/1/244 276/1/244
f 269/1/245 268/1/245 279/1/245 280/1/245
f 267/1/246 266/1/246 277/1/246 278/1/246
f 270/1/247 269/1/247 280/1/247 281/1/247
f 271/1/248 270/1/248 281/1/248 282/1/248
f 272/1/249 271/1/249 282/1/249 283/1/249
f 273/1/250 272/1/250 283/1/250 284/1/250
f 277/1/251 276/1/251 287/1/251 288/1/251
f 276/1/252 286/1/252 297/1/252 287/1/252
f 280/1/253 279/1/253 290/1/253 291/1/253
f 278/1/254 277/1/254 288/1/254 289/1/254
f 281/1/255 280/1/255 291/1/255 292/1/255
f 282/1/256 281/1/256 292/1/256 293/1/256
f 283/1/257 282/1/257 293/1/257 294/1/257
f 284/1/258 283/1/258 294/1/258 295/1/258
f 285/1/259 284/1/259 295/1/259 296/1/259
f 286/1/260 285/1/260 296/1/260 297/1/260
f 293/1/261 292/1/261 303/1/261 304/1/261
f 294/1/262 293/1/262 304/1/262 305/1/262
f 295/1/263 294/1/263 305/1/263 306/1/263
f 296/1/264 295/1/264 306/1/264 307/1/264
f 297/1/265 296/1/265 307/1/265 308/1/265
f 288/1/266 287/1/266 298/1/266 299/1/266
f 287/1/267 297/1/267 308/1/267 298/1/267
f 291/1/268 290/1/268 301/1/268 302/1/268
f 289/1/269 288/1/269 299/1/269 300/1/269
f 292/1/270 291/1/270 302/1/270 303/1/270
f 306/1/271 305/1/271 316/1/271 317/1/271
f 307/1/272 306/1/272 317/1/272 318/1/272
f 308/1/273 307/1/273 318/1/273 319/1/273
f 299/1/274 298/1/274 309/1/274 310/1/274
f 298/1/275 308/1/275 319/1/275 309/1/275
f 302/1/276 301/1/276 312/1/276 313/1/276
f 300/1/277 299/1/277 310/1/277 311/1/277
f 303/1/278 302/1/278 313/1/278 314/1/278
f 304/1/279 303/1/279 314/1/279 315/1/279
f 305/1/280 304/1/280 315/1/280 316/1/280
f 319/1/281 318/1/281 329/1/281 330/1/281
f 310/1/282 309/1/282 320/1/282 321/1/282
f 309/1/283 319/1/283 330/1/283 320/1/283
f 313/1/284 312/1/284 323/1/284 324/1/284
f 311/1/285 310/1/285 321/1/285 322/1/285
f 314/1/286 313/1/286 324/1/286 325/1/286
f 315/1/287 314/1/287 325/1/287 326/1/287
f 316/1/288 315/1/288 326/1/288 327/1/288
f 317/1/289 316/1/289 327/1/289 328/1/289
f 318/1/290 317/1/290 328/1/290 329/1/290
f 324/1/291 323/1/291 334/1/291 335/1/291
f 322/1/292 321/1/292 332/1/292 333/1/292
f 325/1/293 324/1/293 335/1/293 336/1/293
f 326/1/294 325/1/294 336/1/294 337/1/294
f 327/1/295 326/1/295 337/1/295 338/1/295
f 328/1/296 327/1/296 338/1/296 339/1/296
f 329/1/297 328/1/297 339/1/297 340/1/297
f 330/1/298 329/1/298 340/1/298 341/1/298
f 321/1/299 320/1/299 331/1/299 332/1/299
f 320/1/300 330/1/300 341/1/300 331/1/300
f 337/1/7 336/1/7 347/1/7 348/1/7
f 338/1/8 337/1/8 348/1/8 349/1/8
f 339/1/9 338/1/9 349/1/9 350/1/9
f 340/1/10 339/1/10 350/1/10 351/1/10
f 341/1/1 340/1/1 351/1/1 352/1/1
f 332/1/2 331/1/2 342/1/2 343/1/2
f 331/1/3 341/1/3 352/1/3 342/1/3
f 335/1/4 334/1/4 345/1/4 346/1/4
f 333/1/5 332/1/5 343/1/5 344/1/5
f 336/1/6 335/1/6 346/1/6 347/1/6
f 350/1/11 349/1/11 360/1/11 361/1/11
f 351/1/12 350/1/12 361/1/12 362/1/12
f 352/1/13 351/1/13 362/1/13 363/1/13
f 343/1/14 342/1/14 353/1/14 354/1/14
f 342/1/15 352/1/15 363/1/15 353/1/15
f 346/1/16 345/1/16 356/1/16 357/1/16
f 344/1/17 343/1/17 354/1/17 355/1/17
f 347/1/18 346/1/18 357/1/18 358/1/18
f 348/1/19 347/1/19 358/1/19 359/1/19
f 349/1/20 348/1/20 359/1/20 360/1/20
f 363/1/21 362/1/21 373/1/21 374/1/21
f 354/1/22 353/1/22 364/1/22 365/1/22
f 353/1/23 363/1/23 374/1/23 364/1/23
f 357/1/24 356/1/24 367/1/24 368/1/24
f 355/1/25 354/1/25 365/1/25 366/1/25
f 358/1/26 357/1/26 368/1/26 369/1/26
f 359/1/27 358/1/27 369/1/27 370/1/27
f 360/1/28 359/1/28 370/1/28 371/1/28
f 361/1/29 360/1/29 371/1/29 372/1/29
f 362/1/30 361/1/30 372/1/30 373/1/30
f 369/1/33 368/1/33 379/1/33 380/1/33
f 370/1/34 369/1/34 380/1/34 381/1/34
f 371/1/35 370/1/35 381/1/35 382/1/35
f 372/1/36 371/1/36 382/1/36 383/1/36
f 373/1/37 372/1/37 383/1/37 384/1/37
f 374/1/38 373/1/38 384/1/38 385/1/38
f 365/1/39 364/1/39 375/1/39 376/1/39
f 364/1/40 374/1/40 385/1/40 375/1/40
f 368/1/31 367/1/31 378/1/31 379/1/31
f 366/1/32 365/1/32 376/1/32 377/1/32
f 382/1/42 381/1/42 392/1/42 393/1/42
f 383/1/43 382/1/43 393/1/43 394/1/43
f 384/1/44 383/1/44 394/1/44 395/1/44
f 385/1/45 384/1/45 395/1/45 396/1/45
f 376/1/46 375/1/46 386/1/46 387/1/46
f 375/1/47 385/1/47 396/1/47 386/1/47
f 379/1/48 378/1/48 389/1/48 390/1/48
f 377/1/49 376/1/49 387/1/49 388/1/49
f 380/1/50 379/1/50 390/1/50 391/1/50
f 381/1/41 380/1/41 391/1/41 392/1/41
f 395/1/52 394/1/52 405/1/52 406/1/52
f 396/1/53 395/1/53 406/1/53 407/1/53
f 387/1/54 386/1/54 397/1/54 398/1/54
f 386/1/55 396/1/55 407/1/55 397/1/55
f 390/1/56 389/1/56 400/1/56 401/1/56
f 388/1/57 387/1/57 398/1/57 399/1/57
f 391/1/58 390/1/58 401/1/58 402/1/58
f 392/1/59 391/1/59 402/1/59 403/1/59
f 393/1/60 392/1/60 403/1/60 404/1/60
f 394/1/301 393/1/301 404/1/301 405/1/301
f 398/1/62 397/1/62 408/1/62 409/1/62
f 397/1/63 407/1/63 418/1/63 408/1/63
f 401/1/64 400/1/64 411/1/64 412/1/64
f 399/1/65 398/1/65 409/1/65 410/1/65
f 402/1/66 401/1/66 412/1/66 413/1/66
f 403/1/67 402/1/67 413/1/67 414/1/67
f 404/1/68 403/1/68 414/1/68 415/1/68
f 405/1/69 404/1/69 415/1/69 416/1/69
f 406/1/70 405/1/70 416/1/70 417/1/70
f 407/1/61 406/1/61 417/1/61 418/1/61
f 414/1/73 413/1/73 424/1/73 425/1/73
f 415/1/74 414/1/74 425/1/74 426/1/74
f 416/1/75 415/1/75 426/1/75 427/1/75
f 417/1/76 416/1/76 427/1/76 428/1/76
f 418/1/77 417/1/77 428/1/77 429/1/77
f 409/1/78 408/1/78 419/1/78 420/1/78
f 408/1/79 418/1/79 429/1/79 419/1/79
f 412/1/80 411/1/80 422/1/80 423/1/80
f 410/1/71 409/1/71 420/1/71 421/1/71
f 413/1/72 412/1/72 423/1/72 424/1/72
f 427/1/82 426/1/82 437/1/82 438/1/82
f 428/1/83 427/1/83 438/1/83 439/1/83
f 429/1/84 428/1/84 439/1/84 440/1/84
f 420/1/85 419/1/85 430/1/85 431/1/85
f 419/1/86 429/1/86 440/1/86 430/1/86
f 423/1/87 422/1/87 433/1/87 434/1/87
f 421/1/88 420/1/88 431/1/88 432/1/88
f 424/1/89 423/1/89 434/1/89 435/1/89
f 425/1/90 424/1/90 435/1/90 436/1/90
f 426/1/81 425/1/81 436/1/81 437/1/81
f 440/1/92 439/1/92 450/1/92 451/1/92
f 431/1/93 430/1/93 441/1/93 442/1/93
f 430/1/94 440/1/94 451/1/94 441/1/94
f 434/1/95 433/1/95 444/1/95 445/1/95
f 432/1/96 431/1/96 442/1/96 443/1/96
f 435/1/97 434/1/97 445/1/97 446/1/97
f 436/1/98 435/1/98 446/1/98 447/1/98
f 437/1/99 436/1/99 447/1/99 448/1/99
f 438/1/100 437/1/100 448/1/100 449/1/100
f 439/1/91 438/1/91 449/1/91 450/1/91
f 445/1/103 444/1/103 455/1/103 456/1/103
f 443/1/104 442/1/104 453/1/104 454/1/104
f 446/1/105 445/1/105 456/1/105 457/1/105
f 447/1/106 446/1/106 457/1/106 458/1/106
f 448/1/107 447/1/107 458/1/107 459/1/107
f 449/1/108 448/1/108 459/1/108 460/1/108
f 450/1/109 449/1/109 460/1/109 461/1/109
f 451/1/110 450/1/110 461/1/110 462/1/110
f 442/1/101 441/1/101 452/1/101 453/1/101
f 441/1/102 451/1/102 462/1/102 452/1/102
f 458/1/112 457/1/112 468/1/112 469/1/112
f 459/1/113 458/1/113 469/1/113 470/1/113
f 460/1/114 459/1/114 470/1/114 471/1/114
f 461/1/115 460/1/115 471/1/115 472/1/115
f 462/1/116 461/1/116 472/1/116 473/1/116
f 453/1/117 452/1/117 463/1/117 464/1/117
f 452/1/118 462/1/118 473/1/118 463/1/118
f 456/1/119 455/1/119 466/1/119 467/1/119
f 454/1/120 453/1/120 464/1/120 465/1/120
f 457/1/111 456/1/111 467/1/111 468/1/111
f 471/1/122 470/1/122 481/1/122 482/1/122
f 472/1/123 471/1/123 482/1/123 483/1/123
f 473/1/124 472/1/124 483/1/124 484/1/124
f 464/1/125 463/1/125 474/1/125 475/1/125
f 463/1/126 473/1/126 484/1/126 474/1/126
f 467/1/127 466/1/127 477/1/127 478/1/127
f 465/1/128 464/1/128 475/1/128 476/1/128
f 468/1/129 467/1/129 478/1/129 479/1/129
f 469/1/130 468/1/130 479/1/130 480/1/130
f 470/1/121 469/1/121 480/1/121 481/1/121
f 484/1/132 483/1/132 494/1/132 495/1/132
f 475/1/133 474/1/133 485/1/133 486/1/133
f 474/1/134 484/1/134 495/1/134 485/1/134
f 478/1/135 477/1/135 488/1/135 489/1/135
f 476/1/136 475/1/136 486/1/136 487/1/136
f 479/1/137 478/1/137 489/1/137 490/1/137
f 480/1/138 479/1/138 490/1/138 491/1/138
f 481/1/139 480/1/139 491/1/139 492/1/139
f 482/1/140 481/1/140 492/1/140 493/1/140
f 483/1/131 482/1/131 493/1/131 494/1/131
f 487/1/143 486/1/143 497/1/143 498/1/143
f 9/1/302 10/1/302 508/1/302 509/1/302
f 490/1/144 489/1/144 500/1/144 501/1/144
f 491/1/145 490/1/145 501/1/145 502/1/145
f 492/1/146 491/1/146 502/1/146 503/1/146
f 493/1/147 492/1/147 503/1/147 504/1/147
f 494/1/148 493/1/148 504/1/148 505/1/148
f 495/1/149 494/1/149 505/1/149 506/1/149
f 486/1/150 485/1/150 496/1/150 497/1/150
f 485/1/141 495/1/141 506/1/141 496/1/141
f 489/1/142 488/1/142 499/1/142 500/1/142
f 8/1/303 9/1/303 509/1/303 510/1/303
f 7/1/304 8/1/304 510/1/304 511/1/304
f 6/1/305 7/1/305 511/1/305 512/1/305
f 5/1/306 6/1/306 512/1/306 513/1/306
f 2/1/307 3/1/307 515/1/307 516/1/307
f 4/1/308 5/1/308 513/1/308 514/1/308
f 11/1/309 1/1/309 517/1/309 507/1/309
f 1/1/310 2/1/310 516/1/310 517/1/310
f 10/1/311 11/1/311 507/1/311 508/1/311
f 517/1/312 516/1/312 515/1/312 514/1/312 513/1/312 512/1/312 511/1/312 510/1/312 509/1/312 508/1/312 507/1/312
f 528/1/313 539/1/313 538/1/313 527/1/313
f 519/1/314 530/1/314 529/1/314 518/1/314
f 518/1/315 529/1/315 539/1/315 528/1/315
f 522/1/316 533/1/316 532/1/316 521/1/316
f 520/1/317 531/1/317 530/1/317 519/1/317
f 523/1/318 534/1/318 533/1/318 522/1/318
f 524/1/319 535/1/319 534/1/319 523/1/319
f 525/1/320 536/1/320 535/1/320 524/1/320
f 526/1/321 537/1/321 536/1/321 525/1/321
f 527/1/322 538/1/322 537/1/322 526/1/322
f 537/1/323 548/1/323 547/1/323 536/1/323
f 538/1/324 549/1/324 548/1/324 537/1/324
f 539/1/325 550/1/325 549/1/325 538/1/325
f 530/1/326 541/1/326 540/1/326 529/1/326
f 529/1/327 540/1/327 550/1/327 539/1/327
f 533/1/328 544/1/328 543/1/328 532/1/328
f 531/1/329 542/1/329 541/1/329 530/1/329
f 534/1/330 545/1/330 544/1/330 533/1/330
f 535/1/331 546/1/331 545/1/331 534/1/331
f 536/1/332 547/1/332 546/1/332 535/1/332
f 550/1/333 561/1/333 560/1/333 549/1/333
f 541/1/334 552/1/334 551/1/334 540/1/334
f 540/1/335 551/1/335 561/1/335 550/1/335
f 544/1/336 555/1/336 554/1/336 543/1/336
f 542/1/337 553/1/337 552/1/337 541/1/337
f 545/1/338 556/1/338 555/1/338 544/1/338
f 546/1/339 557/1/339 556/1/339 545/1/339
f 547/1/340 558/1/340 557/1/340 546/1/340
f 548/1/341 559/1/341 558/1/341 547/1/341
f 549/1/342 560/1/342 559/1/342 548/1/342
f 555/1/343 566/1/343 565/1/343 554/1/343
f 553/1/344 564/1/344 563/1/344 552/1/344
f 556/1/345 567/1/345 566/1/345 555/1/345
f 557/1/346 568/1/346 567/1/346 556/1/346
f 558/1/347 569/1/347 568/1/347 557/1/347
f 559/1/348 570/1/348 569/1/348 558/1/348
f 560/1/349 571/1/349 570/1/349 559/1/349
f 561/1/350 572/1/350 571/1/350 560/1/350
f 552/1/351 563/1/351 562/1/351 551/1/351
f 551/1/352 562/1/352 572/1/352 561/1/352
f 568/1/353 579/1/353 578/1/353 567/1/353
f 569/1/354 580/1/354 579/1/354 568/1/354
f 570/1/355 581/1/355 580/1/355 569/1/355
f 571/1/356 582/1/356 581/1/356 570/1/356
f 572/1/357 583/1/357 582/1/357 571/1/357
f 563/1/358 574/1/358 573/1/358 562/1/358
f 562/1/359 573/1/359 583/1/359 572/1/359
f 566/1/360 577/1/360 576/1/360 565/1/360
f 564/1/361 575/1/361 574/1/361 563/1/361
f 567/1/362 578/1/362 577/1/362 566/1/362
f 581/1/363 592/1/363 591/1/363 580/1/363
f 582/1/364 593/1/364 592/1/364 581/1/364
f 583/1/365 594/1/365 593/1/365 582/1/365
f 574/1/366 585/1/366 584/1/366 573/1/366
f 573/1/367 584/1/367 594/1/367 583/1/367
f 577/1/368 588/1/368 587/1/368 576/1/368
f 575/1/369 586/1/369 585/1/369 574/1/369
f 578/1/370 589/1/370 588/1/370 577/1/370
f 579/1/371 590/1/371 589/1/371 578/1/371
f 580/1/372 591/1/372 590/1/372 579/1/372
f 594/1/373 605/1/373 604/1/373 593/1/373
f 585/1/374 596/1/374 595/1/374 584/1/374
f 584/1/375 595/1/375 605/1/375 594/1/375
f 588/1/376 599/1/376 598/1/376 587/1/376
f 586/1/377 597/1/377 596/1/377 585/1/377
f 589/1/378 600/1/378 599/1/378 588/1/378
f 590/1/379 601/1/379 600/1/379 589/1/379
f 591/1/380 602/1/380 601/1/380 590/1/380
f 592/1/381 603/1/381 602/1/381 591/1/381
f 593/1/382 604/1/382 603/1/382 592/1/382
f 597/1/383 608/1/383 607/1/383 596/1/383
f 600/1/384 611/1/384 610/1/384 599/1/384
f 601/1/385 612/1/385 611/1/385 600/1/385
f 602/1/386 613/1/386 612/1/386 601/1/386
f 603/1/387 614/1/387 613/1/387 602/1/387
f 604/1/388 615/1/388 614/1/388 603/1/388
f 605/1/389 616/1/389 615/1/389 604/1/389
f 596/1/390 607/1/390 606/1/390 595/1/390
f 595/1/391 606/1/391 616/1/391 605/1/391
f 599/1/392 610/1/392 609/1/392 598/1/392
f 613/1/393 624/1/393 623/1/393 612/1/393
f 614/1/394 625/1/394 624/1/394 613/1/394
f 615/1/395 626/1/395 625/1/395 614/1/395
f 616/1/396 627/1/396 626/1/396 615/1/396
f 607/1/397 618/1/397 617/1/397 606/1/397
f 606/1/398 617/1/398 627/1/398 616/1/398
f 610/1/399 621/1/399 620/1/399 609/1/399
f 608/1/400 619/1/400 618/1/400 607/1/400
f 611/1/401 622/1/401 621/1/401 610/1/401
f 612/1/402 623/1/402 622/1/402 611/1/402
f 626/1/403 637/1/403 636/1/403 625/1/403
f 627/1/404 638/1/404 637/1/404 626/1/404
f 618/1/405 629/1/405 628/1/405 617/1/405
f 617/1/406 628/1/406 638/1/406 627/1/406
f 621/1/407 632/1/407 631/1/407 620/1/407
f 619/1/408 630/1/408 629/1/408 618/1/408
f 622/1/409 633/1/409 632/1/409 621/1/409
f 623/1/410 634/1/410 633/1/410 622/1/410
f 624/1/411 635/1/411 634/1/411 623/1/411
f 625/1/412 636/1/412 635/1/412 624/1/412
f 629/1/413 640/1/413 639/1/413 628/1/413
f 628/1/414 639/1/414 649/1/414 638/1/414
f 632/1/415 643/1/415 642/1/415 631/1/415
f 630/1/416 641/1/416 640/1/416 629/1/416
f 633/1/417 644/1/417 643/1/417 632/1/417
f 634/1/418 645/1/418 644/1/418 633/1/418
f 635/1/419 646/1/419 645/1/419 634/1/419
f 636/1/420 647/1/420 646/1/420 635/1/420
f 637/1/421 648/1/421 647/1/421 636/1/421
f 638/1/422 649/1/422 648/1/422 637/1/422
f 644/1/423 655/1/423 654/1/423 643/1/423
f 645/1/424 656/1/424 655/1/424 644/1/424
f 646/1/425 657/1/425 656/1/425 645/1/425
f 647/1/426 658/1/426 657/1/426 646/1/426
f 648/1/427 659/1/427 658/1/427 647/1/427
f 649/1/428 660/1/428 659/1/428 648/1/428
f 640/1/429 651/1/429 650/1/429 639/1/429
f 639/1/430 650/1/430 660/1/430 649/1/430
f 643/1/431 654/1/431 653/1/431 642/1/431
f 641/1/432 652/1/432 651/1/432 640/1/432
f 657/1/433 668/1/433 667/1/433 656/1/433
f 658/1/434 669/1/434 668/1/434 657/1/434
f 659/1/435 670/1/435 669/1/435 658/1/435
f 660/1/436 671/1/436 670/1/436 659/1/436
f 651/1/437 662/1/437 661/1/437 650/1/437
f 650/1/438 661/1/438 671/1/438 660/1/438
f 654/1/439 665/1/439 664/1/439 653/1/439
f 652/1/440 663/1/440 662/1/440 651/1/440
f 655/1/441 666/1/441 665/1/441 654/1/441
f 656/1/442 667/1/442 666/1/442 655/1/442
f 670/1/443 681/1/443 680/1/443 669/1/443
f 671/1/444 682/1/444 681/1/444 670/1/444
f 662/1/445 673/1/445 672/1/445 661/1/445
f 661/1/446 672/1/446 682/1/446 671/1/446
f 665/1/447 676/1/447 675/1/447 664/1/447
f 663/1/448 674/1/448 673/1/448 662/1/448
f 666/1/449 677/1/449 676/1/449 665/1/449
f 667/1/450 678/1/450 677/1/450 666/1/450
f 668/1/451 679/1/451 678/1/451 667/1/451
f 669/1/452 680/1/452 679/1/452 668/1/452
f 672/1/453 683/1/453 693/1/453 682/1/453
f 676/1/454 687/1/454 686/1/454 675/1/454
f 674/1/455 685/1/455 684/1/455 673/1/455
f 677/1/456 688/1/456 687/1/456 676/1/456
f 678/1/457 689/1/457 688/1/457 677/1/457
f 679/1/458 690/1/458 689/1/458 678/1/458
f 680/1/459 691/1/459 690/1/459 679/1/459
f 681/1/460 692/1/460 691/1/460 680/1/460
f 682/1/461 693/1/461 692/1/461 681/1/461
f 673/1/462 684/1/462 683/1/462 672/1/462
f 689/1/463 700/1/463 699/1/463 688/1/463
f 690/1/464 701/1/464 700/1/464 689/1/464
f 691/1/465 702/1/465 701/1/465 690/1/465
f 692/1/466 703/1/466 702/1/466 691/1/466
f 693/1/467 704/1/467 703/1/467 692/1/467
f 684/1/468 695/1/468 694/1/468 683/1/468
f 683/1/469 694/1/469 704/1/469 693/1/469
f 687/1/470 698/1/470 697/1/470 686/1/470
f 685/1/471 696/1/471 695/1/471 684/1/471
f 688/1/472 699/1/472 698/1/472 687/1/472
f 702/1/473 713/1/473 712/1/473 701/1/473
f 703/1/474 714/1/474 713/1/474 702/1/474
f 704/1/475 715/1/475 714/1/475 703/1/475
f 695/1/476 706/1/476 705/1/476 694/1/476
f 694/1/477 705/1/477 715/1/477 704/1/477
f 698/1/478 709/1/478 708/1/478 697/1/478
f 696/1/479 707/1/479 706/1/479 695/1/479
f 699/1/480 710/1/480 709/1/480 698/1/480
f 700/1/481 711/1/481 710/1/481 699/1/481
f 701/1/482 712/1/482 711/1/482 700/1/482
f 715/1/483 726/1/483 725/1/483 714/1/483
f 706/1/484 717/1/484 716/1/484 705/1/484
f 705/1/485 716/1/485 726/1/485 715/1/485
f 709/1/486 720/1/486 719/1/486 708/1/486
f 707/1/487 718/1/487 717/1/487 706/1/487
f 710/1/488 721/1/488 720/1/488 709/1/488
f 711/1/489 722/1/489 721/1/489 710/1/489
f 712/1/490 723/1/490 722/1/490 711/1/490
f 713/1/491 724/1/491 723/1/491 712/1/491
f 714/1/492 725/1/492 724/1/492 713/1/492
f 718/1/493 729/1/493 728/1/493 717/1/493
f 721/1/494 732/1/494 731/1/494 720/1/494
f 722/1/495 733/1/495 732/1/495 721/1/495
f 723/1/496 734/1/496 733/1/496 722/1/496
f 724/1/497 735/1/497 734/1/497 723/1/497
f 725/1/498 736/1/498 735/1/498 724/1/498
f 726/1/499 737/1/499 736/1/499 725/1/499
f 717/1/500 728/1/500 727/1/500 716/1/500
f 716/1/501 727/1/501 737/1/501 726/1/501
f 720/1/502 731/1/502 730/1/502 719/1/502
f 734/1/503 745/1/503 744/1/503 733/1/503
f 735/1/504 746/1/504 745/1/504 734/1/504
f 736/1/505 747/1/505 746/1/505 735/1/505
f 737/1/506 748/1/506 747/1/506 736/1/506
f 728/1/507 739/1/507 738/1/507 727/1/507
f 727/1/508 738/1/508 748/1/508 737/1/508
f 731/1/509 742/1/509 741/1/509 730/1/509
f 729/1/510 740/1/510 739/1/510 728/1/510
f 732/1/511 743/1/511 742/1/511 731/1/511
f 733/1/512 744/1/512 743/1/512 732/1/512
f 747/1/513 758/1/513 757/1/513 746/1/513
f 748/1/514 759/1/514 758/1/514 747/1/514
f 739/1/515 750/1/515 749/1/515 738/1/515
f 738/1/516 749/1/516 759/1/516 748/1/516
f 742/1/517 753/1/517 752/1/517 741/1/517
f 740/1/518 751/1/518 750/1/518 739/1/518
f 743/1/519 754/1/519 753/1/519 742/1/519
f 744/1/520 755/1/520 754/1/520 743/1/520
f 745/1/521 756/1/521 755/1/521 744/1/521
f 746/1/522 757/1/522 756/1/522 745/1/522
f 750/1/523 761/1/523 760/1/523 749/1/523
f 749/1/524 760/1/524 770/1/524 759/1/524
f 753/1/525 764/1/525 763/1/525 752/1/525
f 751/1/526 762/1/526 761/1/526 750/1/526
f 754/1/527 765/1/527 764/1/527 753/1/527
f 755/1/528 766/1/528 765/1/528 754/1/528
f 756/1/529 767/1/529 766/1/529 755/1/529
f 757/1/530 768/1/530 767/1/530 756/1/530
f 758/1/531 769/1/531 768/1/531 757/1/531
f 759/1/532 770/1/532 769/1/532 758/1/532
f 765/1/533 776/1/533 775/1/533 764/1/533
f 766/1/534 777/1/534 776/1/534 765/1/534
f 767/1/535 778/1/535 777/1/535 766/1/535
f 768/1/536 779/1/536 778/1/536 767/1/536
f 769/1/537 780/1/537 779/1/537 768/1/537
f 770/1/538 781/1/538 780/1/538 769/1/538
f 761/1/539 772/1/539 771/1/539 760/1/539
f 760/1/540 771/1/540 781/1/540 770/1/540
f 764/1/541 775/1/541 774/1/541 763/1/541
f 762/1/542 773/1/542 772/1/542 761/1/542
f 778/1/543 789/1/543 788/1/543 777/1/543
f 779/1/544 790/1/544 789/1/544 778/1/544
f 780/1/545 791/1/545 790/1/545 779/1/545
f 781/1/546 792/1/546 791/1/546 780/1/546
f 772/1/547 783/1/547 782/1/547 771/1/547
f 771/1/548 782/1/548 792/1/548 781/1/548
f 775/1/549 786/1/549 785/1/549 774/1/549
f 773/1/550 784/1/550 783/1/550 772/1/550
f 776/1/551 787/1/551 786/1/551 775/1/551
f 777/1/552 788/1/552 787/1/552 776/1/552
f 791/1/553 802/1/553 801/1/553 790/1/553
f 792/1/554 803/1/554 802/1/554 791/1/554
f 783/1/555 794/1/555 793/1/555 782/1/555
f 782/1/556 793/1/556 803/1/556 792/1/556
f 786/1/557 797/1/557 796/1/557 785/1/557
f 784/1/558 795/1/558 794/1/558 783/1/558
f 787/1/559 798/1/559 797/1/559 786/1/559
f 788/1/560 799/1/560 798/1/560 787/1/560
f 789/1/561 800/1/561 799/1/561 788/1/561
f 790/1/562 801/1/562 800/1/562 789/1/562
f 794/1/563 805/1/563 804/1/563 793/1/563
f 793/1/564 804/1/564 814/1/564 803/1/564
f 797/1/565 808/1/565 807/1/565 796/1/565
f 795/1/566 806/1/566 805/1/566 794/1/566
f 798/1/567 809/1/567 808/1/567 797/1/567
f 799/1/568 810/1/568 809/1/568 798/1/568
f 800/1/569 811/1/569 810/1/569 799/1/569
f 801/1/570 812/1/570 811/1/570 800/1/570
f 802/1/571 813/1/571 812/1/571 801/1/571
f 803/1/572 814/1/572 813/1/572 802/1/572
f 810/1/573 821/1/573 820/1/573 809/1/573
f 811/1/574 822/1/574 821/1/574 810/1/574
f 812/1/575 823/1/575 822/1/575 811/1/575
f 813/1/576 824/1/576 823/1/576 812/1/576
f 814/1/577 825/1/577 824/1/577 813/1/577
f 805/1/578 816/1/578 815/1/578 804/1/578
f 804/1/579 815/1/579 825/1/579 814/1/579
f 808/1/580 819/1/580 818/1/580 807/1/580
f 806/1/581 817/1/581 816/1/581 805/1/581
f 809/1/582 820/1/582 819/1/582 808/1/582
f 823/1/583 834/1/583 833/1/583 822/1/583
f 824/1/584 835/1/584 834/1/584 823/1/584
f 825/1/585 836/1/585 835/1/585 824/1/585
f 816/1/586 827/1/586 826/1/586 815/1/586
f 815/1/587 826/1/587 836/1/587 825/1/587
f 819/1/588 830/1/588 829/1/588 818/1/588
f 817/1/589 828/1/589 827/1/589 816/1/589
f 820/1/590 831/1/590 830/1/590 819/1/590
f 821/1/591 832/1/591 831/1/591 820/1/591
f 822/1/592 833/1/592 832/1/592 821/1/592
f 836/1/593 847/1/593 846/1/593 835/1/593
f 827/1/594 838/1/594 837/1/594 826/1/594
f 826/1/595 837/1/595 847/1/595 836/1/595
f 830/1/596 841/1/596 840/1/596 829/1/596
f 828/1/597 839/1/597 838/1/597 827/1/597
f 831/1/598 842/1/598 841/1/598 830/1/598
f 832/1/599 843/1/599 842/1/599 831/1/599
f 833/1/600 844/1/600 843/1/600 832/1/600
f 834/1/601 845/1/601 844/1/601 833/1/601
f 835/1/602 846/1/602 845/1/602 834/1/602
f 841/1/603 852/1/603 851/1/603 840/1/603
f 839/1/604 850/1/604 849/1/604 838/1/604
f 842/1/605 853/1/605 852/1/605 841/1/605
f 843/1/606 854/1/606 853/1/606 842/1/606
f 844/1/607 855/1/607 854/1/607 843/1/607
f 845/1/608 856/1/608 855/1/608 844/1/608
f 846/1/609 857/1/609 856/1/609 845/1/609
f 847/1/610 858/1/610 857/1/610 846/1/610
f 838/1/611 849/1/611 848/1/611 837/1/611
f 837/1/612 848/1/612 858/1/612 847/1/612
f 854/1/613 865/1/613 864/1/613 853/1/613
f 855/1/614 866/1/614 865/1/614 854/1/614
f 856/1/615 867/1/615 866/1/615 855/1/615
f 857/1/616 868/1/616 867/1/616 856/1/616
f 858/1/617 869/1/617 868/1/617 857/1/617
f 849/1/618 860/1/618 859/1/618 848/1/618
f 848/1/619 859/1/619 869/1/619 858/1/619
f 852/1/620 863/1/620 862/1/620 851/1/620
f 850/1/621 861/1/621 860/1/621 849/1/621
f 853/1/622 864/1/622 863/1/622 852/1/622
f 867/1/323 878/1/323 877/1/323 866/1/323
f 868/1/324 879/1/324 878/1/324 867/1/324
f 869/1/325 880/1/325 879/1/325 868/1/325
f 860/1/326 871/1/326 870/1/326 859/1/326
f 859/1/327 870/1/327 880/1/327 869/1/327
f 863/1/328 874/1/328 873/1/328 862/1/328
f 861/1/329 872/1/329 871/1/329 860/1/329
f 864/1/330 875/1/330 874/1/330 863/1/330
f 865/1/331 876/1/331 875/1/331 864/1/331
f 866/1/332 877/1/332 876/1/332 865/1/332
f 880/1/333 891/1/333 890/1/333 879/1/333
f 871/1/334 882/1/334 881/1/334 870/1/334
f 870/1/335 881/1/335 891/1/335 880/1/335
f 874/1/336 885/1/336 884/1/336 873/1/336
f 872/1/337 883/1/337 882/1/337 871/1/337
f 875/1/338 886/1/338 885/1/338 874/1/338
f 876/1/339 887/1/339 886/1/339 875/1/339
f 877/1/340 888/1/340 887/1/340 876/1/340
f 878/1/341 889/1/341 888/1/341 877/1/341
f 879/1/342 890/1/342 889/1/342 878/1/342
f 886/1/345 897/1/345 896/1/345 885/1/345
f 887/1/346 898/1/346 897/1/346 886/1/346
f 888/1/347 899/1/347 898/1/347 887/1/347
f 889/1/348 900/1/348 899/1/348 888/1/348
f 890/1/349 901/1/349 900/1/349 889/1/349
f 891/1/350 902/1/350 901/1/350 890/1/350
f 882/1/351 893/1/351 892/1/351 881/1/351
f 881/1/352 892/1/352 902/1/352 891/1/352
f 885/1/343 896/1/343 895/1/343 884/1/343
f 883/1/344 894/1/344 893/1/344 882/1/344
f 899/1/354 910/1/354 909/1/354 898/1/354
f 900/1/355 911/1/355 910/1/355 899/1/355
f 901/1/356 912/1/356 911/1/356 900/1/356
f 902/1/357 913/1/357 912/1/357 901/1/357
f 893/1/358 904/1/358 903/1/358 892/1/358
f 892/1/359 903/1/359 913/1/359 902/1/359
f 896/1/360 907/1/360 906/1/360 895/1/360
f 894/1/361 905/1/361 904/1/361 893/1/361
f 897/1/362 908/1/362 907/1/362 896/1/362
f 898/1/353 909/1/353 908/1/353 897/1/353
f 912/1/364 923/1/364 922/1/364 911/1/364
f 913/1/365 924/1/365 923/1/365 912/1/365
f 904/1/366 915/1/366 914/1/366 903/1/366
f 903/1/367 914/1/367 924/1/367 913/1/367
f 907/1/368 918/1/368 917/1/368 906/1/368
f 905/1/369 916/1/369 915/1/369 904/1/369
f 908/1/370 919/1/370 918/1/370 907/1/370
f 909/1/371 920/1/371 919/1/371 908/1/371
f 910/1/372 921/1/372 920/1/372 909/1/372
f 911/1/363 922/1/363 921/1/363 910/1/363
f 915/1/374 926/1/374 925/1/374 914/1/374
f 914/1/375 925/1/375 935/1/375 924/1/375
f 918/1/376 929/1/376 928/1/376 917/1/376
f 916/1/377 927/1/377 926/1/377 915/1/377
f 919/1/378 930/1/378 929/1/378 918/1/378
f 920/1/379 931/1/379 930/1/379 919/1/379
f 921/1/380 932/1/380 931/1/380 920/1/380
f 922/1/381 933/1/381 932/1/381 921/1/381
f 923/1/382 934/1/382 933/1/382 922/1/382
f 924/1/373 935/1/373 934/1/373 923/1/373
f 931/1/385 942/1/385 941/1/385 930/1/385
f 932/1/386 943/1/386 942/1/386 931/1/386
f 933/1/387 944/1/387 943/1/387 932/1/387
f 934/1/388 945/1/388 944/1/388 933/1/388
f 935/1/389 946/1/389 945/1/389 934/1/389
f 926/1/390 937/1/390 936/1/390 925/1/390
f 925/1/391 936/1/391 946/1/391 935/1/391
f 929/1/392 940/1/392 939/1/392 928/1/392
f 927/1/383 938/1/383 937/1/383 926/1/383
f 930/1/384 941/1/384 940/1/384 929/1/384
f 944/1/394 955/1/394 954/1/394 943/1/394
f 945/1/395 956/1/395 955/1/395 944/1/395
f 946/1/396 957/1/396 956/1/396 945/1/396
f 937/1/397 948/1/397 947/1/397 936/1/397
f 936/1/398 947/1/398 957/1/398 946/1/398
f 940/1/399 951/1/399 950/1/399 939/1/399
f 938/1/400 949/1/400 948/1/400 937/1/400
f 941/1/401 952/1/401 951/1/401 940/1/401
f 942/1/402 953/1/402 952/1/402 941/1/402
f 943/1/393 954/1/393 953/1/393 942/1/393
f 957/1/404 968/1/404 967/1/404 956/1/404
f 948/1/405 959/1/405 958/1/405 947/1/405
f 947/1/406 958/1/406 968/1/406 957/1/406
f 951/1/407 962/1/407 961/1/407 950/1/407
f 949/1/408 960/1/408 959/1/408 948/1/408
f 952/1/409 963/1/409 962/1/409 951/1/409
f 953/1/410 964/1/410 963/1/410 952/1/410
f 954/1/411 965/1/411 964/1/411 953/1/411
f 955/1/412 966/1/412 965/1/412 954/1/412
f 956/1/403 967/1/403 966/1/403 955/1/403
f 962/1/415 973/1/415 972/1/415 961/1/415
f 960/1/416 971/1/416 970/1/416 959/1/416
f 963/1/417 974/1/417 973/1/417 962/1/417
f 964/1/418 975/1/418 974/1/418 963/1/418
f 965/1/419 976/1/419 975/1/419 964/1/419
f 966/1/420 977/1/420 976/1/420 965/1/420
f 967/1/421 978/1/421 977/1/421 966/1/421
f 968/1/422 979/1/422 978/1/422 967/1/422
f 959/1/413 970/1/413 969/1/413 958/1/413
f 958/1/414 969/1/414 979/1/414 968/1/414
f 975/1/424 986/1/424 985/1/424 974/1/424
f 976/1/425 987/1/425 986/1/425 975/1/425
f 977/1/426 988/1/426 987/1/426 976/1/426
f 978/1/427 989/1/427 988/1/427 977/1/427
f 979/1/428 990/1/428 989/1/428 978/1/428
f 970/1/429 981/1/429 980/1/429 969/1/429
f 969/1/430 980/1/430 990/1/430 979/1/430
f 973/1/431 984/1/431 983/1/431 972/1/431
f 971/1/432 982/1/432 981/1/432 970/1/432
f 974/1/423 985/1/423 984/1/423 973/1/423
f 988/1/434 999/1/434 998/1/434 987/1/434
f 989/1/435 1000/1/435 999/1/435 988/1/435
f 990/1/436 1001/1/436 1000/1/436 989/1/436
f 981/1/437 992/1/437 991/1/437 980/1/437
f 980/1/438 991/1/438 1001/1/438 990/1/438
f 984/1/439 995/1/439 994/1/439 983/1/439
f 982/1/440 993/1/440 992/1/440 981/1/440
f 985/1/441 996/1/441 995/1/441 984/1/441
f 986/1/442 997/1/442 996/1/442 985/1/442
f 987/1/433 998/1/433 997/1/433 986/1/433
f 1001/1/444 1012/1/444 1011/1/444 1000/1/444
f 992/1/445 1003/1/445 1002/1/445 991/1/445
f 991/1/446 1002/1/446 1012/1/446 1001/1/446
f 995/1/447 1006/1/447 1005/1/447 994/1/447
f 993/1/448 1004/1/448 1003/1/448 992/1/448
f 996/1/449 1007/1/449 1006/1/449 995/1/449
f 997/1/450 1008/1/450 1007/1/450 996/1/450
f 998/1/451 1009/1/451 1008/1/451 997/1/451
f 999/1/452 1010/1/452 1009/1/452 998/1/452
f 1000/1/443 1011/1/443 1010/1/443 999/1/443
f 1004/1/623 1015/1/623 1014/1/623 1003/1/623
f 526/1/624 1026/1/624 1025/1/624 527/1/624
f 1007/1/625 1018/1/625 1017/1/625 1006/1/625
f 1008/1/626 1019/1/626 1018/1/626 1007/1/626
f 1009/1/627 1020/1/627 1019/1/627 1008/1/627
f 1010/1/628 1021/1/628 1020/1/628 1009/1/628
f 1011/1/629 1022/1/629 1021/1/629 1010/1/629
f 1012/1/630 1023/1/630 1022/1/630 1011/1/630
f 1003/1/631 1014/1/631 1013/1/631 1002/1/631
f 1002/1/632 1013/1/632 1023/1/632 1012/1/632
f 1006/1/633 1017/1/633 1016/1/633 1005/1/633
f 525/1/634 1027/1/634 1026/1/634 526/1/634
f 524/1/635 1028/1/635 1027/1/635 525/1/635
f 523/1/636 1029/1/636 1028/1/636 524/1/636
f 522/1/637 1030/1/637 1029/1/637 523/1/637
f 519/1/638 1033/1/638 1032/1/638 520/1/638
f 521/1/639 1031/1/639 1030/1/639 522/1/639
f 528/1/640 1024/1/640 1034/1/640 518/1/640
f 518/1/641 1034/1/641 1033/1/641 519/1/641
f 527/1/642 1025/1/642 1024/1/642 528/1/642
f 1034/1/643 1024/1/643 1025/1/643 1026/1/643 1027/1/643 1028/1/643 1029/1/643 1030/1/643 1031/1/643 1032/1/643 1033/1/643
f 15/1/644 4/1/644 521/1/644 532/1/644
f 3/1/645 14/1/645 531/1/645 520/1/645
f 26/1/646 15/1/646 532/1/646 543/1/646
f 14/1/647 25/1/647 542/1/647 531/1/647
f 37/1/648 26/1/648 543/1/648 554/1/648
f 25/1/649 36/1/649 553/1/649 542/1/649
f 48/1/650 37/1/650 554/1/650 565/1/650
f 36/1/651 47/1/651 564/1/651 553/1/651
f 59/1/652 48/1/652 565/1/652 576/1/652
f 47/1/653 58/1/653 575/1/653 564/1/653
f 70/1/654 59/1/654 576/1/654 587/1/654
f 58/1/655 69/1/655 586/1/655 575/1/655
f 81/1/656 70/1/656 587/1/656 598/1/656
f 69/1/657 80/1/657 597/1/657 586/1/657
f 80/1/658 91/1/658 608/1/658 597/1/658
f 92/1/659 81/1/659 598/1/659 609/1/659
f 103/1/660 92/1/660 609/1/660 620/1/660
f 91/1/661 102/1/661 619/1/661 608/1/661
f 114/1/662 103/1/662 620/1/662 631/1/662
f 102/1/663 113/1/663 630/1/663 619/1/663
f 125/1/664 114/1/664 631/1/664 642/1/664
f 113/1/665 124/1/665 641/1/665 630/1/665
f 124/1/666 135/1/666 652/1/666 641/1/666
f 136/1/667 125/1/667 642/1/667 653/1/667
f 147/1/668 136/1/668 653/1/668 664/1/668
f 135/1/669 146/1/669 663/1/669 652/1/669
f 158/1/670 147/1/670 664/1/670 675/1/670
f 146/1/671 157/1/671 674/1/671 663/1/671
f 169/1/672 158/1/672 675/1/672 686/1/672
f 157/1/673 168/1/673 685/1/673 674/1/673
f 180/1/674 169/1/674 686/1/674 697/1/674
f 168/1/675 179/1/675 696/1/675 685/1/675
f 191/1/676 180/1/676 697/1/676 708/1/676
f 179/1/677 190/1/677 707/1/677 696/1/677
f 202/1/678 191/1/678 708/1/678 719/1/678
f 190/1/679 201/1/679 718/1/679 707/1/679
f 201/1/680 212/1/680 729/1/680 718/1/680
f 213/1/681 202/1/681 719/1/681 730/1/681
f 224/1/682 213/1/682 730/1/682 741/1/682
f 212/1/683 223/1/683 740/1/683 729/1/683
f 235/1/684 224/1/684 741/1/684 752/1/684
f 223/1/685 234/1/685 751/1/685 740/1/685
f 246/1/686 235/1/686 752/1/686 763/1/686
f 234/1/687 245/1/687 762/1/687 751/1/687
f 245/1/688 256/1/688 773/1/688 762/1/688
f 257/1/689 246/1/689 763/1/689 774/1/689
f 268/1/690 257/1/690 774/1/690 785/1/690
f 256/1/691 267/1/691 784/1/691 773/1/691
f 279/1/692 268/1/692 785/1/692 796/1/692
f 267/1/693 278/1/693 795/1/693 784/1/693
f 290/1/694 279/1/694 796/1/694 807/1/694
f 278/1/695 289/1/695 806/1/695 795/1/695
f 289/1/696 300/1/696 817/1/696 806/1/696
f 301/1/697 290/1/697 807/1/697 818/1/697
f 312/1/698 301/1/698 818/1/698 829/1/698
f 300/1/699 311/1/699 828/1/699 817/1/699
f 323/1/700 312/1/700 829/1/700 840/1/700
f 311/1/701 322/1/701 839/1/701 828/1/701
f 334/1/702 323/1/702 840/1/702 851/1/702
f 322/1/703 333/1/703 850/1/703 839/1/703
f 345/1/704 334/1/704 851/1/704 862/1/704
f 333/1/705 344/1/705 861/1/705 850/1/705
f 356/1/646 345/1/646 862/1/646 873/1/646
f 344/1/647 355/1/647 872/1/647 861/1/647
f 367/1/648 356/1/648 873/1/648 884/1/648
f 355/1/649 366/1/649 883/1/649 872/1/649
f 366/1/651 377/1/651 894/1/651 883/1/651
f 378/1/650 367/1/650 884/1/650 895/1/650
f 389/1/652 378/1/652 895/1/652 906/1/652
f 377/1/653 388/1/653 905/1/653 894/1/653
f 400/1/654 389/1/654 906/1/654 917/1/654
f 388/1/655 399/1/655 916/1/655 905/1/655
f 411/1/656 400/1/656 917/1/656 928/1/656
f 399/1/657 410/1/657 927/1/657 916/1/657
f 410/1/658 421/1/658 938/1/658 927/1/658
f 422/1/659 411/1/659 928/1/659 939/1/659
f 433/1/660 422/1/660 939/1/660 950/1/660
f 421/1/661 432/1/661 949/1/661 938/1/661
f 444/1/662 433/1/662 950/1/662 961/1/662
f 432/1/663 443/1/663 960/1/663 949/1/663
f 455/1/664 444/1/664 961/1/664 972/1/664
f 443/1/665 454/1/665 971/1/665 960/1/665
f 466/1/667 455/1/667 972/1/667 983/1/667
f 454/1/666 465/1/666 982/1/666 971/1/666
f 477/1/668 466/1/668 983/1/668 994/1/668
f 465/1/669 476/1/669 993/1/669 982/1/669
f 488/1/670 477/1/670 994/1/670 1005/1/670
f 476/1/671 487/1/671 1004/1/671 993/1/671
f 497/1/706 496/1/706 1013/1/706 1014/1/706
f 498/1/707 497/1/707 1014/1/707 1015/1/707
f 500/1/708 499/1/708 1016/1/708 1017/1/708
f 501/1/709 500/1/709 1017/1/709 1018/1/709
f 502/1/710 501/1/710 1018/1/710 1019/1/710
f 503/1/711 502/1/711 1019/1/711 1020/1/711
f 504/1/712 503/1/712 1020/1/712 1021/1/712
f 505/1/713 504/1/713 1021/1/713 1022/1/713
f 506/1/714 505/1/714 1022/1/714 1023/1/714
f 496/1/715 506/1/715 1023/1/715 1013/1/715
f 487/1/716 498/1/716 1015/1/716 1004/1/716
f 499/1/717 488/1/717 1005/1/717 1016/1/717
f 515/1/718 3/1/718 520/1/718 1032/1/718
f 4/1/719 514/1/719 1031/1/719 521/1/719
f 514/1/720 515/1/720 1032/1/720 1031/1/720
