# Blender 4.1.1
# www.blender.org
o straight_down
v 0.000000 0.000000 1.000000
v 0.000000 1.000000 1.000000
v 0.000000 0.000000 -1.000000
v 0.000000 1.000000 -1.000000
v 3.400001 0.300000 1.000000
v 3.400001 1.300000 1.000000
v 3.400001 0.300000 -1.000000
v 3.400001 1.300000 -1.000000
v 0.000000 1.000000 0.800000
v 0.000000 1.000000 -0.800000
v 3.400001 1.300000 -0.800000
v 3.400001 1.300000 0.800000
v 0.000000 0.200000 0.800000
v 0.000000 0.200000 -0.800000
v 3.400001 0.500000 -0.800000
v 3.400001 0.500000 0.800000
vn 1.0000 -0.0000 -0.0000
vn -0.0000 -0.0000 -1.0000
vn -0.0879 0.9961 -0.0000
vn -0.0000 -0.0000 1.0000
vn 0.0879 -0.9961 -0.0000
vn -1.0000 -0.0000 -0.0000
vt 0.625000 0.666667
vt 0.375000 0.750000
vt 0.375000 0.500000
vt 0.625000 0.250000
vt 0.375000 0.250000
vt 0.625000 0.583333
vt 0.875000 0.666667
vt 0.625000 1.000000
vt 0.375000 1.000000
vt 0.125000 0.750000
vt 0.125000 0.500000
vt 0.625000 0.750000
vt 0.875000 0.500000
vt 0.625000 0.500000
vt 0.875000 0.583333
vt 0.875000 0.750000
s 0
f 16/1/1 5/2/1 7/3/1
f 4/4/2 7/3/2 3/5/2
f 15/6/3 13/7/3 16/1/3
f 5/2/4 2/8/4 1/9/4
f 7/3/5 1/10/5 3/11/5
f 9/7/3 6/12/3 12/1/3
f 4/13/3 11/6/3 8/14/3
f 9/7/2 16/1/2 13/7/2
f 10/15/4 15/6/4 11/6/4
f 1/9/6 14/15/6 3/5/6
f 7/3/1 8/14/1 11/6/1
f 7/3/1 11/6/1 15/6/1
f 12/1/1 6/12/1 5/2/1
f 7/3/1 15/6/1 16/1/1
f 16/1/1 12/1/1 5/2/1
f 4/4/2 8/14/2 7/3/2
f 15/6/3 14/15/3 13/7/3
f 5/2/4 6/12/4 2/8/4
f 7/3/5 5/2/5 1/10/5
f 9/7/3 2/16/3 6/12/3
f 4/13/3 10/15/3 11/6/3
f 9/7/2 12/1/2 16/1/2
f 10/15/4 14/15/4 15/6/4
f 1/9/6 2/8/6 9/7/6
f 1/9/6 9/7/6 13/7/6
f 10/15/6 4/13/6 3/5/6
f 1/9/6 13/7/6 14/15/6
f 14/15/6 10/15/6 3/5/6
