# Blender 4.2.1 LTS
# www.blender.org
mtllib water_slide_helix_down.mtl
o Plane
v -3.000000 0.000000 0.000000
v -2.923880 0.382683 0.000000
v -2.707107 0.707107 0.000000
v -1.000000 0.000000 -0.000000
v -1.076121 -0.382683 0.000000
v -1.292893 -0.707107 0.000000
v -1.617316 -0.923879 0.000000
v -2.000000 -1.000000 0.000000
v -2.382683 -0.923879 0.000000
v -2.707107 -0.707107 0.000000
v -2.923879 -0.382683 0.000000
v -2.934443 -0.097516 0.623735
v -2.859986 0.285167 0.607909
v -2.647950 0.609590 0.562839
v -0.978148 -0.097516 0.207912
v -1.052605 -0.480200 0.223738
v -1.264640 -0.804623 0.268808
v -1.581974 -1.021396 0.336259
v -1.956295 -1.097516 0.415823
v -2.330616 -1.021396 0.495388
v -2.647950 -0.804623 0.562839
v -2.859986 -0.480200 0.607909
v -2.740637 -0.195033 1.220210
v -2.671097 0.187651 1.189249
v -2.473065 0.512074 1.101080
v -0.913546 -0.195033 0.406737
v -0.983085 -0.577716 0.437698
v -1.181117 -0.902140 0.525867
v -1.477492 -1.118912 0.657822
v -1.827091 -1.195033 0.813473
v -2.176690 -1.118912 0.969125
v -2.473065 -0.902140 1.101080
v -2.671097 -0.577716 1.189249
v -2.427051 -0.292549 1.763356
v -2.365469 0.090134 1.718614
v -2.190095 0.414557 1.591197
v -0.809017 -0.292549 0.587785
v -0.870600 -0.675233 0.632528
v -1.045973 -0.999656 0.759944
v -1.308437 -1.216429 0.950635
v -1.618034 -1.292549 1.175571
v -1.927631 -1.216429 1.400506
v -2.190095 -0.999656 1.591198
v -2.365468 -0.675233 1.718613
v -2.007392 -0.390066 2.229435
v -1.956458 -0.007382 2.172866
v -1.811408 0.317041 2.011773
v -0.669131 -0.390066 0.743145
v -0.720065 -0.772749 0.799714
v -0.865114 -1.097172 0.960807
v -1.082196 -1.313945 1.201900
v -1.338261 -1.390066 1.486290
v -1.594326 -1.313945 1.770679
v -1.811408 -1.097172 2.011773
v -1.956457 -0.772749 2.172866
v -1.500000 -0.487582 2.598077
v -1.461940 -0.104899 2.532155
v -1.353554 0.219525 2.344424
v -0.500000 -0.487582 0.866026
v -0.538060 -0.870265 0.931948
v -0.646447 -1.194689 1.119678
v -0.808658 -1.411462 1.400637
v -1.000000 -1.487582 1.732051
v -1.191342 -1.411462 2.063465
v -1.353553 -1.194689 2.344424
v -1.461940 -0.870266 2.532154
v -0.927051 -0.585099 2.853170
v -0.903529 -0.202415 2.780775
v -0.836542 0.122008 2.574612
v -0.309017 -0.585098 0.951057
v -0.332539 -0.967782 1.023452
v -0.399526 -1.292205 1.229615
v -0.499778 -1.508978 1.538160
v -0.618034 -1.585099 1.902113
v -0.736290 -1.508978 2.266067
v -0.836542 -1.292205 2.574612
v -0.903528 -0.967782 2.780775
v -0.313585 -0.682615 2.983566
v -0.305629 -0.299932 2.907863
v -0.282970 0.024492 2.692277
v -0.104529 -0.682615 0.994522
v -0.112485 -1.065298 1.070226
v -0.135144 -1.389722 1.285811
v -0.169056 -1.606494 1.608457
v -0.209057 -1.682615 1.989044
v -0.249058 -1.606495 2.369631
v -0.282970 -1.389722 2.692277
v -0.305628 -1.065298 2.907862
v 0.313586 -0.780131 2.983566
v 0.305629 -0.397448 2.907863
v 0.282970 -0.073024 2.692277
v 0.104528 -0.780131 0.994522
v 0.112485 -1.162814 1.070226
v 0.135144 -1.487238 1.285811
v 0.169056 -1.704011 1.608457
v 0.209057 -1.780131 1.989044
v 0.249059 -1.704011 2.369631
v 0.282970 -1.487238 2.692277
v 0.305629 -1.162815 2.907862
v 0.927051 -0.877648 2.853170
v 0.903529 -0.494964 2.780775
v 0.836542 -0.170541 2.574612
v 0.309017 -0.877647 0.951057
v 0.332540 -1.260331 1.023452
v 0.399526 -1.584754 1.229615
v 0.499779 -1.801527 1.538160
v 0.618035 -1.877648 1.902113
v 0.736290 -1.801527 2.266067
v 0.836542 -1.584754 2.574612
v 0.903529 -1.260331 2.780775
v 1.500000 -0.975164 2.598077
v 1.461940 -0.592481 2.532155
v 1.353554 -0.268057 2.344424
v 0.500000 -0.975164 0.866026
v 0.538061 -1.357847 0.931948
v 0.646447 -1.682271 1.119678
v 0.808659 -1.899044 1.400637
v 1.000001 -1.975164 1.732051
v 1.191342 -1.899044 2.063465
v 1.353554 -1.682271 2.344424
v 1.461940 -1.357848 2.532154
v 2.007392 -1.072680 2.229435
v 1.956458 -0.689997 2.172866
v 1.811409 -0.365573 2.011773
v 0.669131 -1.072680 0.743145
v 0.720066 -1.455364 0.799713
v 0.865115 -1.779787 0.960807
v 1.082196 -1.996560 1.201900
v 1.338262 -2.072680 1.486290
v 1.594327 -1.996560 1.770679
v 1.811409 -1.779787 2.011773
v 1.956458 -1.455364 2.172866
v 2.427052 -1.170197 1.763356
v 2.365469 -0.787513 1.718614
v 2.190096 -0.463090 1.591198
v 0.809017 -1.170197 0.587785
v 0.870600 -1.552880 0.632528
v 1.045973 -1.877304 0.759944
v 1.308437 -2.094076 0.950635
v 1.618035 -2.170197 1.175571
v 1.927632 -2.094077 1.400506
v 2.190096 -1.877304 1.591197
v 2.365469 -1.552880 1.718613
v 2.740637 -1.267713 1.220210
v 2.671098 -0.885029 1.189249
v 2.473066 -0.560606 1.101080
v 0.913546 -1.267713 0.406737
v 0.983086 -1.650397 0.437697
v 1.181117 -1.974820 0.525867
v 1.477493 -2.191593 0.657822
v 1.827092 -2.267713 0.813473
v 2.176691 -2.191593 0.969124
v 2.473066 -1.974820 1.101079
v 2.671098 -1.650397 1.189249
v 2.934444 -1.365229 0.623735
v 2.859987 -0.982546 0.607909
v 2.647951 -0.658122 0.562840
v 0.978148 -1.365229 0.207912
v 1.052605 -1.747913 0.223738
v 1.264641 -2.072336 0.268807
v 1.581975 -2.289109 0.336259
v 1.956296 -2.365229 0.415823
v 2.330617 -2.289109 0.495387
v 2.647951 -2.072336 0.562839
v 2.859987 -1.747913 0.607908
v 3.000001 -1.462745 -0.000000
v 2.923881 -1.080062 -0.000000
v 2.707108 -0.755639 0.000000
v 1.000000 -1.462746 -0.000000
v 1.076121 -1.845429 -0.000001
v 1.292894 -2.169853 -0.000000
v 1.617317 -2.386625 -0.000000
v 2.000001 -2.462746 -0.000001
v 2.382684 -2.386626 -0.000001
v 2.707108 -2.169852 -0.000001
v 2.923880 -1.845429 -0.000001
v 2.934444 -1.560262 -0.623736
v 2.859987 -1.177578 -0.607909
v 2.647951 -0.853155 -0.562839
v 0.978148 -1.560262 -0.207912
v 1.052605 -1.942946 -0.223739
v 1.264641 -2.267369 -0.268808
v 1.581975 -2.484142 -0.336260
v 1.956296 -2.560262 -0.415824
v 2.330617 -2.484142 -0.495389
v 2.647951 -2.267369 -0.562840
v 2.859987 -1.942946 -0.607909
v 2.740637 -1.657778 -1.220211
v 2.671098 -1.275095 -1.189250
v 2.473067 -0.950671 -1.101080
v 0.913546 -1.657779 -0.406737
v 0.983085 -2.040462 -0.437698
v 1.181117 -2.364885 -0.525868
v 1.477493 -2.581658 -0.657823
v 1.827092 -2.657778 -0.813474
v 2.176690 -2.581658 -0.969126
v 2.473066 -2.364885 -1.101081
v 2.671098 -2.040462 -1.189250
v 2.427052 -1.755294 -1.763357
v 2.365469 -1.372611 -1.718614
v 2.190097 -1.048188 -1.591198
v 0.809018 -1.755295 -0.587786
v 0.870600 -2.137979 -0.632529
v 1.045973 -2.462402 -0.759944
v 1.308437 -2.679174 -0.950636
v 1.618035 -2.755295 -1.175572
v 1.927632 -2.679174 -1.400507
v 2.190096 -2.462401 -1.591199
v 2.365469 -2.137978 -1.718614
v 2.007392 -1.852811 -2.229436
v 1.956458 -1.470127 -2.172867
v 1.811409 -1.145704 -2.011774
v 0.669131 -1.852811 -0.743145
v 0.720065 -2.235495 -0.799714
v 0.865115 -2.559918 -0.960808
v 1.082196 -2.776690 -1.201901
v 1.338262 -2.852811 -1.486291
v 1.594327 -2.776691 -1.770680
v 1.811409 -2.559918 -2.011774
v 1.956458 -2.235494 -2.172867
v 1.500000 -1.950327 -2.598078
v 1.461940 -1.567644 -2.532155
v 1.353554 -1.243220 -2.344425
v 0.500000 -1.950328 -0.866026
v 0.538060 -2.333011 -0.931949
v 0.646447 -2.657434 -1.119679
v 0.808659 -2.874207 -1.400638
v 1.000001 -2.950327 -1.732053
v 1.191342 -2.874207 -2.063466
v 1.353554 -2.657434 -2.344425
v 1.461940 -2.333011 -2.532155
v 0.927051 -2.047843 -2.853171
v 0.903529 -1.665160 -2.780776
v 0.836543 -1.340737 -2.574614
v 0.309017 -2.047844 -0.951057
v 0.332539 -2.430527 -1.023452
v 0.399526 -2.754951 -1.229616
v 0.499778 -2.971723 -1.538161
v 0.618034 -3.047843 -1.902115
v 0.736290 -2.971723 -2.266068
v 0.836542 -2.754950 -2.574614
v 0.903529 -2.430527 -2.780776
v 0.313585 -2.145360 -2.983567
v 0.305629 -1.762677 -2.907864
v 0.282970 -1.438253 -2.692279
v 0.104529 -2.145360 -0.994523
v 0.112485 -2.528044 -1.070226
v 0.135144 -2.852467 -1.285812
v 0.169056 -3.069239 -1.608458
v 0.209057 -3.145360 -1.989046
v 0.249058 -3.069240 -2.369632
v 0.282970 -2.852467 -2.692279
v 0.305629 -2.528043 -2.907864
v -0.313586 -2.242876 -2.983567
v -0.305629 -1.860193 -2.907864
v -0.282970 -1.535770 -2.692280
v -0.104528 -2.242877 -0.994523
v -0.112486 -2.625560 -1.070226
v -0.135144 -2.949983 -1.285812
v -0.169056 -3.166756 -1.608458
v -0.209057 -3.242876 -1.989046
v -0.249059 -3.166756 -2.369632
v -0.282970 -2.949983 -2.692279
v -0.305629 -2.625560 -2.907864
v -0.927052 -2.340392 -2.853171
v -0.903529 -1.957709 -2.780776
v -0.836543 -1.633286 -2.574614
v -0.309017 -2.340393 -0.951057
v -0.332540 -2.723076 -1.023452
v -0.399526 -3.047499 -1.229616
v -0.499779 -3.264272 -1.538161
v -0.618035 -3.340392 -1.902115
v -0.736290 -3.264272 -2.266068
v -0.836543 -3.047499 -2.574614
v -0.903529 -2.723076 -2.780777
v -1.500001 -2.437909 -2.598078
v -1.461941 -2.055226 -2.532156
v -1.353554 -1.730803 -2.344426
v -0.500000 -2.437909 -0.866026
v -0.538061 -2.820593 -0.931948
v -0.646447 -3.145016 -1.119679
v -0.808659 -3.361788 -1.400638
v -1.000001 -3.437909 -1.732053
v -1.191343 -3.361789 -2.063466
v -1.353555 -3.145015 -2.344425
v -1.461941 -2.820592 -2.532156
v -2.007393 -2.535425 -2.229436
v -1.956459 -2.152742 -2.172867
v -1.811410 -1.828319 -2.011775
v -0.669131 -2.535426 -0.743146
v -0.720066 -2.918109 -0.799714
v -0.865115 -3.242532 -0.960808
v -1.082197 -3.459305 -1.201901
v -1.338263 -3.535425 -1.486291
v -1.594327 -3.459305 -1.770680
v -1.811410 -3.242532 -2.011774
v -1.956458 -2.918108 -2.172868
v -2.427053 -2.632941 -1.763357
v -2.365470 -2.250258 -1.718614
v -2.190098 -1.925835 -1.591199
v -0.809018 -2.632942 -0.587786
v -0.870601 -3.015625 -0.632528
v -1.045973 -3.340048 -0.759944
v -1.308437 -3.556821 -0.950636
v -1.618036 -3.632941 -1.175572
v -1.927633 -3.556821 -1.400507
v -2.190098 -3.340048 -1.591199
v -2.365470 -3.015625 -1.718615
v -2.740638 -2.730458 -1.220211
v -2.671099 -2.347775 -1.189250
v -2.473068 -2.023352 -1.101081
v -0.913546 -2.730458 -0.406737
v -0.983086 -3.113142 -0.437698
v -1.181118 -3.437565 -0.525868
v -1.477493 -3.654337 -0.657822
v -1.827093 -3.730458 -0.813474
v -2.176691 -3.654337 -0.969125
v -2.473068 -3.437564 -1.101080
v -2.671099 -3.113141 -1.189250
v -2.934445 -2.827974 -0.623735
v -2.859988 -2.445291 -0.607909
v -2.647953 -2.120868 -0.562840
v -0.978148 -2.827975 -0.207912
v -1.052606 -3.210658 -0.223738
v -1.264641 -3.535081 -0.268808
v -1.581975 -3.751853 -0.336259
v -1.956297 -3.827974 -0.415824
v -2.330618 -3.751854 -0.495388
v -2.647953 -3.535081 -0.562840
v -2.859988 -3.210657 -0.607909
v -3.000002 -2.925490 0.000000
v -2.923882 -2.542807 0.000000
v -2.707110 -2.218385 -0.000000
v -1.000001 -2.925491 -0.000000
v -1.076121 -3.308174 0.000000
v -1.292894 -3.632597 -0.000000
v -1.617317 -3.849370 -0.000000
v -2.000002 -3.925490 -0.000000
v -2.382685 -3.849370 -0.000000
v -2.707110 -3.632597 0.000000
v -2.923882 -3.308174 -0.000000
v -2.934445 -3.023006 0.623736
v -2.859988 -2.640324 0.607909
v -2.647953 -2.315901 0.562840
v -0.978148 -3.023007 0.207912
v -1.052605 -3.405690 0.223738
v -1.264641 -3.730114 0.268808
v -1.581975 -3.946886 0.336259
v -1.956297 -4.023006 0.415824
v -2.330618 -3.946886 0.495388
v -2.647953 -3.730113 0.562840
v -2.859988 -3.405690 0.607909
v -2.740638 -3.120523 1.220211
v -2.671099 -2.737840 1.189250
v -2.473068 -2.413417 1.101081
v -0.913546 -3.120523 0.406737
v -0.983085 -3.503207 0.437698
v -1.181117 -3.827630 0.525867
v -1.477493 -4.044403 0.657822
v -1.827093 -4.120523 0.813474
v -2.176691 -4.044403 0.969125
v -2.473068 -3.827630 1.101081
v -2.671099 -3.503206 1.189250
v -2.427052 -3.218039 1.763357
v -2.365470 -2.835356 1.718615
v -2.190099 -2.510933 1.591199
v -0.809018 -3.218040 0.587785
v -0.870600 -3.600723 0.632528
v -1.045973 -3.925146 0.759944
v -1.308437 -4.141919 0.950635
v -1.618035 -4.218040 1.175572
v -1.927633 -4.141919 1.400507
v -2.190098 -3.925146 1.591200
v -2.365470 -3.600723 1.718615
v -2.007393 -3.315555 2.229436
v -1.956459 -2.932873 2.172868
v -1.811411 -2.608450 2.011775
v -0.669131 -3.315556 0.743145
v -0.720065 -3.698239 0.799714
v -0.865115 -4.022663 0.960807
v -1.082196 -4.239436 1.201901
v -1.338262 -4.315556 1.486291
v -1.594327 -4.239436 1.770680
v -1.811410 -4.022662 2.011775
v -1.956459 -3.698239 2.172868
v -1.500001 -3.413072 2.598078
v -1.461941 -3.030389 2.532156
v -1.353555 -2.705966 2.344426
v -0.500000 -3.413072 0.866026
v -0.538060 -3.795756 0.931948
v -0.646446 -4.120179 1.119679
v -0.808658 -4.336952 1.400638
v -1.000001 -4.413073 1.732053
v -1.191342 -4.336952 2.063466
v -1.353555 -4.120179 2.344426
v -1.461941 -3.795755 2.532156
v -0.927051 -3.510588 2.853172
v -0.903529 -3.127905 2.780777
v -0.836543 -2.803482 2.574615
v -0.309017 -3.510589 0.951057
v -0.332539 -3.893272 1.023452
v -0.399526 -4.217696 1.229615
v -0.499778 -4.434469 1.538160
v -0.618034 -4.510589 1.902115
v -0.736290 -4.434469 2.266068
v -0.836542 -4.217695 2.574615
v -0.903529 -3.893271 2.780777
v -0.313585 -3.608104 2.983568
v -0.305628 -3.225421 2.907865
v -0.282970 -2.900999 2.692281
v -0.104528 -3.608105 0.994523
v -0.112485 -3.990788 1.070226
v -0.135144 -4.315212 1.285811
v -0.169055 -4.531985 1.608457
v -0.209057 -4.608106 1.989046
v -0.249058 -4.531985 2.369633
v -0.282969 -4.315212 2.692280
v -0.305628 -3.990788 2.907865
v 0.313587 -3.705621 2.983568
v 0.305629 -3.322938 2.907865
v 0.282970 -2.998515 2.692281
v 0.104529 -3.705621 0.994523
v 0.112486 -4.088305 1.070226
v 0.135145 -4.412729 1.285811
v 0.169056 -4.629502 1.608457
v 0.209058 -4.705622 1.989046
v 0.249059 -4.629502 2.369633
v 0.282971 -4.412728 2.692280
v 0.305629 -4.088304 2.907865
v 0.927053 -3.803137 2.853172
v 0.903530 -3.420454 2.780777
v 0.836543 -3.096031 2.574615
v 0.309018 -3.803138 0.951057
v 0.332541 -4.185821 1.023452
v 0.399527 -4.510245 1.229615
v 0.499779 -4.727018 1.538160
v 0.618035 -4.803139 1.902115
v 0.736291 -4.727018 2.266068
v 0.836544 -4.510245 2.574615
v 0.903530 -4.185821 2.780777
v 1.500003 -3.900653 2.598078
v 1.461942 -3.517970 2.532156
v 1.353556 -3.193547 2.344427
v 0.500001 -3.900654 0.866026
v 0.538061 -4.283338 0.931948
v 0.646448 -4.607762 1.119679
v 0.808659 -4.824535 1.400638
v 1.000002 -4.900655 1.732052
v 1.191344 -4.824535 2.063466
v 1.353556 -4.607761 2.344426
v 1.461942 -4.283337 2.532156
v 2.007395 -3.998169 2.229436
v 1.956460 -3.615487 2.172868
v 1.811411 -3.291064 2.011775
v 0.669132 -3.998170 0.743145
v 0.720066 -4.380854 0.799713
v 0.865116 -4.705278 0.960807
v 1.082197 -4.922051 1.201901
v 1.338264 -4.998172 1.486291
v 1.594329 -4.922051 1.770680
v 1.811411 -4.705278 2.011774
v 1.956460 -4.380854 2.172867
v 2.427054 -4.095686 1.763357
v 2.365471 -3.713003 1.718614
v 2.190099 -3.388580 1.591200
v 0.809018 -4.095686 0.587785
v 0.870601 -4.478371 0.632527
v 1.045974 -4.802795 0.759943
v 1.308438 -5.019568 0.950635
v 1.618037 -5.095688 1.175571
v 1.927634 -5.019568 1.400507
v 2.190099 -4.802794 1.591199
v 2.365471 -4.478370 1.718614
v 2.740640 -4.193202 1.220210
v 2.671100 -3.810519 1.189249
v 2.473069 -3.486096 1.101081
v 0.913547 -4.193203 0.406737
v 0.983086 -4.575887 0.437697
v 1.181118 -4.900311 0.525867
v 1.477494 -5.117085 0.657822
v 1.827094 -5.193205 0.813473
v 2.176692 -5.117085 0.969125
v 2.473069 -4.900311 1.101080
v 2.671101 -4.575887 1.189249
v 2.934446 -4.290719 0.623735
v 2.859989 -3.908036 0.607908
v 2.647954 -3.583613 0.562840
v 0.978149 -4.290720 0.207911
v 1.052606 -4.673404 0.223737
v 1.264642 -4.997828 0.268807
v 1.581976 -5.214601 0.336258
v 1.956298 -5.290721 0.415823
v 2.330619 -5.214601 0.495387
v 2.647955 -4.997828 0.562839
v 2.859990 -4.673403 0.607908
v 3.000004 -4.388236 -0.000001
v 2.923883 -4.005552 -0.000001
v 2.707111 -3.681129 -0.000001
v 1.000002 -4.388236 -0.000001
v 1.076122 -4.770920 -0.000001
v 1.292895 -5.095345 -0.000001
v 1.617318 -5.312118 -0.000001
v 2.000003 -5.388238 -0.000001
v 2.382687 -5.312118 -0.000001
v 2.707112 -5.095344 -0.000001
v 2.923884 -4.770920 -0.000001
v -2.923879 -0.382683 -2.300000
v -2.707107 -0.707107 -2.300000
v -2.382683 -0.923879 -2.300000
v -2.000000 -1.000000 -2.300000
v -1.617316 -0.923879 -2.300000
v -1.292893 -0.707107 -2.300000
v -1.076121 -0.382683 -2.300000
v -1.000000 0.000000 -2.300000
v -2.707107 0.707107 -2.300000
v -2.923880 0.382683 -2.300000
v -3.000000 0.000000 -2.300000
vn -0.8344 -0.5511 -0.0041
vn -0.9720 0.1940 0.1329
vn -0.9784 -0.1940 0.0721
vn 0.9628 -0.1933 -0.1886
vn -0.8153 0.5511 0.1775
vn 0.7871 -0.5408 -0.2968
vn 0.5091 -0.8021 -0.3121
vn 0.1635 -0.9507 -0.2637
vn -0.2123 -0.9599 -0.1831
vn -0.5640 -0.8206 -0.0920
vn -0.2457 -0.9599 -0.1350
vn -0.5708 -0.8206 0.0273
vn -0.8170 -0.5511 0.1695
vn -0.9231 0.1940 0.3321
vn -0.9420 -0.1940 0.2739
vn 0.9026 -0.1933 -0.3846
vn -0.7606 0.5511 0.3431
vn 0.7081 -0.5408 -0.4540
vn 0.4331 -0.8021 -0.4111
vn 0.1051 -0.9507 -0.2919
vn -0.7639 -0.5511 0.3356
vn -0.8339 0.1940 0.5167
vn -0.8644 -0.1940 0.4638
vn 0.8029 -0.1933 -0.5639
vn -0.6726 0.5511 0.4938
vn 0.5983 -0.5408 -0.5913
vn 0.3382 -0.8021 -0.4922
vn 0.0421 -0.9507 -0.3074
vn -0.2684 -0.9599 -0.0810
vn -0.5527 -0.8206 0.1454
vn 0.6681 -0.1933 -0.7185
vn -0.5553 0.5511 0.6228
vn 0.4623 -0.5408 -0.7028
vn 0.2284 -0.8021 -0.5517
vn -0.0228 -0.9507 -0.3094
vn -0.2794 -0.9599 -0.0234
vn -0.5104 -0.8206 0.2571
vn -0.6775 -0.5511 0.4871
vn -0.7082 0.1940 0.6788
vn -0.7491 -0.1940 0.6334
vn 0.1087 -0.8021 -0.5871
vn -0.0866 -0.9507 -0.2979
vn -0.2782 -0.9599 0.0352
vn -0.4458 -0.8206 0.3576
vn -0.5614 -0.5511 0.6173
vn -0.5516 0.1940 0.8112
vn -0.6011 -0.1940 0.7753
vn 0.5041 -0.1933 -0.8417
vn -0.4136 0.5511 0.7247
vn 0.3060 -0.5408 -0.7835
vn -0.2647 -0.9599 0.0923
vn -0.3617 -0.8206 0.4425
vn -0.4208 -0.5511 0.7206
vn -0.3709 0.1940 0.9082
vn -0.4267 -0.1940 0.8833
vn 0.3181 -0.1933 -0.9281
vn -0.2539 0.5511 0.7948
vn 0.1364 -0.5408 -0.8300
vn -0.0157 -0.8021 -0.5969
vn -0.1466 -0.9507 -0.2734
vn -0.2618 -0.5511 0.7923
vn -0.1740 0.1940 0.9655
vn -0.2337 -0.1940 0.9528
vn 0.1182 -0.1933 -0.9740
vn -0.0831 0.5511 0.8303
vn -0.0391 -0.5408 -0.8403
vn -0.1395 -0.8021 -0.5806
vn -0.2003 -0.9507 -0.2370
vn -0.2398 -0.9599 0.1453
vn -0.2618 -0.8206 0.5080
vn 0.0913 0.5511 0.8294
vn -0.2130 -0.5408 -0.8138
vn -0.2571 -0.8021 -0.5389
vn -0.2452 -0.9507 -0.1901
vn -0.2043 -0.9599 0.1920
vn -0.1504 -0.8206 0.5513
vn -0.0913 -0.5511 0.8294
vn 0.0305 0.1940 0.9805
vn -0.0305 -0.1940 0.9805
vn -0.0869 -0.1933 -0.9773
vn -0.2793 -0.9507 -0.1350
vn -0.1599 -0.9599 0.2303
vn -0.0325 -0.8206 0.5706
vn 0.0831 -0.5511 0.8303
vn 0.2337 0.1940 0.9528
vn 0.1740 -0.1940 0.9655
vn -0.2882 -0.1933 -0.9379
vn 0.2618 0.5511 0.7923
vn -0.3775 -0.5408 -0.7517
vn -0.3636 -0.8021 -0.4737
vn 0.0868 -0.8206 0.5648
vn 0.2539 -0.5511 0.7948
vn 0.4267 0.1940 0.8833
vn 0.3709 -0.1940 0.9082
vn -0.4769 -0.1933 -0.8575
vn 0.4208 0.5511 0.7206
vn -0.5255 -0.5408 -0.6568
vn -0.4541 -0.8021 -0.3877
vn -0.3013 -0.9507 -0.0740
vn -0.1086 -0.9599 0.2585
vn 0.6011 0.1940 0.7753
vn 0.5516 -0.1940 0.8112
vn -0.6447 -0.1933 -0.7396
vn 0.5614 0.5511 0.6173
vn -0.6506 -0.5408 -0.5332
vn -0.5248 -0.8021 -0.2849
vn -0.3101 -0.9507 -0.0097
vn -0.0525 -0.9599 0.2754
vn 0.2024 -0.8206 0.5344
vn 0.4136 -0.5511 0.7247
vn -0.7472 -0.5408 -0.3863
vn -0.5726 -0.8021 -0.1695
vn -0.3054 -0.9507 0.0550
vn 0.0060 -0.9599 0.2803
vn 0.3091 -0.8206 0.4807
vn 0.5553 -0.5511 0.6228
vn 0.7491 0.1940 0.6334
vn 0.7082 -0.1940 0.6788
vn -0.7844 -0.1933 -0.5894
vn 0.6775 0.5511 0.4871
vn -0.2873 -0.9507 0.1173
vn 0.0641 -0.9599 0.2729
vn 0.4023 -0.8206 0.4059
vn 0.6726 -0.5511 0.4938
vn 0.8644 0.1940 0.4638
vn 0.8339 -0.1940 0.5167
vn -0.8898 -0.1933 -0.4134
vn 0.7639 0.5511 0.3356
vn -0.8112 -0.5408 -0.2225
vn -0.5953 -0.8021 -0.0468
vn 0.4779 -0.8206 0.3134
vn 0.7606 -0.5511 0.3431
vn 0.9420 0.1940 0.2739
vn 0.9231 -0.1940 0.3321
vn -0.9563 -0.1933 -0.2194
vn 0.8170 0.5511 0.1695
vn -0.8397 -0.5408 -0.0489
vn -0.5920 -0.8021 0.0780
vn -0.2566 -0.9507 0.1744
vn 0.1194 -0.9599 0.2537
vn 0.9720 -0.1940 0.1329
vn -0.9810 -0.1933 -0.0158
vn 0.8344 0.5511 -0.0041
vn -0.8316 -0.5408 0.1267
vn -0.5629 -0.8021 0.1994
vn -0.2147 -0.9507 0.2240
vn 0.1696 -0.9599 0.2233
vn 0.5326 -0.8206 0.2072
vn 0.8153 -0.5511 0.1775
vn 0.9784 0.1940 0.0721
vn -0.5091 -0.8021 0.3121
vn -0.1635 -0.9507 0.2637
vn 0.2123 -0.9599 0.1831
vn 0.5640 -0.8206 0.0920
vn 0.8344 -0.5511 0.0041
vn 0.9720 0.1940 -0.1329
vn 0.9784 -0.1940 -0.0721
vn -0.9628 -0.1933 0.1886
vn 0.8153 0.5511 -0.1775
vn -0.7871 -0.5408 0.2968
vn 0.2457 -0.9599 0.1350
vn 0.5708 -0.8206 -0.0273
vn 0.8170 -0.5511 -0.1695
vn 0.9231 0.1940 -0.3321
vn 0.9420 -0.1940 -0.2739
vn -0.9026 -0.1933 0.3846
vn 0.7606 0.5511 -0.3431
vn -0.7081 -0.5408 0.4540
vn -0.4331 -0.8021 0.4111
vn -0.1051 -0.9507 0.2919
vn 0.7639 -0.5511 -0.3356
vn 0.8339 0.1940 -0.5167
vn 0.8644 -0.1940 -0.4638
vn -0.8029 -0.1933 0.5639
vn 0.6726 0.5511 -0.4938
vn -0.5983 -0.5408 0.5913
vn -0.3382 -0.8021 0.4922
vn -0.0421 -0.9507 0.3074
vn 0.2684 -0.9599 0.0810
vn 0.5527 -0.8206 -0.1454
vn 0.5553 0.5511 -0.6228
vn -0.4623 -0.5408 0.7028
vn -0.2284 -0.8021 0.5517
vn 0.0228 -0.9507 0.3094
vn 0.2794 -0.9599 0.0234
vn 0.5104 -0.8206 -0.2571
vn 0.6775 -0.5511 -0.4871
vn 0.7082 0.1940 -0.6788
vn 0.7491 -0.1940 -0.6334
vn -0.6681 -0.1933 0.7185
vn 0.0866 -0.9507 0.2979
vn 0.2782 -0.9599 -0.0352
vn 0.4458 -0.8206 -0.3576
vn 0.5614 -0.5511 -0.6173
vn 0.5516 0.1940 -0.8112
vn 0.6011 -0.1940 -0.7753
vn -0.5041 -0.1933 0.8417
vn 0.4136 0.5511 -0.7247
vn -0.3060 -0.5408 0.7835
vn -0.1087 -0.8021 0.5871
vn 0.3617 -0.8206 -0.4425
vn 0.4208 -0.5511 -0.7206
vn 0.3709 0.1940 -0.9082
vn 0.4267 -0.1940 -0.8833
vn -0.3181 -0.1933 0.9281
vn 0.2539 0.5511 -0.7948
vn -0.1364 -0.5408 0.8300
vn 0.0157 -0.8021 0.5969
vn 0.1466 -0.9507 0.2734
vn 0.2647 -0.9599 -0.0923
vn 0.1740 0.1940 -0.9655
vn 0.2337 -0.1940 -0.9528
vn -0.1182 -0.1933 0.9740
vn 0.0831 0.5511 -0.8303
vn 0.0391 -0.5408 0.8403
vn 0.1395 -0.8021 0.5806
vn 0.2003 -0.9507 0.2370
vn 0.2398 -0.9599 -0.1453
vn 0.2618 -0.8206 -0.5080
vn 0.2618 -0.5511 -0.7923
vn 0.2130 -0.5408 0.8138
vn 0.2571 -0.8021 0.5389
vn 0.2452 -0.9507 0.1901
vn 0.2043 -0.9599 -0.1920
vn 0.1504 -0.8206 -0.5513
vn 0.0913 -0.5511 -0.8294
vn -0.0305 0.1940 -0.9805
vn 0.0305 -0.1940 -0.9805
vn 0.0869 -0.1933 0.9773
vn -0.0913 0.5511 -0.8294
vn 0.2793 -0.9507 0.1350
vn 0.1599 -0.9599 -0.2303
vn 0.0325 -0.8206 -0.5706
vn -0.0831 -0.5511 -0.8303
vn -0.2337 0.1940 -0.9528
vn -0.1740 -0.1940 -0.9655
vn 0.2882 -0.1933 0.9379
vn -0.2618 0.5511 -0.7923
vn 0.3775 -0.5408 0.7517
vn 0.3636 -0.8021 0.4737
vn -0.0868 -0.8206 -0.5648
vn -0.2539 -0.5511 -0.7948
vn -0.4267 0.1940 -0.8833
vn -0.3709 -0.1940 -0.9082
vn 0.4769 -0.1933 0.8575
vn -0.4208 0.5511 -0.7206
vn 0.5255 -0.5408 0.6568
vn 0.4541 -0.8021 0.3877
vn 0.3013 -0.9507 0.0740
vn 0.1086 -0.9599 -0.2585
vn -0.6011 0.1940 -0.7753
vn -0.5516 -0.1940 -0.8112
vn 0.6447 -0.1933 0.7396
vn -0.5614 0.5511 -0.6173
vn 0.6506 -0.5408 0.5332
vn 0.5248 -0.8021 0.2849
vn 0.3101 -0.9507 0.0097
vn 0.0525 -0.9599 -0.2754
vn -0.2024 -0.8206 -0.5344
vn -0.4136 -0.5511 -0.7247
vn 0.5726 -0.8021 0.1695
vn 0.3054 -0.9507 -0.0550
vn -0.0060 -0.9599 -0.2803
vn -0.3091 -0.8206 -0.4807
vn -0.5553 -0.5511 -0.6228
vn -0.7491 0.1940 -0.6334
vn -0.7082 -0.1940 -0.6788
vn 0.7844 -0.1933 0.5894
vn -0.6775 0.5511 -0.4871
vn 0.7472 -0.5408 0.3863
vn -0.0641 -0.9599 -0.2729
vn -0.4023 -0.8206 -0.4059
vn -0.6726 -0.5511 -0.4938
vn -0.8644 0.1940 -0.4638
vn -0.8339 -0.1940 -0.5167
vn 0.8898 -0.1933 0.4134
vn -0.7639 0.5511 -0.3356
vn 0.8112 -0.5408 0.2225
vn 0.5953 -0.8021 0.0468
vn 0.2873 -0.9507 -0.1173
vn -0.7606 -0.5511 -0.3431
vn -0.9420 0.1940 -0.2739
vn -0.9231 -0.1940 -0.3321
vn 0.9563 -0.1933 0.2194
vn -0.8170 0.5511 -0.1695
vn 0.8397 -0.5408 0.0489
vn 0.5920 -0.8021 -0.0780
vn 0.2566 -0.9507 -0.1744
vn -0.1194 -0.9599 -0.2537
vn -0.4779 -0.8206 -0.3134
vn 0.9810 -0.1933 0.0158
vn -0.8344 0.5511 0.0041
vn 0.8316 -0.5408 -0.1267
vn 0.5629 -0.8021 -0.1994
vn 0.2147 -0.9507 -0.2240
vn -0.1696 -0.9599 -0.2233
vn -0.5326 -0.8206 -0.2072
vn -0.8153 -0.5511 -0.1775
vn -0.9784 0.1940 -0.0721
vn -0.9720 -0.1940 -0.1329
vn -0.2648 -0.9599 0.0923
vn -0.5556 -0.8315 -0.0000
vn -0.1951 -0.9808 -0.0000
vn 0.1951 -0.9808 -0.0000
vn 0.5556 -0.8315 -0.0000
vn 0.8315 -0.5556 -0.0000
vn -0.8315 0.5556 -0.0000
vn 0.9808 -0.1951 -0.0000
vn -0.9808 -0.1951 -0.0000
vn -0.9808 0.1951 -0.0000
vn -0.8315 -0.5556 -0.0000
vn -0.0000 -0.0000 -1.0000
vt 0.000000 0.000000
s 0
f 11/1/1 10/1/1 21/1/1 22/1/1
f 2/1/2 1/1/2 12/1/2 13/1/2
f 1/1/3 11/1/3 22/1/3 12/1/3
f 5/1/4 4/1/4 15/1/4 16/1/4
f 3/1/5 2/1/5 13/1/5 14/1/5
f 6/1/6 5/1/6 16/1/6 17/1/6
f 7/1/7 6/1/7 17/1/7 18/1/7
f 8/1/8 7/1/8 18/1/8 19/1/8
f 9/1/9 8/1/9 19/1/9 20/1/9
f 10/1/10 9/1/10 20/1/10 21/1/10
f 20/1/11 19/1/11 30/1/11 31/1/11
f 21/1/12 20/1/12 31/1/12 32/1/12
f 22/1/13 21/1/13 32/1/13 33/1/13
f 13/1/14 12/1/14 23/1/14 24/1/14
f 12/1/15 22/1/15 33/1/15 23/1/15
f 16/1/16 15/1/16 26/1/16 27/1/16
f 14/1/17 13/1/17 24/1/17 25/1/17
f 17/1/18 16/1/18 27/1/18 28/1/18
f 18/1/19 17/1/19 28/1/19 29/1/19
f 19/1/20 18/1/20 29/1/20 30/1/20
f 33/1/21 32/1/21 43/1/21 44/1/21
f 24/1/22 23/1/22 34/1/22 35/1/22
f 23/1/23 33/1/23 44/1/23 34/1/23
f 27/1/24 26/1/24 37/1/24 38/1/24
f 25/1/25 24/1/25 35/1/25 36/1/25
f 28/1/26 27/1/26 38/1/26 39/1/26
f 29/1/27 28/1/27 39/1/27 40/1/27
f 30/1/28 29/1/28 40/1/28 41/1/28
f 31/1/29 30/1/29 41/1/29 42/1/29
f 32/1/30 31/1/30 42/1/30 43/1/30
f 38/1/31 37/1/31 48/1/31 49/1/31
f 36/1/32 35/1/32 46/1/32 47/1/32
f 39/1/33 38/1/33 49/1/33 50/1/33
f 40/1/34 39/1/34 50/1/34 51/1/34
f 41/1/35 40/1/35 51/1/35 52/1/35
f 42/1/36 41/1/36 52/1/36 53/1/36
f 43/1/37 42/1/37 53/1/37 54/1/37
f 44/1/38 43/1/38 54/1/38 55/1/38
f 35/1/39 34/1/39 45/1/39 46/1/39
f 34/1/40 44/1/40 55/1/40 45/1/40
f 51/1/41 50/1/41 61/1/41 62/1/41
f 52/1/42 51/1/42 62/1/42 63/1/42
f 53/1/43 52/1/43 63/1/43 64/1/43
f 54/1/44 53/1/44 64/1/44 65/1/44
f 55/1/45 54/1/45 65/1/45 66/1/45
f 46/1/46 45/1/46 56/1/46 57/1/46
f 45/1/47 55/1/47 66/1/47 56/1/47
f 49/1/48 48/1/48 59/1/48 60/1/48
f 47/1/49 46/1/49 57/1/49 58/1/49
f 50/1/50 49/1/50 60/1/50 61/1/50
f 64/1/51 63/1/51 74/1/51 75/1/51
f 65/1/52 64/1/52 75/1/52 76/1/52
f 66/1/53 65/1/53 76/1/53 77/1/53
f 57/1/54 56/1/54 67/1/54 68/1/54
f 56/1/55 66/1/55 77/1/55 67/1/55
f 60/1/56 59/1/56 70/1/56 71/1/56
f 58/1/57 57/1/57 68/1/57 69/1/57
f 61/1/58 60/1/58 71/1/58 72/1/58
f 62/1/59 61/1/59 72/1/59 73/1/59
f 63/1/60 62/1/60 73/1/60 74/1/60
f 77/1/61 76/1/61 87/1/61 88/1/61
f 68/1/62 67/1/62 78/1/62 79/1/62
f 67/1/63 77/1/63 88/1/63 78/1/63
f 71/1/64 70/1/64 81/1/64 82/1/64
f 69/1/65 68/1/65 79/1/65 80/1/65
f 72/1/66 71/1/66 82/1/66 83/1/66
f 73/1/67 72/1/67 83/1/67 84/1/67
f 74/1/68 73/1/68 84/1/68 85/1/68
f 75/1/69 74/1/69 85/1/69 86/1/69
f 76/1/70 75/1/70 86/1/70 87/1/70
f 80/1/71 79/1/71 90/1/71 91/1/71
f 83/1/72 82/1/72 93/1/72 94/1/72
f 84/1/73 83/1/73 94/1/73 95/1/73
f 85/1/74 84/1/74 95/1/74 96/1/74
f 86/1/75 85/1/75 96/1/75 97/1/75
f 87/1/76 86/1/76 97/1/76 98/1/76
f 88/1/77 87/1/77 98/1/77 99/1/77
f 79/1/78 78/1/78 89/1/78 90/1/78
f 78/1/79 88/1/79 99/1/79 89/1/79
f 82/1/80 81/1/80 92/1/80 93/1/80
f 96/1/81 95/1/81 106/1/81 107/1/81
f 97/1/82 96/1/82 107/1/82 108/1/82
f 98/1/83 97/1/83 108/1/83 109/1/83
f 99/1/84 98/1/84 109/1/84 110/1/84
f 90/1/85 89/1/85 100/1/85 101/1/85
f 89/1/86 99/1/86 110/1/86 100/1/86
f 93/1/87 92/1/87 103/1/87 104/1/87
f 91/1/88 90/1/88 101/1/88 102/1/88
f 94/1/89 93/1/89 104/1/89 105/1/89
f 95/1/90 94/1/90 105/1/90 106/1/90
f 109/1/91 108/1/91 119/1/91 120/1/91
f 110/1/92 109/1/92 120/1/92 121/1/92
f 101/1/93 100/1/93 111/1/93 112/1/93
f 100/1/94 110/1/94 121/1/94 111/1/94
f 104/1/95 103/1/95 114/1/95 115/1/95
f 102/1/96 101/1/96 112/1/96 113/1/96
f 105/1/97 104/1/97 115/1/97 116/1/97
f 106/1/98 105/1/98 116/1/98 117/1/98
f 107/1/99 106/1/99 117/1/99 118/1/99
f 108/1/100 107/1/100 118/1/100 119/1/100
f 112/1/101 111/1/101 122/1/101 123/1/101
f 111/1/102 121/1/102 132/1/102 122/1/102
f 115/1/103 114/1/103 125/1/103 126/1/103
f 113/1/104 112/1/104 123/1/104 124/1/104
f 116/1/105 115/1/105 126/1/105 127/1/105
f 117/1/106 116/1/106 127/1/106 128/1/106
f 118/1/107 117/1/107 128/1/107 129/1/107
f 119/1/108 118/1/108 129/1/108 130/1/108
f 120/1/109 119/1/109 130/1/109 131/1/109
f 121/1/110 120/1/110 131/1/110 132/1/110
f 127/1/111 126/1/111 137/1/111 138/1/111
f 128/1/112 127/1/112 138/1/112 139/1/112
f 129/1/113 128/1/113 139/1/113 140/1/113
f 130/1/114 129/1/114 140/1/114 141/1/114
f 131/1/115 130/1/115 141/1/115 142/1/115
f 132/1/116 131/1/116 142/1/116 143/1/116
f 123/1/117 122/1/117 133/1/117 134/1/117
f 122/1/118 132/1/118 143/1/118 133/1/118
f 126/1/119 125/1/119 136/1/119 137/1/119
f 124/1/120 123/1/120 134/1/120 135/1/120
f 140/1/121 139/1/121 150/1/121 151/1/121
f 141/1/122 140/1/122 151/1/122 152/1/122
f 142/1/123 141/1/123 152/1/123 153/1/123
f 143/1/124 142/1/124 153/1/124 154/1/124
f 134/1/125 133/1/125 144/1/125 145/1/125
f 133/1/126 143/1/126 154/1/126 144/1/126
f 137/1/127 136/1/127 147/1/127 148/1/127
f 135/1/128 134/1/128 145/1/128 146/1/128
f 138/1/129 137/1/129 148/1/129 149/1/129
f 139/1/130 138/1/130 149/1/130 150/1/130
f 153/1/131 152/1/131 163/1/131 164/1/131
f 154/1/132 153/1/132 164/1/132 165/1/132
f 145/1/133 144/1/133 155/1/133 156/1/133
f 144/1/134 154/1/134 165/1/134 155/1/134
f 148/1/135 147/1/135 158/1/135 159/1/135
f 146/1/136 145/1/136 156/1/136 157/1/136
f 149/1/137 148/1/137 159/1/137 160/1/137
f 150/1/138 149/1/138 160/1/138 161/1/138
f 151/1/139 150/1/139 161/1/139 162/1/139
f 152/1/140 151/1/140 162/1/140 163/1/140
f 155/1/141 165/1/141 176/1/141 166/1/141
f 159/1/142 158/1/142 169/1/142 170/1/142
f 157/1/143 156/1/143 167/1/143 168/1/143
f 160/1/144 159/1/144 170/1/144 171/1/144
f 161/1/145 160/1/145 171/1/145 172/1/145
f 162/1/146 161/1/146 172/1/146 173/1/146
f 163/1/147 162/1/147 173/1/147 174/1/147
f 164/1/148 163/1/148 174/1/148 175/1/148
f 165/1/149 164/1/149 175/1/149 176/1/149
f 156/1/150 155/1/150 166/1/150 167/1/150
f 172/1/151 171/1/151 182/1/151 183/1/151
f 173/1/152 172/1/152 183/1/152 184/1/152
f 174/1/153 173/1/153 184/1/153 185/1/153
f 175/1/154 174/1/154 185/1/154 186/1/154
f 176/1/155 175/1/155 186/1/155 187/1/155
f 167/1/156 166/1/156 177/1/156 178/1/156
f 166/1/157 176/1/157 187/1/157 177/1/157
f 170/1/158 169/1/158 180/1/158 181/1/158
f 168/1/159 167/1/159 178/1/159 179/1/159
f 171/1/160 170/1/160 181/1/160 182/1/160
f 185/1/161 184/1/161 195/1/161 196/1/161
f 186/1/162 185/1/162 196/1/162 197/1/162
f 187/1/163 186/1/163 197/1/163 198/1/163
f 178/1/164 177/1/164 188/1/164 189/1/164
f 177/1/165 187/1/165 198/1/165 188/1/165
f 181/1/166 180/1/166 191/1/166 192/1/166
f 179/1/167 178/1/167 189/1/167 190/1/167
f 182/1/168 181/1/168 192/1/168 193/1/168
f 183/1/169 182/1/169 193/1/169 194/1/169
f 184/1/170 183/1/170 194/1/170 195/1/170
f 198/1/171 197/1/171 208/1/171 209/1/171
f 189/1/172 188/1/172 199/1/172 200/1/172
f 188/1/173 198/1/173 209/1/173 199/1/173
f 192/1/174 191/1/174 202/1/174 203/1/174
f 190/1/175 189/1/175 200/1/175 201/1/175
f 193/1/176 192/1/176 203/1/176 204/1/176
f 194/1/177 193/1/177 204/1/177 205/1/177
f 195/1/178 194/1/178 205/1/178 206/1/178
f 196/1/179 195/1/179 206/1/179 207/1/179
f 197/1/180 196/1/180 207/1/180 208/1/180
f 201/1/181 200/1/181 211/1/181 212/1/181
f 204/1/182 203/1/182 214/1/182 215/1/182
f 205/1/183 204/1/183 215/1/183 216/1/183
f 206/1/184 205/1/184 216/1/184 217/1/184
f 207/1/185 206/1/185 217/1/185 218/1/185
f 208/1/186 207/1/186 218/1/186 219/1/186
f 209/1/187 208/1/187 219/1/187 220/1/187
f 200/1/188 199/1/188 210/1/188 211/1/188
f 199/1/189 209/1/189 220/1/189 210/1/189
f 203/1/190 202/1/190 213/1/190 214/1/190
f 217/1/191 216/1/191 227/1/191 228/1/191
f 218/1/192 217/1/192 228/1/192 229/1/192
f 219/1/193 218/1/193 229/1/193 230/1/193
f 220/1/194 219/1/194 230/1/194 231/1/194
f 211/1/195 210/1/195 221/1/195 222/1/195
f 210/1/196 220/1/196 231/1/196 221/1/196
f 214/1/197 213/1/197 224/1/197 225/1/197
f 212/1/198 211/1/198 222/1/198 223/1/198
f 215/1/199 214/1/199 225/1/199 226/1/199
f 216/1/200 215/1/200 226/1/200 227/1/200
f 230/1/201 229/1/201 240/1/201 241/1/201
f 231/1/202 230/1/202 241/1/202 242/1/202
f 222/1/203 221/1/203 232/1/203 233/1/203
f 221/1/204 231/1/204 242/1/204 232/1/204
f 225/1/205 224/1/205 235/1/205 236/1/205
f 223/1/206 222/1/206 233/1/206 234/1/206
f 226/1/207 225/1/207 236/1/207 237/1/207
f 227/1/208 226/1/208 237/1/208 238/1/208
f 228/1/209 227/1/209 238/1/209 239/1/209
f 229/1/210 228/1/210 239/1/210 240/1/210
f 233/1/211 232/1/211 243/1/211 244/1/211
f 232/1/212 242/1/212 253/1/212 243/1/212
f 236/1/213 235/1/213 246/1/213 247/1/213
f 234/1/214 233/1/214 244/1/214 245/1/214
f 237/1/215 236/1/215 247/1/215 248/1/215
f 238/1/216 237/1/216 248/1/216 249/1/216
f 239/1/217 238/1/217 249/1/217 250/1/217
f 240/1/218 239/1/218 250/1/218 251/1/218
f 241/1/219 240/1/219 251/1/219 252/1/219
f 242/1/220 241/1/220 252/1/220 253/1/220
f 248/1/221 247/1/221 258/1/221 259/1/221
f 249/1/222 248/1/222 259/1/222 260/1/222
f 250/1/223 249/1/223 260/1/223 261/1/223
f 251/1/224 250/1/224 261/1/224 262/1/224
f 252/1/225 251/1/225 262/1/225 263/1/225
f 253/1/226 252/1/226 263/1/226 264/1/226
f 244/1/227 243/1/227 254/1/227 255/1/227
f 243/1/228 253/1/228 264/1/228 254/1/228
f 247/1/229 246/1/229 257/1/229 258/1/229
f 245/1/230 244/1/230 255/1/230 256/1/230
f 261/1/231 260/1/231 271/1/231 272/1/231
f 262/1/232 261/1/232 272/1/232 273/1/232
f 263/1/233 262/1/233 273/1/233 274/1/233
f 264/1/234 263/1/234 274/1/234 275/1/234
f 255/1/235 254/1/235 265/1/235 266/1/235
f 254/1/236 264/1/236 275/1/236 265/1/236
f 258/1/237 257/1/237 268/1/237 269/1/237
f 256/1/238 255/1/238 266/1/238 267/1/238
f 259/1/239 258/1/239 269/1/239 270/1/239
f 260/1/240 259/1/240 270/1/240 271/1/240
f 274/1/241 273/1/241 284/1/241 285/1/241
f 275/1/242 274/1/242 285/1/242 286/1/242
f 266/1/243 265/1/243 276/1/243 277/1/243
f 265/1/244 275/1/244 286/1/244 276/1/244
f 269/1/245 268/1/245 279/1/245 280/1/245
f 267/1/246 266/1/246 277/1/246 278/1/246
f 270/1/247 269/1/247 280/1/247 281/1/247
f 271/1/248 270/1/248 281/1/248 282/1/248
f 272/1/249 271/1/249 282/1/249 283/1/249
f 273/1/250 272/1/250 283/1/250 284/1/250
f 277/1/251 276/1/251 287/1/251 288/1/251
f 276/1/252 286/1/252 297/1/252 287/1/252
f 280/1/253 279/1/253 290/1/253 291/1/253
f 278/1/254 277/1/254 288/1/254 289/1/254
f 281/1/255 280/1/255 291/1/255 292/1/255
f 282/1/256 281/1/256 292/1/256 293/1/256
f 283/1/257 282/1/257 293/1/257 294/1/257
f 284/1/258 283/1/258 294/1/258 295/1/258
f 285/1/259 284/1/259 295/1/259 296/1/259
f 286/1/260 285/1/260 296/1/260 297/1/260
f 293/1/261 292/1/261 303/1/261 304/1/261
f 294/1/262 293/1/262 304/1/262 305/1/262
f 295/1/263 294/1/263 305/1/263 306/1/263
f 296/1/264 295/1/264 306/1/264 307/1/264
f 297/1/265 296/1/265 307/1/265 308/1/265
f 288/1/266 287/1/266 298/1/266 299/1/266
f 287/1/267 297/1/267 308/1/267 298/1/267
f 291/1/268 290/1/268 301/1/268 302/1/268
f 289/1/269 288/1/269 299/1/269 300/1/269
f 292/1/270 291/1/270 302/1/270 303/1/270
f 306/1/271 305/1/271 316/1/271 317/1/271
f 307/1/272 306/1/272 317/1/272 318/1/272
f 308/1/273 307/1/273 318/1/273 319/1/273
f 299/1/274 298/1/274 309/1/274 310/1/274
f 298/1/275 308/1/275 319/1/275 309/1/275
f 302/1/276 301/1/276 312/1/276 313/1/276
f 300/1/277 299/1/277 310/1/277 311/1/277
f 303/1/278 302/1/278 313/1/278 314/1/278
f 304/1/279 303/1/279 314/1/279 315/1/279
f 305/1/280 304/1/280 315/1/280 316/1/280
f 319/1/281 318/1/281 329/1/281 330/1/281
f 310/1/282 309/1/282 320/1/282 321/1/282
f 309/1/283 319/1/283 330/1/283 320/1/283
f 313/1/284 312/1/284 323/1/284 324/1/284
f 311/1/285 310/1/285 321/1/285 322/1/285
f 314/1/286 313/1/286 324/1/286 325/1/286
f 315/1/287 314/1/287 325/1/287 326/1/287
f 316/1/288 315/1/288 326/1/288 327/1/288
f 317/1/289 316/1/289 327/1/289 328/1/289
f 318/1/290 317/1/290 328/1/290 329/1/290
f 324/1/291 323/1/291 334/1/291 335/1/291
f 322/1/292 321/1/292 332/1/292 333/1/292
f 325/1/293 324/1/293 335/1/293 336/1/293
f 326/1/294 325/1/294 336/1/294 337/1/294
f 327/1/295 326/1/295 337/1/295 338/1/295
f 328/1/296 327/1/296 338/1/296 339/1/296
f 329/1/297 328/1/297 339/1/297 340/1/297
f 330/1/298 329/1/298 340/1/298 341/1/298
f 321/1/299 320/1/299 331/1/299 332/1/299
f 320/1/300 330/1/300 341/1/300 331/1/300
f 337/1/7 336/1/7 347/1/7 348/1/7
f 338/1/8 337/1/8 348/1/8 349/1/8
f 339/1/9 338/1/9 349/1/9 350/1/9
f 340/1/10 339/1/10 350/1/10 351/1/10
f 341/1/1 340/1/1 351/1/1 352/1/1
f 332/1/2 331/1/2 342/1/2 343/1/2
f 331/1/3 341/1/3 352/1/3 342/1/3
f 335/1/4 334/1/4 345/1/4 346/1/4
f 333/1/5 332/1/5 343/1/5 344/1/5
f 336/1/6 335/1/6 346/1/6 347/1/6
f 350/1/11 349/1/11 360/1/11 361/1/11
f 351/1/12 350/1/12 361/1/12 362/1/12
f 352/1/13 351/1/13 362/1/13 363/1/13
f 343/1/14 342/1/14 353/1/14 354/1/14
f 342/1/15 352/1/15 363/1/15 353/1/15
f 346/1/16 345/1/16 356/1/16 357/1/16
f 344/1/17 343/1/17 354/1/17 355/1/17
f 347/1/18 346/1/18 357/1/18 358/1/18
f 348/1/19 347/1/19 358/1/19 359/1/19
f 349/1/20 348/1/20 359/1/20 360/1/20
f 363/1/21 362/1/21 373/1/21 374/1/21
f 354/1/22 353/1/22 364/1/22 365/1/22
f 353/1/23 363/1/23 374/1/23 364/1/23
f 357/1/24 356/1/24 367/1/24 368/1/24
f 355/1/25 354/1/25 365/1/25 366/1/25
f 358/1/26 357/1/26 368/1/26 369/1/26
f 359/1/27 358/1/27 369/1/27 370/1/27
f 360/1/28 359/1/28 370/1/28 371/1/28
f 361/1/29 360/1/29 371/1/29 372/1/29
f 362/1/30 361/1/30 372/1/30 373/1/30
f 369/1/33 368/1/33 379/1/33 380/1/33
f 370/1/34 369/1/34 380/1/34 381/1/34
f 371/1/35 370/1/35 381/1/35 382/1/35
f 372/1/36 371/1/36 382/1/36 383/1/36
f 373/1/37 372/1/37 383/1/37 384/1/37
f 374/1/38 373/1/38 384/1/38 385/1/38
f 365/1/39 364/1/39 375/1/39 376/1/39
f 364/1/40 374/1/40 385/1/40 375/1/40
f 368/1/31 367/1/31 378/1/31 379/1/31
f 366/1/32 365/1/32 376/1/32 377/1/32
f 382/1/42 381/1/42 392/1/42 393/1/42
f 383/1/43 382/1/43 393/1/43 394/1/43
f 384/1/44 383/1/44 394/1/44 395/1/44
f 385/1/45 384/1/45 395/1/45 396/1/45
f 376/1/46 375/1/46 386/1/46 387/1/46
f 375/1/47 385/1/47 396/1/47 386/1/47
f 379/1/48 378/1/48 389/1/48 390/1/48
f 377/1/49 376/1/49 387/1/49 388/1/49
f 380/1/50 379/1/50 390/1/50 391/1/50
f 381/1/41 380/1/41 391/1/41 392/1/41
f 395/1/52 394/1/52 405/1/52 406/1/52
f 396/1/53 395/1/53 406/1/53 407/1/53
f 387/1/54 386/1/54 397/1/54 398/1/54
f 386/1/55 396/1/55 407/1/55 397/1/55
f 390/1/56 389/1/56 400/1/56 401/1/56
f 388/1/57 387/1/57 398/1/57 399/1/57
f 391/1/58 390/1/58 401/1/58 402/1/58
f 392/1/59 391/1/59 402/1/59 403/1/59
f 393/1/60 392/1/60 403/1/60 404/1/60
f 394/1/301 393/1/301 404/1/301 405/1/301
f 398/1/62 397/1/62 408/1/62 409/1/62
f 397/1/63 407/1/63 418/1/63 408/1/63
f 401/1/64 400/1/64 411/1/64 412/1/64
f 399/1/65 398/1/65 409/1/65 410/1/65
f 402/1/66 401/1/66 412/1/66 413/1/66
f 403/1/67 402/1/67 413/1/67 414/1/67
f 404/1/68 403/1/68 414/1/68 415/1/68
f 405/1/69 404/1/69 415/1/69 416/1/69
f 406/1/70 405/1/70 416/1/70 417/1/70
f 407/1/61 406/1/61 417/1/61 418/1/61
f 414/1/73 413/1/73 424/1/73 425/1/73
f 415/1/74 414/1/74 425/1/74 426/1/74
f 416/1/75 415/1/75 426/1/75 427/1/75
f 417/1/76 416/1/76 427/1/76 428/1/76
f 418/1/77 417/1/77 428/1/77 429/1/77
f 409/1/78 408/1/78 419/1/78 420/1/78
f 408/1/79 418/1/79 429/1/79 419/1/79
f 412/1/80 411/1/80 422/1/80 423/1/80
f 410/1/71 409/1/71 420/1/71 421/1/71
f 413/1/72 412/1/72 423/1/72 424/1/72
f 427/1/82 426/1/82 437/1/82 438/1/82
f 428/1/83 427/1/83 438/1/83 439/1/83
f 429/1/84 428/1/84 439/1/84 440/1/84
f 420/1/85 419/1/85 430/1/85 431/1/85
f 419/1/86 429/1/86 440/1/86 430/1/86
f 423/1/87 422/1/87 433/1/87 434/1/87
f 421/1/88 420/1/88 431/1/88 432/1/88
f 424/1/89 423/1/89 434/1/89 435/1/89
f 425/1/90 424/1/90 435/1/90 436/1/90
f 426/1/81 425/1/81 436/1/81 437/1/81
f 440/1/92 439/1/92 450/1/92 451/1/92
f 431/1/93 430/1/93 441/1/93 442/1/93
f 430/1/94 440/1/94 451/1/94 441/1/94
f 434/1/95 433/1/95 444/1/95 445/1/95
f 432/1/96 431/1/96 442/1/96 443/1/96
f 435/1/97 434/1/97 445/1/97 446/1/97
f 436/1/98 435/1/98 446/1/98 447/1/98
f 437/1/99 436/1/99 447/1/99 448/1/99
f 438/1/100 437/1/100 448/1/100 449/1/100
f 439/1/91 438/1/91 449/1/91 450/1/91
f 445/1/103 444/1/103 455/1/103 456/1/103
f 443/1/104 442/1/104 453/1/104 454/1/104
f 446/1/105 445/1/105 456/1/105 457/1/105
f 447/1/106 446/1/106 457/1/106 458/1/106
f 448/1/107 447/1/107 458/1/107 459/1/107
f 449/1/108 448/1/108 459/1/108 460/1/108
f 450/1/109 449/1/109 460/1/109 461/1/109
f 451/1/110 450/1/110 461/1/110 462/1/110
f 442/1/101 441/1/101 452/1/101 453/1/101
f 441/1/102 451/1/102 462/1/102 452/1/102
f 458/1/112 457/1/112 468/1/112 469/1/112
f 459/1/113 458/1/113 469/1/113 470/1/113
f 460/1/114 459/1/114 470/1/114 471/1/114
f 461/1/115 460/1/115 471/1/115 472/1/115
f 462/1/116 461/1/116 472/1/116 473/1/116
f 453/1/117 452/1/117 463/1/117 464/1/117
f 452/1/118 462/1/118 473/1/118 463/1/118
f 456/1/119 455/1/119 466/1/119 467/1/119
f 454/1/120 453/1/120 464/1/120 465/1/120
f 457/1/111 456/1/111 467/1/111 468/1/111
f 471/1/122 470/1/122 481/1/122 482/1/122
f 472/1/123 471/1/123 482/1/123 483/1/123
f 473/1/124 472/1/124 483/1/124 484/1/124
f 464/1/125 463/1/125 474/1/125 475/1/125
f 463/1/126 473/1/126 484/1/126 474/1/126
f 467/1/127 466/1/127 477/1/127 478/1/127
f 465/1/128 464/1/128 475/1/128 476/1/128
f 468/1/129 467/1/129 478/1/129 479/1/129
f 469/1/130 468/1/130 479/1/130 480/1/130
f 470/1/121 469/1/121 480/1/121 481/1/121
f 484/1/132 483/1/132 494/1/132 495/1/132
f 475/1/133 474/1/133 485/1/133 486/1/133
f 474/1/134 484/1/134 495/1/134 485/1/134
f 478/1/135 477/1/135 488/1/135 489/1/135
f 476/1/136 475/1/136 486/1/136 487/1/136
f 479/1/137 478/1/137 489/1/137 490/1/137
f 480/1/138 479/1/138 490/1/138 491/1/138
f 481/1/139 480/1/139 491/1/139 492/1/139
f 482/1/140 481/1/140 492/1/140 493/1/140
f 483/1/131 482/1/131 493/1/131 494/1/131
f 487/1/143 486/1/143 497/1/143 498/1/143
f 9/1/302 10/1/302 508/1/302 509/1/302
f 490/1/144 489/1/144 500/1/144 501/1/144
f 491/1/145 490/1/145 501/1/145 502/1/145
f 492/1/146 491/1/146 502/1/146 503/1/146
f 493/1/147 492/1/147 503/1/147 504/1/147
f 494/1/148 493/1/148 504/1/148 505/1/148
f 495/1/149 494/1/149 505/1/149 506/1/149
f 486/1/150 485/1/150 496/1/150 497/1/150
f 485/1/141 495/1/141 506/1/141 496/1/141
f 489/1/142 488/1/142 499/1/142 500/1/142
f 8/1/303 9/1/303 509/1/303 510/1/303
f 7/1/304 8/1/304 510/1/304 511/1/304
f 6/1/305 7/1/305 511/1/305 512/1/305
f 5/1/306 6/1/306 512/1/306 513/1/306
f 2/1/307 3/1/307 515/1/307 516/1/307
f 4/1/308 5/1/308 513/1/308 514/1/308
f 11/1/309 1/1/309 517/1/309 507/1/309
f 1/1/310 2/1/310 516/1/310 517/1/310
f 10/1/311 11/1/311 507/1/311 508/1/311
f 517/1/312 516/1/312 515/1/312 514/1/312 513/1/312 512/1/312 511/1/312 510/1/312 509/1/312 508/1/312 507/1/312
